<?xml version="1.0" encoding="utf-8"?>
<!-- Generator: Adobe Illustrator 22.0.0, SVG Export Plug-In . SVG Version: 6.00 Build 0)  -->
<svg version="1.1" id="Layer_1" xmlns="http://www.w3.org/2000/svg" xmlns:xlink="http://www.w3.org/1999/xlink" x="0px" y="0px"
	 viewBox="0 0 1200 1000" style="enable-background:new 0 0 1200 1000;" xml:space="preserve">
<style type="text/css">
	.st0{fill:#ECF0F1;}
	.st1{fill:#E74C3C;}
	.st2{fill:#2980B9;}
	.st3{fill:#2E4F66;}
	.st4{opacity:0.2;}
	.st5{fill:#3F3D56;}
	.st6{opacity:0.1;enable-background:new    ;}
	.st7{opacity:0.1;fill:#E74C3C;enable-background:new    ;}
	.st8{opacity:0.3;fill:#E74C3C;enable-background:new    ;}
	.st9{fill:#444053;}
	.st10{opacity:0.7;fill:#3F3D56;enable-background:new    ;}
	.st11{fill:#F5F5FB;}
	.st12{fill:#F7F7FD;}
	.st13{opacity:0.1;fill:#2E4F66;enable-background:new    ;}
	.st14{fill:none;stroke:#565987;stroke-miterlimit:10;}
	.st15{fill:#FFD037;}
	.st16{fill:#A8A8A8;}
	.st17{opacity:0.2;enable-background:new    ;}
	.st18{opacity:0.1;}
	.st19{fill:url(#Caminho_43_2_);}
	.st20{fill:#DB8B8B;}
	.st21{fill:#C17174;}
	.st22{fill:#474463;}
	.st23{fill:#FF748E;}
	.st24{opacity:5.000000e-02;enable-background:new    ;}
	.st25{fill:#464353;}
	.st26{fill:#FC6681;}
	.st27{opacity:0.7;fill:#3ACC6C;enable-background:new    ;}
</style>
<g>
	<path class="st1" d="M1019.2,438c-5.9,33.8-16.5,71.8-32.2,111.7c-10.4,26.4-23.1,53.7-38.1,81c-2.1,3.9-4.3,7.8-6.6,11.8
		c-57.8,100.9-147.6,202-274.4,268.9c-18.2,9.6-37.1,18.5-56.8,26.6c-78.2,32.1-279.6,114.7-437.2,12.6
		c-22.9-14.9-43.2-32.5-60.9-52.3c-27.3-30.6-48.6-66.3-64.2-105.2c-0.8-2-1.6-4-2.4-5.9c-2.3-6-4.5-12-6.5-18.1
		c-0.8-2.3-1.5-4.6-2.2-6.9c-0.7-2.1-1.3-4.2-1.9-6.3c-0.3-1.1-0.7-2.2-1-3.3c-8.6-29.6-14.4-60.5-17.4-91.8l-0.4-4.4
		c-5.9-67.6,0.9-137,18.9-199.8c1.7-5.8,3.4-11.5,5.2-17.1c4.6-14.1,9.7-27.8,15.4-41.1c6-13.8,12.5-27,19.5-39.6
		c46.4-83.2,114.2-140.2,183.9-179.6c21.4-12.1,43-22.6,64.2-31.6c44.1-18.8,86.5-31.6,121.9-40.5c2.7-0.7,5.3-1.3,7.9-1.9
		c22.7-5.5,42.3-9.4,57.1-12.4c2-0.4,4.4-0.9,7.2-1.4c1.2-0.2,2.5-0.5,3.8-0.7h0c23.1-4.4,65.7-11.5,116.8-12.7
		c51-1.2,110.5,3.4,167.3,22.3c1.5,0.5,2.9,1,4.4,1.5c23.4,8.1,46.3,18.7,68,32.4c4,2.5,9.1,5.7,15,9.7
		c12.2,8.3,27.7,19.8,43.8,35.3c17.4,16.8,35.5,38.2,50.8,65.1c0,0,27.6,48.7,35.2,110C1026.1,376.9,1024.9,405.5,1019.2,438z"/>
	<g>
		<g id="Grupo_37_1_" transform="translate(0.037 -0.05)">
			<g id="Grupo_30_1_" transform="translate(208.775 6.805)" class="st4">
				<path id="Caminho_108_1_" class="st5" d="M-5.4,680c0,1.2-0.1,2.3-0.3,3.5c-9.7-3.9-19.3-8.1-28.8-12.5c-5-0.7-9.7-2.9-13.3-6.5
					c-2.8-1.4-5.5-2.8-8.2-4.3c0.6-1.3,1.3-2.6,2.1-3.8c5.3-8.4,13.3-13.6,22.2-13.3s16.5,6,21.3,14.6C-6.8,664.6-5.1,672.3-5.4,680
					L-5.4,680z"/>
				<path id="Caminho_109_1_" class="st5" d="M-4,636.1c-0.2,7.7-2.4,15.2-6.4,21.8c-5.3,8.3-13.3,13.6-22.2,13.3
					c-0.6,0-1.3-0.1-1.8-0.1c-5-0.7-9.7-2.9-13.3-6.5c-2.5-2.3-4.5-5-6.1-8c-7.2-13.9-6.7-30.5,1.4-44c5.3-8.4,13.3-13.6,22.2-13.3
					s16.5,6,21.3,14.6C-5.4,620.8-3.6,628.4-4,636.1L-4,636.1z"/>
				
					<ellipse id="Elipse_41_1_" transform="matrix(3.158516e-02 -0.9995 0.9995 3.158516e-02 -620.1638 542.5945)" class="st5" cx="-30.1" cy="591.3" rx="36" ry="27.5"/>
				
					<ellipse id="Elipse_42_1_" transform="matrix(3.158516e-02 -0.9995 0.9995 3.158516e-02 -574.9182 501.4396)" class="st5" cx="-28.7" cy="547.4" rx="36" ry="27.5"/>
				
					<ellipse id="Elipse_43_1_" transform="matrix(3.158516e-02 -0.9995 0.9995 3.158516e-02 -529.6726 460.2848)" class="st5" cx="-27.3" cy="503.5" rx="36" ry="27.5"/>
				<path class="st1" d="M108.6,256.1c2.3,10.6,3.3,21.3,3,32c0,1.3-0.1,2.6-0.2,3.9c-1.7,27.8-12.1,54.8-30.6,76.8
					c30.2,41,33.1,93.7,12.1,136.4c0,0,0,0,0,0c-0.5,1.1-1.1,2.2-1.7,3.2c0,0.1-0.1,0.2-0.2,0.3c-0.5,1-1.1,2-1.6,2.9
					c-4.5,7.9-9.8,15.3-15.9,22.3c-0.9,1-1.7,1.9-2.6,2.9c-0.9,1-1.8,1.9-2.7,2.8c-4.7,4.7-9.7,9.1-15.2,13.1
					c-17.7,13-37.5,21-57.8,24.1c-3.3,0.5-6.6,0.9-9.9,1.1c-10.1,0.8-20.2,0.4-30.2-1.1c-3.2-0.5-6.4-1.1-9.6-1.8
					c-29.6-6.8-57.1-23.8-76.5-50.2c-13.2-17.9-21.2-38.2-24.3-59c-0.8-5.1-1.2-10.3-1.3-15.5c-0.7-24.7,5.6-49.6,18.8-71.4
					c0.9-1.5,1.8-3,2.8-4.5c2.8-4.2,5.8-8.3,9.1-12.3c-2.5-3.3-4.8-6.8-6.9-10.3c46.4-83.2,114.2-140.2,183.9-179.6
					c21.4-12.1,43-22.6,64.2-31.6c-1.6,10.7-4.5,21.3-8.8,31.6c-2.7,6.5-6,12.8-9.8,18.9c-3.2,5.2-6.9,10.2-10.8,14.9
					c5.6,7.6,10.4,15.8,14.2,24.4l-53.9,25.9l-0.8,0.4L5.1,276.3L42.7,265l29.7-8.9l33.6-10.1C107,249.3,107.9,252.7,108.6,256.1z"
					/>
				<path id="Caminho_111_1_" class="st6" d="M111.7,288.3c-0.9,29.5-11.7,57.8-30.7,80.4c43.1,58.5,30.6,140.9-27.9,184
					c-58.5,43.1-140.9,30.6-184-27.9c-36-48.9-33.9-116,5.1-162.6C-142.7,339.3,112.1,273.6,111.7,288.3z"/>
			</g>
			<g id="Grupo_31_1_" transform="translate(802.016 100.613)" class="st4">
				<path id="Caminho_112_1_" class="st5" d="M19.7,492.3c0,0.8-0.1,1.7-0.2,2.5c-7-2.8-13.8-5.7-20.5-8.9c-3.6-0.5-6.9-2.1-9.5-4.6
					c-1.9-1-3.9-2-5.8-3c0.4-0.9,0.9-1.8,1.5-2.7c3.8-6,9.5-9.7,15.8-9.5c6.3,0.2,11.8,4.3,15.1,10.4
					C18.7,481.4,19.9,486.8,19.7,492.3L19.7,492.3z"/>
				<path id="Caminho_113_1_" class="st5" d="M20.7,461c-0.1,5.5-1.7,10.8-4.6,15.5c-3.8,5.9-9.5,9.7-15.8,9.5l-1.3-0.1
					c-3.6-0.5-6.9-2.1-9.5-4.6c-1.7-1.7-3.2-3.6-4.4-5.7c-5.1-9.9-4.8-21.7,1-31.2c3.8-6,9.5-9.7,15.8-9.5s11.8,4.3,15.1,10.4
					C19.7,450.1,21,455.5,20.7,461z"/>
				
					<ellipse id="Elipse_44_1_" transform="matrix(3.158516e-02 -0.9995 0.9995 3.158516e-02 -426.8113 417.8396)" class="st5" cx="2.2" cy="429.2" rx="25.6" ry="19.5"/>
				
					<ellipse id="Elipse_45_1_" transform="matrix(3.158516e-02 -0.9995 0.9995 3.158516e-02 -394.6248 388.5463)" class="st5" cx="3.2" cy="397.9" rx="25.6" ry="19.5"/>
				
					<ellipse id="Elipse_46_1_" transform="matrix(3.158516e-02 -0.9995 0.9995 3.158516e-02 -362.4287 359.2652)" class="st5" cx="4.2" cy="366.7" rx="25.6" ry="19.5"/>
				<path id="Caminho_114_1_" class="st1" d="M-62.3,150.5c-2.6-3.5-4.9-7.1-6.9-10.9l51.6-6.8l-55.5-1.3
					c-10-23.8-9.8-50.6,0.5-74.2L0.6,98.1l-67.1-52.7C-39.2,1.5,18.5-12.1,62.5,15s57.6,84.9,30.4,128.9c-2.4,3.9-5.1,7.6-8.1,11.2
					c4,5.4,7.4,11.3,10.1,17.4L27.2,205L99,183.4c9.2,30.3,2.5,63.1-17.9,87.4C111.9,312.4,103,371,61.4,401.7
					s-100.2,21.8-130.9-19.8c-25.6-34.8-24.1-82.6,3.6-115.7C-91.5,231.4-90,183.6-62.3,150.5L-62.3,150.5z"/>
				<path id="Caminho_115_1_" class="st6" d="M103,213.5c-0.6,21-8.3,41.2-21.9,57.2C111.9,312.4,103,371,61.3,401.7
					s-100.2,21.8-130.9-19.8c-25.6-34.8-24.1-82.6,3.6-115.7C-78,249.8,103.4,203,103,213.5z"/>
			</g>
			<g id="Grupo_32_1_" transform="translate(562.008 13.006)" class="st4">
				<path id="Caminho_116_1_" class="st5" d="M-8,481.8c0,0.8-0.1,1.7-0.2,2.5c-7-2.8-13.8-5.7-20.5-8.9c-3.6-0.5-6.9-2.1-9.5-4.6
					c-2-1-3.9-2-5.8-3c0.4-0.9,0.9-1.8,1.5-2.7c3.8-5.9,9.5-9.7,15.8-9.5c6.3,0.2,11.8,4.3,15.1,10.4C-9.1,470.9-7.8,476.4-8,481.8z
					"/>
				<path id="Caminho_117_1_" class="st5" d="M-7.1,450.6c-0.1,5.5-1.7,10.8-4.6,15.5c-3.8,5.9-9.5,9.7-15.8,9.5
					c-0.4,0-0.8,0-1.3-0.1c-3.6-0.5-6.9-2.1-9.5-4.6c-1.7-1.7-3.2-3.6-4.4-5.7c-5.1-9.9-4.7-21.7,1-31.2c3.8-6,9.5-9.7,15.8-9.5
					s11.8,4.3,15.1,10.4C-8.1,439.7-6.9,445.1-7.1,450.6L-7.1,450.6z"/>
				
					<ellipse id="Elipse_47_1_" transform="matrix(2.998030e-02 -0.9996 0.9996 2.998030e-02 -443.1938 378.4645)" class="st5" cx="-26.6" cy="417.6" rx="25.6" ry="19.5"/>
				
					<ellipse id="Elipse_48_1_" transform="matrix(3.158516e-02 -0.9995 0.9995 3.158516e-02 -411.1516 350.6387)" class="st5" cx="-24.6" cy="387.5" rx="25.6" ry="19.5"/>
				
					<ellipse id="Elipse_49_1_" transform="matrix(3.158516e-02 -0.9995 0.9995 3.158516e-02 -378.9303 321.3592)" class="st5" cx="-23.6" cy="356.2" rx="25.6" ry="19.5"/>
				<path id="Caminho_118_1_" class="st1" d="M-90.1,140c-2.6-3.5-4.9-7.1-6.9-10.9l51.6-6.8l-55.6-1.3c-10-23.8-9.8-50.6,0.6-74.2
					l73.3,41L-94.2,35C-66.9-8.9-9.2-22.3,34.7,5c43.9,27.3,57.4,85,30.1,128.9c-2.3,3.8-4.9,7.3-7.8,10.7c4,5.4,7.4,11.3,10.1,17.4
					l-67.7,32.5L71.3,173c9.2,30.3,2.5,63.1-17.9,87.4C84.1,302,75.2,360.6,33.5,391.2C-8.1,421.9-66.8,413-97.4,371.3
					c-25.6-34.8-24.1-82.6,3.7-115.6C-119.3,220.9-117.8,173.1-90.1,140L-90.1,140z"/>
				<path id="Caminho_119_1_" class="st6" d="M75.2,203.1c-0.6,21-8.3,41.2-21.9,57.2C84,302,75.1,360.6,33.5,391.3
					C-8.1,421.9-66.7,413-97.4,371.4c-25.6-34.8-24.1-82.6,3.7-115.7C-105.8,239.4,75.6,192.6,75.2,203.1z"/>
			</g>
			<path class="st7" d="M1163.8,848.3c-14.8,12.3-32.6,21.1-51.8,27.6c-14.6,5-30,8.7-45.4,11.6c0,0,0,0,0,0
				c-6.3,1.2-12.6,2.3-18.9,3.3l-7.1,1.1c-73.6,11-148.6,13.2-223.3,15.4c-49.8,1.5-99.6,2.9-149.4,4.1
				c-68.6,1.7-137.2,2.8-205.8,2.6h-0.6c-1.8,0-3.6,0-5.3,0h-0.6c-87.9-0.3-175.6-2.7-263.2-8.6c-26.4-1.8-52.9-4-79.3-7.1
				C85.7,867.7,64.4,832,48.8,793.1c-0.8-2-1.6-4-2.4-5.9c-2.3-6-4.5-12-6.5-18.1c-0.8-2.3-1.5-4.6-2.2-6.9
				c-0.7-2.1-1.3-4.2-1.9-6.3c-0.3-1.1-0.7-2.2-1-3.3c-8.6-29.6-14.4-60.5-17.4-91.8l-0.4-4.4c-5.9-67.6,0.9-137,18.9-199.8
				c1.7-5.8,3.4-11.5,5.2-17.1c4.6-14.1,9.7-27.8,15.4-41.1c6-13.8,12.5-27,19.5-39.6c46.4-83.2,114.2-140.2,183.9-179.6
				c21.4-12.1,43-22.6,64.2-31.6c44.1-18.8,86.5-31.6,121.9-40.5c2.8,0.9,5.6,1.8,8.4,2.7c54.1,17.3,109.9,30,167.5,32
				c2.6,0.1,5.1,0.1,7.7,0.2c41.2,0.6,85.5-5.1,125.5-18.5c16.6-5.6,32.5-12.5,47.1-20.9c1.3-0.7,2.6-1.5,3.9-2.3
				c13.8-8.3,26.3-17.9,37.1-28.9c50.4-51.3,145.2-55.2,213.5-24.2c65.2,29.6,107.4,92.1,104.2,154.6c-4,78-69,140.5-120.5,206.9
				c0,0,0,0-0.1,0.1c-7.5,9.7-14.7,19.4-21.3,29.3c-0.9,1.4-1.9,2.8-2.8,4.2c-21.5,32.7-37.5,71.3-29.4,107.4
				c1.1,4.8,2.6,9.6,4.5,14.2c9.4,22.4,27.4,39.5,49,54.4c0,0,0,0,0.1,0c48.5,33.4,115.6,56,145.7,102.8
				C1212.2,761.5,1202.6,816.1,1163.8,848.3z"/>
			<path class="st5" d="M1040.5,618.3v273.5c-73.6,11-148.6,13.2-223.3,15.4c-49.8,1.5-99.6,2.9-149.4,4.1
				c-68.6,1.7-137.2,2.8-205.8,2.6h-0.6c-1.8,0-3.6,0-5.3,0h-0.6c-87.9-0.3-175.6-2.7-263.2-8.6c-26.4-1.8-52.9-4-79.3-7.1
				C85.7,867.7,64.4,832,48.8,793.1c-0.8-2-1.6-4-2.4-5.9c-2.3-6-4.5-12-6.5-18.1c-0.8-2.3-1.5-4.6-2.2-6.9
				c-0.7-2.1-1.3-4.2-1.9-6.3c-0.3-1.1-0.7-2.2-1-3.3c-8.6-29.6-14.4-60.5-17.4-91.8l-0.4-4.4c-5.9-67.6,0.9-137,18.9-199.8
				c1.7-5.8,3.4-11.5,5.2-17.1c4.6-14.1,9.7-27.8,15.4-41.1c6-13.8,12.5-27,19.5-39.6c46.4-83.2,114.2-140.2,183.9-179.6h762.8
				c9.8,0,17.7,7.9,17.7,17.7v211.8C1041.3,617.8,1040,409.4,1040.5,618.3z"/>
			<ellipse id="Elipse_26_1_" class="st1" cx="1040.7" cy="874.7" rx="71.6" ry="13.8"/>
			<ellipse id="Elipse_27_1_" class="st5" cx="1039.5" cy="868.8" rx="8.3" ry="10.9"/>
			<ellipse id="Elipse_28_1_" class="st5" cx="1039.5" cy="855.5" rx="8.3" ry="10.9"/>
			<ellipse id="Elipse_29_1_" class="st5" cx="1039.5" cy="842.1" rx="8.3" ry="10.9"/>
			<ellipse id="Elipse_30_1_" class="st5" cx="1039.5" cy="828.8" rx="8.3" ry="10.9"/>
			<ellipse id="Elipse_31_1_" class="st5" cx="1039.5" cy="815.4" rx="8.3" ry="10.9"/>
			<ellipse id="Elipse_32_1_" class="st5" cx="1039.5" cy="802.1" rx="8.3" ry="10.9"/>
			<ellipse id="Elipse_33_1_" class="st5" cx="1039.5" cy="788.8" rx="8.3" ry="10.9"/>
			<path id="Caminho_103_1_" class="st1" d="M1070.7,697.5c1.1-1.4,2.2-3,3.1-4.6l-21.9-3.6l23.7,0.2c4.6-10,4.9-21.4,0.8-31.7
				l-31.8,16.5l29.3-21.5c-11-19.1-35.4-25.7-54.5-14.7s-25.7,35.4-14.7,54.5c1,1.7,2.1,3.3,3.3,4.9c-1.8,2.3-3.3,4.7-4.6,7.3
				l28.4,14.8l-30.3-10.2c-4.3,12.8-1.9,26.9,6.4,37.5c-13.6,17.3-10.6,42.5,6.7,56.1c17.3,13.6,42.5,10.6,56.1-6.7
				c11.4-14.5,11.4-34.9,0-49.4C1082.1,732.4,1082.1,712,1070.7,697.5L1070.7,697.5z"/>
			<path id="Caminho_104_1_" class="st6" d="M999.4,722.2c0,9,3,17.7,8.6,24.7c-13.6,17.3-10.6,42.5,6.7,56.1
				c17.3,13.6,42.5,10.6,56.1-6.7c11.4-14.5,11.4-34.9,0-49.4C1076,740.1,999.4,717.7,999.4,722.2z"/>
			<path id="Retângulo_2_1_" class="st8" d="M257.3,262.9h451.6c3.2,0,5.8,2.6,5.8,5.8v24.2c0,3.2-2.6,5.8-5.8,5.8H257.3
				c-3.2,0-5.8-2.6-5.8-5.8v-24.2C251.5,265.5,254.1,262.9,257.3,262.9z"/>
			<path id="Caminho_121_1_" class="st9" d="M683.3,282.3h-0.8l-0.3-0.2c1-1.1,1.5-2.6,1.5-4.1c0-3.4-2.9-6.2-6.3-6.1
				c-3.4,0-6.2,2.9-6.1,6.3c0,3.4,2.8,6.1,6.2,6.1c1.5,0,2.9-0.5,4.1-1.5l0.3,0.2v0.7l4.8,4.8l1.4-1.4L683.3,282.3z M680.6,281
				c-0.8,0.8-1.9,1.3-3.1,1.3c-2.4,0-4.3-1.9-4.3-4.3c0-2.4,1.9-4.3,4.3-4.3c2.4,0,4.3,1.9,4.3,4.3
				C681.8,279.1,681.4,280.2,680.6,281z"/>
			<path id="Retângulo_3_1_" class="st10" d="M104.7,608.8h32.1c3.1,0,5.6,2.5,5.6,5.6v3.8c0,3.1-2.5,5.6-5.6,5.6h-32.1
				c-3.1,0-5.6-2.5-5.6-5.6v-3.8C99.1,611.3,101.6,608.8,104.7,608.8z"/>
			<path id="Retângulo_4_1_" class="st8" d="M104.7,646.2h56.1c3.1,0,5.6,2.5,5.6,5.6v3.8c0,3.1-2.5,5.6-5.6,5.6h-56.1
				c-3.1,0-5.6-2.5-5.6-5.6v-3.8C99.1,648.7,101.6,646.2,104.7,646.2z"/>
			<path id="Retângulo_5_1_" class="st8" d="M104.7,627.5H228c3.1,0,5.6,2.5,5.6,5.6v3.8c0,3.1-2.5,5.6-5.6,5.6H104.7
				c-3.1,0-5.6-2.5-5.6-5.6v-3.8C99.1,630,101.6,627.5,104.7,627.5z"/>
			<path id="Caminho_122_1_" class="st1" d="M59.3,623.5C59.3,623.4,59.3,623.4,59.3,623.5l-3.3-3.2c-0.9-0.9-2.5-0.9-3.4,0
				l-21.8,21.3l6.7,6.6l21.7-21.3C60.2,625.9,60.2,624.4,59.3,623.5z M26,645.7L26,645.7L26,645.7c-4.1,0-7.3,3.1-7.4,7.1
				c0,1.3-0.6,2.5-1.5,3.4c0,0-0.1,0.1-0.1,0.1l0.4,4.4c1.8,1,3.9,1.6,6.1,1.6c5.3,0.1,9.7-4.2,9.7-9.5
				C33.2,648.9,30,645.7,26,645.7z"/>
			<path id="Retângulo_6_1_" class="st10" d="M104.7,423.5h32.1c3.1,0,5.6,2.5,5.6,5.6v3.8c0,3.1-2.5,5.6-5.6,5.6h-32.1
				c-3.1,0-5.6-2.5-5.6-5.6v-3.8C99.1,426,101.6,423.5,104.7,423.5z"/>
			<path id="Retângulo_7_1_" class="st8" d="M104.7,460.9h56.1c3.1,0,5.6,2.5,5.6,5.6v3.8c0,3.1-2.5,5.6-5.6,5.6h-56.1
				c-3.1,0-5.6-2.5-5.6-5.6v-3.8C99.1,463.4,101.6,460.9,104.7,460.9z"/>
			<path id="Retângulo_8_1_" class="st8" d="M104.7,442.2H228c3.1,0,5.6,2.5,5.6,5.6v3.8c0,3.1-2.5,5.6-5.6,5.6H104.7
				c-3.1,0-5.6-2.5-5.6-5.6v-3.8C99.1,444.7,101.6,442.2,104.7,442.2z"/>
			<path class="st1" d="M59.1,467.3l-4.8,4.9c0,0-0.1,0.1-0.1,0.1c-0.2,0.2-0.4,0.3-0.6,0.4c0,0,0,0-0.1,0c-0.7,0.3-1.6,0.1-2.2-0.5
				l-15.4-15.6c1.7-5.8,3.4-11.5,5.2-17.1c0.1,1.9-0.2,3.8-0.9,5.7l12,12l0,0.1l7.1,7.1v0c0.1,0.1,0.2,0.2,0.3,0.3
				C60.2,465.5,60,466.7,59.1,467.3z"/>
			<path id="Retângulo_9_1_" class="st10" d="M464.9,608.8h32.1c3.1,0,5.6,2.5,5.6,5.6v3.8c0,3.1-2.5,5.6-5.6,5.6h-32.1
				c-3.1,0-5.6-2.5-5.6-5.6v-3.8C459.3,611.3,461.8,608.8,464.9,608.8z"/>
			<path id="Retângulo_10_1_" class="st8" d="M464.9,646.2h56.1c3.1,0,5.6,2.5,5.6,5.6v3.8c0,3.1-2.5,5.6-5.6,5.6h-56.1
				c-3.1,0-5.6-2.5-5.6-5.6v-3.8C459.3,648.7,461.8,646.2,464.9,646.2z"/>
			<path id="Retângulo_11_1_" class="st8" d="M464.9,627.5h123.3c3.1,0,5.6,2.5,5.6,5.6v3.8c0,3.1-2.5,5.6-5.6,5.6H464.9
				c-3.1,0-5.6-2.5-5.6-5.6v-3.8C459.3,630,461.8,627.5,464.9,627.5z"/>
			<path id="Caminho_124_1_" class="st1" d="M390.1,627c-6,0-10.9,4.9-10.9,10.9s4.9,10.9,10.9,10.9c6,0,10.9-4.9,10.9-10.9
				c0,0,0,0,0,0C401,631.8,396.1,627,390.1,627z M390.1,646.2c-3.3-0.1-6.3-2.1-7.6-5.2h15.3C396.4,644.1,393.4,646.1,390.1,646.2z
				 M396.3,650c-3.8,2.2-8.6,2.2-12.4,0c-4.9,1.5-7.8,6.4-8.9,10.7h30.3C404.1,656.4,401.2,651.5,396.3,650z"/>
			<path id="Caminho_125_1_" class="st1" d="M406,621.1L406,621.1c-3.7,0-7.2,1.9-9.2,5.1c3.3,1.9,5.7,5.2,6.5,9h10.4
				c-1.3,3.1-4.3,5.1-7.6,5.2c-0.9,0-1.8-0.2-2.6-0.5c-0.1,0.9-0.4,1.8-0.7,2.6c1.1,0.3,2.2,0.5,3.3,0.5c6,0,10.9-4.9,10.9-10.9
				S412,621.1,406,621.1z M412.2,644.2c-3.2,1.8-7.1,2.1-10.5,0.9c-0.8,1.3-1.8,2.5-2.9,3.6c2.5,1.2,4.7,3.1,6.1,5.4h16.2
				C420.1,649.5,416.7,645.7,412.2,644.2z"/>
			<path id="Retângulo_12_1_" class="st10" d="M104.7,747.8h32.1c3.1,0,5.6,2.5,5.6,5.6v3.8c0,3.1-2.5,5.6-5.6,5.6h-32.1
				c-3.1,0-5.6-2.5-5.6-5.6v-3.8C99.1,750.3,101.6,747.8,104.7,747.8z"/>
			<path id="Retângulo_13_1_" class="st8" d="M104.7,785.2h56.1c3.1,0,5.6,2.5,5.6,5.6v3.8c0,3.1-2.5,5.6-5.6,5.6h-56.1
				c-3.1,0-5.6-2.5-5.6-5.6v-3.8C99.1,787.7,101.6,785.2,104.7,785.2z"/>
			<path id="Retângulo_14_1_" class="st8" d="M104.7,766.5H228c3.1,0,5.6,2.5,5.6,5.6v3.8c0,3.1-2.5,5.6-5.6,5.6H104.7
				c-3.1,0-5.6-2.5-5.6-5.6v-3.8C99.1,769,101.6,766.5,104.7,766.5z"/>
			<path id="Caminho_126_1_" class="st1" d="M41,752.5h-6.2c0.3,1.1,0.6,2.2,1,3.3h1.9v6.3c0.7,2.3,1.5,4.6,2.2,6.9h10.9l0,17.3
				c0,0.5-0.3,0.8-0.8,0.9h-3.7c0.8,2,1.6,4,2.4,5.9c0.3-0.6,0.4-1.2,0.4-1.9v-0.8h0.9c2.3,0,4.1-1.9,4.1-4.2c0,0,0,0,0,0v-20.6
				L41,752.5z M41,765.7v-8.6l8.6,8.6H41z"/>
			<path id="Retângulo_15_1_" class="st10" d="M464.9,423.5h32.1c3.1,0,5.6,2.5,5.6,5.6v3.8c0,3.1-2.5,5.6-5.6,5.6h-32.1
				c-3.1,0-5.6-2.5-5.6-5.6v-3.8C459.3,426,461.8,423.5,464.9,423.5z"/>
			<path id="Retângulo_16_1_" class="st8" d="M464.9,460.9h56.1c3.1,0,5.6,2.5,5.6,5.6v3.8c0,3.1-2.5,5.6-5.6,5.6h-56.1
				c-3.1,0-5.6-2.5-5.6-5.6v-3.8C459.3,463.4,461.8,460.9,464.9,460.9z"/>
			<path id="Retângulo_17_1_" class="st8" d="M464.9,442.2h123.3c3.1,0,5.6,2.5,5.6,5.6v3.8c0,3.1-2.5,5.6-5.6,5.6H464.9
				c-3.1,0-5.6-2.5-5.6-5.6v-3.8C459.3,444.7,461.8,442.2,464.9,442.2z"/>
			<path id="Caminho_127_1_" class="st1" d="M393.6,433.2h-14.3c-2.4,0-4.4,2-4.4,4.4v24.2c0,2.4,2,4.4,4.4,4.4h37.4
				c2.4,0,4.4-2,4.4-4.4c0,0,0,0,0,0v-19.3c0-2.4-2-4.4-4.4-4.4H398L393.6,433.2L393.6,433.2z"/>
			<path id="Retângulo_18_1_" class="st10" d="M820.5,608.8h32.1c3.1,0,5.6,2.5,5.6,5.6v3.8c0,3.1-2.5,5.6-5.6,5.6h-32.1
				c-3.1,0-5.6-2.5-5.6-5.6v-3.8C815,611.3,817.5,608.8,820.5,608.8z"/>
			<path id="Retângulo_19_1_" class="st8" d="M820.5,646.2h56.1c3.1,0,5.6,2.5,5.6,5.6v3.8c0,3.1-2.5,5.6-5.6,5.6h-56.1
				c-3.1,0-5.6-2.5-5.6-5.6v-3.8C815,648.7,817.5,646.2,820.5,646.2z"/>
			<path id="Retângulo_20_1_" class="st8" d="M820.5,627.5h123.3c3.1,0,5.6,2.5,5.6,5.6v3.8c0,3.1-2.5,5.6-5.6,5.6H820.5
				c-3.1,0-5.6-2.5-5.6-5.6v-3.8C815,630,817.5,627.5,820.5,627.5z"/>
			<path id="Caminho_128_1_" class="st1" d="M777.5,629l-8.5-0.4l-0.5-5.5c-0.1-1.2-1.2-2-2.3-1.9c0,0,0,0,0,0l-30.5,2.5
				c-1.2,0.1-2.1,1-2,2.2c0,0,0,0,0,0.1l2.2,24.3c0.1,1.2,1.2,2,2.4,1.9l1.5-0.1l-0.2,4.7c0,1.3,1,2.4,2.3,2.4h0l34,1.6
				c1.3,0.1,2.4-0.9,2.5-2.2l1.4-27.1C779.8,630.2,778.8,629.1,777.5,629z M740.9,629.6L740.9,629.6l-0.7,13.9l-1.8,2.5l-1.7-18.4
				v-0.1c0.1-0.5,0.5-0.9,1-1l26.9-2.2c0.5-0.1,1,0.3,1.1,0.8l0.3,3.2l-22.6-1.1C742,627.2,740.9,628.3,740.9,629.6z M775.3,654
				l-8.8-10.3l-3.8,3.5l-7.1-8.3l-12.7,13.5l1.1-20.5c0.1-0.6,0.6-0.9,1.2-0.9h0.1l30,1.5c0.6,0,1,0.5,1.1,1L775.3,654z"/>
			<path id="Caminho_129_1_" class="st1" d="M769.9,641c1.8,0,3.3-1.5,3.3-3.3c0-1.8-1.5-3.3-3.3-3.3c-1.8,0-3.3,1.5-3.3,3.3
				c0,0,0,0,0,0C766.6,639.5,768,641,769.9,641z"/>
			<path id="Retângulo_21_1_" class="st10" d="M823.5,423.5h32.1c3.1,0,5.6,2.5,5.6,5.6v3.8c0,3.1-2.5,5.6-5.6,5.6h-32.1
				c-3.1,0-5.6-2.5-5.6-5.6v-3.8C817.9,426,820.4,423.5,823.5,423.5z"/>
			<path id="Retângulo_22_1_" class="st8" d="M823.5,460.9h56.1c3.1,0,5.6,2.5,5.6,5.6v3.8c0,3.1-2.5,5.6-5.6,5.6h-56.1
				c-3.1,0-5.6-2.5-5.6-5.6v-3.8C817.9,463.4,820.4,460.9,823.5,460.9z"/>
			<path id="Retângulo_23_1_" class="st8" d="M823.5,442.2h123.3c3.1,0,5.6,2.5,5.6,5.6v3.8c0,3.1-2.5,5.6-5.6,5.6H823.5
				c-3.1,0-5.6-2.5-5.6-5.6v-3.8C817.9,444.7,820.4,442.2,823.5,442.2z"/>
			<circle id="Elipse_50_1_" class="st1" cx="777" cy="437.3" r="6.6"/>
			<path id="Caminho_130_1_" class="st1" d="M771.9,445.1l-13.1,8.7l-18.1-12.1v-4.4l18.1,12.1l10.4-6.9c-2-3-2.1-7-0.1-10h-29
				c-2.4,0-4.4,2-4.4,4.4v27.5c0,2.4,2,4.4,4.4,4.4h37.4c2.4,0,4.4-2,4.4-4.4v-19.1C778.9,447.1,774.9,447.1,771.9,445.1
				L771.9,445.1z"/>
			<ellipse id="Elipse_51_1_" class="st1" cx="459.3" cy="926.4" rx="32.8" ry="6.3"/>
			<ellipse id="Elipse_52_1_" class="st5" cx="458.8" cy="923.7" rx="3.8" ry="5"/>
			<ellipse id="Elipse_53_1_" class="st5" cx="458.8" cy="917.6" rx="3.8" ry="5"/>
			<ellipse id="Elipse_54_1_" class="st5" cx="458.8" cy="911.5" rx="3.8" ry="5"/>
			<ellipse id="Elipse_55_1_" class="st5" cx="458.8" cy="905.4" rx="3.8" ry="5"/>
			<ellipse id="Elipse_56_1_" class="st5" cx="458.8" cy="899.3" rx="3.8" ry="5"/>
			<ellipse id="Elipse_57_1_" class="st5" cx="458.8" cy="893.2" rx="3.8" ry="5"/>
			<ellipse id="Elipse_58_1_" class="st5" cx="458.8" cy="887.1" rx="3.8" ry="5"/>
			<path id="Caminho_131_1_" class="st1" d="M473.1,845.3c0.5-0.7,1-1.4,1.4-2.1l-10-1.6l10.8,0.1c2.1-4.6,2.2-9.8,0.4-14.5
				l-14.5,7.5l13.4-9.9c-5-8.7-16.2-11.7-24.9-6.7c-8.7,5-11.7,16.2-6.7,24.9c0.4,0.8,1,1.5,1.5,2.2c-0.8,1-1.5,2.2-2.1,3.3l13,6.8
				l-13.8-4.6c-2,5.8-0.9,12.3,2.9,17.1c-6.2,7.9-4.9,19.4,3.1,25.6c7.9,6.2,19.4,4.9,25.6-3.1c5.2-6.6,5.2-16,0-22.6
				C478.3,861.3,478.3,851.9,473.1,845.3L473.1,845.3z"/>
			<path id="Caminho_132_1_" class="st6" d="M440.4,856.6c0,4.1,1.4,8.1,3.9,11.3c-6.2,7.9-4.9,19.4,3.1,25.6
				c7.9,6.2,19.4,4.9,25.6-3.1c5.2-6.6,5.2-16,0-22.6C475.5,864.8,440.4,854.6,440.4,856.6z"/>
		</g>
	</g>
</g>
</svg>
