<svg id="Grupo_64" data-name="Grupo 64" xmlns="http://www.w3.org/2000/svg" width="1036.608" height="758.001" viewBox="0 0 1036.608 758.001">
  <circle id="Elipse_62" data-name="Elipse 62" cx="373" cy="373" r="373" transform="translate(205.606)" fill="#f2f2f2"/>
  <circle id="Elipse_63" data-name="Elipse 63" cx="97" cy="97" r="97" transform="translate(595.607 39.001)" fill="#e74c3c"/>
  <path id="Caminho_326" data-name="Caminho 326" d="M367.66,143.483l2.652,55.277c10.991,14.659,22.848,31.434,34.55,49.716l1.671-84.33.922.589c-13.536-9.67-27.3-17.068-40.716-21.764Z" transform="translate(-81.696 -70.999)" fill="#e74c3c"/>
  <path id="Caminho_327" data-name="Caminho 327" d="M368.379,196.191l-2.568-53.545c-15.072-5.14-29.695-6.845-43.062-4.461-.7.124-1.379.267-2.061.412C324.084,142.241,343.877,163.76,368.379,196.191Z" transform="translate(-81.696 -70.999)" fill="#e74c3c"/>
  <path id="Caminho_328" data-name="Caminho 328" d="M490.072,262.138l.89.849q-5.479-10.305-11.616-20.038l-24.924,98.072-.422-.372q2.7,6.454,5.141,12.819Z" transform="translate(-81.696 -70.999)" fill="#e74c3c"/>
  <path id="Caminho_329" data-name="Caminho 329" d="M452.1,206.382l.918.735a258.756,258.756,0,0,0-44.628-41.7l-1.7,85.937q16.335,25.778,29.249,50.782Z" transform="translate(-81.696 -70.999)" fill="#e74c3c"/>
  <path id="Caminho_330" data-name="Caminho 330" d="M271.3,233.212a216.049,216.049,0,0,0,8.537,42.7l148.632,15.33c-7.759-14.309-15.769-27.733-23.545-39.967L271.676,234.381Z" transform="translate(-81.696 -70.999)" fill="#e74c3c"/>
  <path id="Caminho_331" data-name="Caminho 331" d="M285.242,291.953l-.4-1.166,150.429,13.371q-2.726-5.332-5.513-10.523l-149.18-15.387-.392-1.168Q282.441,284.434,285.242,291.953Z" transform="translate(-81.696 -70.999)" fill="#e74c3c"/>
  <path id="Caminho_332" data-name="Caminho 332" d="M477.652,240.9l.9.8a309.007,309.007,0,0,0-24.667-33.563l-16.383,97.048q8.517,16.722,15.428,32.973Z" transform="translate(-81.696 -70.999)" fill="#e74c3c"/>
  <path id="Caminho_333" data-name="Caminho 333" d="M474.471,403.018c5.978,25.871,8.244,50.332,6.748,73.113,8.412-17.924,40.4-92.177,28.445-161.379Z" transform="translate(-81.696 -70.999)" fill="#e74c3c"/>
  <path id="Caminho_334" data-name="Caminho 334" d="M312.838,344.256a298.926,298.926,0,0,0,25.949,30.461l-.363-1.3,133.811,27.528a371.619,371.619,0,0,0-13.01-42.6Z" transform="translate(-81.696 -70.999)" fill="#e74c3c"/>
  <path id="Caminho_335" data-name="Caminho 335" d="M367.224,197.094c-26.518-35.082-47.442-57.255-47.743-57.572l.345-.739c-20.124,4.569-34.332,18.26-42.15,38.077Z" transform="translate(-81.696 -70.999)" fill="#e74c3c"/>
  <path id="Caminho_336" data-name="Caminho 336" d="M460.379,356.76c.494,1.32,1,2.642,1.474,3.956a369.207,369.207,0,0,1,11.7,38.435l34.859-87.429.851.854a146.378,146.378,0,0,0-11.129-35.229q-3.084-6.6-6.458-13.006Z" transform="translate(-81.696 -70.999)" fill="#e74c3c"/>
  <path id="Caminho_337" data-name="Caminho 337" d="M403.364,248.838c-11.582-18.067-23.3-34.64-34.17-49.126l-91.6-20.7-.311-1.156c-5.719,15.06-7.809,33.56-6.077,54.223Z" transform="translate(-81.696 -70.999)" fill="#e74c3c"/>
  <path id="Caminho_338" data-name="Caminho 338" d="M472.777,403.245,339.945,375.918c55.872,57.355,134.04,101.342,139.029,104.122C481.3,454.77,478.662,428.814,472.777,403.245Z" transform="translate(-81.696 -70.999)" fill="#e74c3c"/>
  <path id="Caminho_339" data-name="Caminho 339" d="M458.284,356l.03-.087a501.552,501.552,0,0,0-21.836-49.375l-150.8-13.4q3.84,10.169,8.681,20.557a179.707,179.707,0,0,0,16.7,28.132Z" transform="translate(-81.696 -70.999)" fill="#e74c3c"/>
  <path id="Caminho_340" data-name="Caminho 340" d="M650.107,329.67l-33.214,44.265c-.885,18.3-2.452,38.783-5.1,60.327l55.074-63.884.334,1.042c-4.258-16.081-10.137-30.556-17.477-42.732Z" transform="translate(-81.696 -70.999)" fill="#e74c3c"/>
  <path id="Caminho_341" data-name="Caminho 341" d="M617.042,370.724l32.174-42.878c-8.33-13.572-18.5-24.212-30.32-30.9-.615-.348-1.232-.674-1.85-1C617.338,300.92,618.856,330.118,617.042,370.724Z" transform="translate(-81.696 -70.999)" fill="#e74c3c"/>
  <path id="Caminho_342" data-name="Caminho 342" d="M668.707,499.133l.144,1.221q2.353-11.431,3.834-22.842l-81.749,59.637-.088-.555q-2.034,6.694-4.217,13.152Z" transform="translate(-81.696 -70.999)" fill="#e74c3c"/>
  <path id="Caminho_343" data-name="Caminho 343" d="M675.025,431.973l.238,1.151a258.749,258.749,0,0,0-7.775-60.582l-56.124,65.1q-3.861,30.273-9.862,57.767Z" transform="translate(-81.696 -70.999)" fill="#e74c3c"/>
  <path id="Caminho_344" data-name="Caminho 344" d="M518.659,337.317A216.051,216.051,0,0,0,498,375.65L602.7,482.257c3.15-15.969,5.543-31.417,7.358-45.8l-91.848-98Z" transform="translate(-81.696 -70.999)" fill="#e74c3c"/>
  <path id="Caminho_345" data-name="Caminho 345" d="M491.933,391.453l.436-1.154L599.7,496.544q1.3-5.845,2.466-11.621l-105.083-107,.443-1.15Q494.571,383.876,491.933,391.453Z" transform="translate(-81.696 -70.999)" fill="#e74c3c"/>
  <path id="Caminho_346" data-name="Caminho 346" d="M672.685,474.857l.188,1.191a309.014,309.014,0,0,0,2.409-41.583l-74.516,64.3Q596.66,517.072,591.618,534Z" transform="translate(-81.696 -70.999)" fill="#e74c3c"/>
  <path id="Caminho_347" data-name="Caminho 347" d="M566.836,597.686c-11.9,23.738-25.753,44.023-41.435,60.615,17.911-8.439,89.91-45.224,124.838-106.15Z" transform="translate(-81.696 -70.999)" fill="#e74c3c"/>
  <path id="Caminho_348" data-name="Caminho 348" d="M479.827,449.337a298.915,298.915,0,0,0,.558,40.011l.547-1.23,85.5,106.549a371.628,371.628,0,0,0,17.148-41.105Z" transform="translate(-81.696 -70.999)" fill="#e74c3c"/>
  <path id="Caminho_349" data-name="Caminho 349" d="M615.577,370.683c1.951-43.933-.022-74.357-.051-74.793l.737-.349c-18.413-9.316-38.089-7.834-56.75,2.443Z" transform="translate(-81.696 -70.999)" fill="#e74c3c"/>
  <path id="Caminho_350" data-name="Caminho 350" d="M585.486,553.071c-.461,1.331-.918,2.671-1.388,3.987a369.258,369.258,0,0,1-15.5,37.066l82.612-45.1.111,1.2a146.378,146.378,0,0,0,13.9-34.231q1.835-7.052,3.322-14.136Z" transform="translate(-81.696 -70.999)" fill="#e74c3c"/>
  <path id="Caminho_351" data-name="Caminho 351" d="M610.409,433.586c2.6-21.3,4.145-41.543,5.016-59.631l-57.349-74.368.5-1.088c-14.01,7.951-27.42,20.867-39.265,37.886Z" transform="translate(-81.696 -70.999)" fill="#e74c3c"/>
  <path id="Caminho_352" data-name="Caminho 352" d="M565.387,596.781,480.511,491.012c6.45,79.81,38.6,163.545,40.668,168.868C539.089,641.9,553.611,620.228,565.387,596.781Z" transform="translate(-81.696 -70.999)" fill="#e74c3c"/>
  <path id="Caminho_353" data-name="Caminho 353" d="M584.359,551.148l.079-.048a501.538,501.538,0,0,0,14.674-51.955L491.518,392.639q-3.528,10.282-6.426,21.369a179.712,179.712,0,0,0-5.081,32.319Z" transform="translate(-81.696 -70.999)" fill="#e74c3c"/>
  <path id="Caminho_354" data-name="Caminho 354" d="M318.935,388.767l19.608,51.75c14.984,10.544,31.445,22.832,48.225,36.6L362.29,396.4l1.059.275c-15.862-5.012-31.235-7.8-45.45-8.113Z" transform="translate(-81.696 -70.999)" fill="#e74c3c"/>
  <path id="Caminho_355" data-name="Caminho 355" d="M335.911,438.672l-18.993-50.129c-15.922-.23-30.357,2.669-42.332,9.067-.623.333-1.229.68-1.833,1.029C277.109,401.055,302.584,415.4,335.911,438.672Z" transform="translate(-81.696 -70.999)" fill="#e74c3c"/>
  <path id="Caminho_356" data-name="Caminho 356" d="M472.028,463.775l1.108.532q-8.4-8.107-17.241-15.467l6.61,100.974-.516-.223q4.565,5.3,8.852,10.6Z" transform="translate(-81.696 -70.999)" fill="#e74c3c"/>
  <path id="Caminho_357" data-name="Caminho 357" d="M418.684,422.486l1.1.415a258.753,258.753,0,0,0-55.332-25.864l24.943,82.255q23.5,19.467,43.514,39.254Z" transform="translate(-81.696 -70.999)" fill="#e74c3c"/>
  <path id="Caminho_358" data-name="Caminho 358" d="M255.027,503.888a216.049,216.049,0,0,0,21.318,37.971L422.436,510.5c-11.8-11.21-23.569-21.5-34.746-30.733L255.748,504.882Z" transform="translate(-81.696 -70.999)" fill="#e74c3c"/>
  <path id="Caminho_359" data-name="Caminho 359" d="M286.445,555.442l-.741-.986,147.2-33.781q-4.24-4.229-8.5-8.3L277.773,543.85l-.734-.99Q281.457,549.157,286.445,555.442Z" transform="translate(-81.696 -70.999)" fill="#e74c3c"/>
  <path id="Caminho_360" data-name="Caminho 360" d="M453.653,447.42l1.107.479A309.016,309.016,0,0,0,420.926,423.6l14.417,97.359q13.269,13.27,24.865,26.589Z" transform="translate(-81.696 -70.999)" fill="#e74c3c"/>
  <path id="Caminho_361" data-name="Caminho 361" d="M500.737,602.578c13.682,22.756,23.4,45.319,29.017,67.447,2.46-19.646,9.933-100.152-22.83-162.269Z" transform="translate(-81.696 -70.999)" fill="#e74c3c"/>
  <path id="Caminho_362" data-name="Caminho 362" d="M328.856,596.654A298.922,298.922,0,0,0,362.95,617.6l-.746-1.121L497.971,601.3a371.621,371.621,0,0,0-25.539-36.489Z" transform="translate(-81.696 -70.999)" fill="#e74c3c"/>
  <path id="Caminho_363" data-name="Caminho 363" d="M335.091,439.888c-36.063-25.167-62.816-39.787-63.2-40l.1-.809c-17.726,10.565-27.007,27.978-28.316,49.241Z" transform="translate(-81.696 -70.999)" fill="#e74c3c"/>
  <path id="Caminho_364" data-name="Caminho 364" d="M473.037,562.942c.878,1.1,1.765,2.205,2.624,3.307a369.206,369.206,0,0,1,23.01,32.935l6.128-93.923,1.074.549A146.38,146.38,0,0,0,484.4,475.746q-4.974-5.326-10.161-10.373Z" transform="translate(-81.696 -70.999)" fill="#e74c3c"/>
  <path id="Caminho_365" data-name="Caminho 365" d="M385.456,477.927c-16.6-13.6-32.871-25.74-47.681-36.159L244.26,450.4l-.653-1c-.784,16.09,2.946,34.331,10.98,53.447Z" transform="translate(-81.696 -70.999)" fill="#e74c3c"/>
  <path id="Caminho_366" data-name="Caminho 366" d="M499.2,603.318,364.423,618.387c70.864,37.276,158.8,54.947,164.4,56.049C523.23,649.685,512.7,625.815,499.2,603.318Z" transform="translate(-81.696 -70.999)" fill="#e74c3c"/>
  <path id="Caminho_367" data-name="Caminho 367" d="M470.809,562.864v-.092a501.558,501.558,0,0,0-36.028-40.207L287.225,556.428q6.8,8.484,14.61,16.867a179.707,179.707,0,0,0,24.578,21.593Z" transform="translate(-81.696 -70.999)" fill="#e74c3c"/>
  <path id="Caminho_368" data-name="Caminho 368" d="M1118.3,705c0,44.735-230.126,124-514,124s-514-79.265-514-124,230.126-38,514-38S1118.3,660.266,1118.3,705Z" transform="translate(-81.696 -70.999)" fill="#3f3d56"/>
  <path id="Caminho_369" data-name="Caminho 369" d="M1118.3,705c0,44.735-230.126,124-514,124s-514-79.265-514-124,230.126-38,514-38S1118.3,660.266,1118.3,705Z" transform="translate(-81.696 -70.999)" opacity="0.1"/>
  <ellipse id="Elipse_64" data-name="Elipse 64" cx="514" cy="81" rx="514" ry="81" transform="translate(8.608 553.001)" fill="#3f3d56"/>
  <path id="Caminho_370" data-name="Caminho 370" d="M693.417,620.338C693.417,669.076,625.483,654,542.3,654s-150.1,15.075-150.1-33.662S460.125,561,543.3,561,693.417,571.6,693.417,620.338Z" transform="translate(-81.696 -70.999)" opacity="0.1"/>
  <path id="Caminho_371" data-name="Caminho 371" d="M693.417,608.338C693.417,657.076,625.483,642,542.3,642s-150.1,15.075-150.1-33.662S460.125,549,543.3,549,693.417,559.6,693.417,608.338Z" transform="translate(-81.696 -70.999)" fill="#3f3d56"/>
  <path id="Caminho_372" data-name="Caminho 372" d="M425.834,474.232a21.87,21.87,0,0,1,5.987-3A152.653,152.653,0,0,1,474,462.047c12.543-.889,26.137.167,35.933,8.05a12.355,12.355,0,0,1,3.645,4.247c1.232,2.66.859,5.751.46,8.655a9.781,9.781,0,0,1-.839,3.258c-1.318,2.51-4.564,3.389-7.383,3.088s-5.464-1.494-8.245-2.047a36.855,36.855,0,0,0-5.208-.53l-17.44-.944c-10.845-.587-21.832-1.164-32.47,1.024a32.342,32.342,0,0,0-9.381,3.233c-2.43,1.364-4.066,3.322-6.32.8C422.794,486.457,420.6,478.321,425.834,474.232Z" transform="translate(-81.696 -70.999)" fill="#2f2e41"/>
  <path id="Caminho_373" data-name="Caminho 373" d="M452.859,481.944s23.457-10.515,32.354,1.618-4.854,7.28-4.854,7.28L464.992,495.7l-16.986-3.235Z" transform="translate(-81.696 -70.999)" fill="#f2f2f2"/>
  <path id="Caminho_374" data-name="Caminho 374" d="M454.072,474.26s3.235,15.368.809,19.413,13.751,9.706,13.751,9.706L484,496.908s-4.044-25.075,0-29.928Z" transform="translate(-81.696 -70.999)" fill="#ffb9b9"/>
  <path id="Caminho_375" data-name="Caminho 375" d="M454.072,474.26s3.235,15.368.809,19.413,13.751,9.706,13.751,9.706L484,496.908s-4.044-25.075,0-29.928Z" transform="translate(-81.696 -70.999)" opacity="0.1"/>
  <path id="Caminho_376" data-name="Caminho 376" d="M438.915,659.055a88.482,88.482,0,0,1,5.345,14.008,1.14,1.14,0,0,0,1.416.942l14.387-.016c1.776,0,4.158-.572,4.139-2.348-.013-1.247-1.288-2.025-2.237-2.835-2.634-2.247-3.319-5.953-4.41-9.239A31.343,31.343,0,0,0,445.893,643.9a6.826,6.826,0,0,0-2.493-1.232,6.95,6.95,0,0,0-2.733.148c-2.526.51-11.957,2.253-10.175,5.927.767,1.582,3.61,3.228,4.8,4.706a33.8,33.8,0,0,1,3.622,5.6Z" transform="translate(-81.696 -70.999)" fill="#575a89"/>
  <path id="Caminho_377" data-name="Caminho 377" d="M488.946,642.368a32.686,32.686,0,0,1-1.691,3.109c-2.084,3.438-4.544,6.644-6.485,10.165a16.778,16.778,0,0,0-2.364,7.074,7.857,7.857,0,0,0,2.746,6.685c2.089,1.585,4.952,1.658,7.548,1.289s5.176-1.113,7.791-.917c-.881-4.988,3.325-9.378,4.378-14.333.3-1.392.339-2.835.736-4.2a20.592,20.592,0,0,1,1.628-3.6,46.556,46.556,0,0,0,4.394-12.959c.1-.547-12.789-.637-14-.375C489.854,635.12,490.406,639.24,488.946,642.368Z" transform="translate(-81.696 -70.999)" fill="#575a89"/>
  <path id="Caminho_378" data-name="Caminho 378" d="M389.609,564c-3.679,5.758-2.832,13.388-.247,19.713s6.7,11.917,9.512,18.143c1.795,3.969,3.053,8.178,5.074,12.037,2.5,4.779,6.156,8.991,7.835,14.117,1.07,3.268,1.316,6.849,3.05,9.818a30.092,30.092,0,0,0,3.572,4.432,40.957,40.957,0,0,1,8.234,14.708c1.585-4.721,6.33-7.816,11.2-8.837s9.924-.327,14.855.369c-2.751-4.261-5.528-8.576-7.167-13.375-1.586-4.642-2.054-9.58-3.122-14.367-2.19-9.817-6.87-18.872-11.5-27.8l23.81-1.889a92.827,92.827,0,0,1,11.7-.434c6.146.29,12.166,1.8,18.279,2.493s12.58.514,18.028-2.345a86.391,86.391,0,0,0-15.5,51.019,19.753,19.753,0,0,1,29.9,7.057c9.331-12.751,8.222-30.5,15.616-44.467,1.52-2.871,3.384-5.546,5.025-8.35A123.07,123.07,0,0,0,545.7,578.5c2.068-5.29,4.152-11.176,2.168-16.5a17.226,17.226,0,0,0-3.535-5.436c-4.266-4.7-10.2-8.183-16.552-8.327-9.745-.222-17.8,7-26.344,11.685a60.624,60.624,0,0,1-33.269,6.9c-11.742-.831-22.957-4.675-34.144-8.06a162.449,162.449,0,0,0-17.04-4.4c-4.8-.9-9.367.1-14.094,1.324C397.745,557.025,392.571,559.366,389.609,564Z" transform="translate(-81.696 -70.999)" fill="#2f2e41"/>
  <path id="Caminho_379" data-name="Caminho 379" d="M491.28,458.892a24.286,24.286,0,0,1-24.266,24.266,23.686,23.686,0,0,1-4.311-.388,24.265,24.265,0,1,1,28.577-23.878Z" transform="translate(-81.696 -70.999)" fill="#ffb9b9"/>
  <path id="Caminho_380" data-name="Caminho 380" d="M452.859,481.944s4.449,2.022,6.066,3.64,6.471,10.515,14.56,4.853,8.9-8.9,11.324-8.9,5.662,4.853,5.662,4.853l22.244,66.731a93.161,93.161,0,0,1-20.626,17.391c-12.942,8.089-28.31,12.133-35.59,8.9s-21.03-5.662-23.457-12.133-6.471-25.884-6.471-25.884l11.324-49.341Z" transform="translate(-81.696 -70.999)" fill="#f2f2f2"/>
  <path id="Caminho_381" data-name="Caminho 381" d="M449.736,549.435c1.763-3.809,2.02-8.121,2.169-12.315a74.66,74.66,0,0,0-.329-12.458c-.717-5.411-2.479-10.623-3.591-15.966a67.5,67.5,0,0,1-1.415-14.25c.016-2.184.174-4.484,1.365-6.315.83-1.278,2.129-2.267,2.648-3.7,1.017-2.809-1.5-5.751-4.251-6.908a16.727,16.727,0,0,0-10.471-.421,49.818,49.818,0,0,0-9.849,4.029,22.548,22.548,0,0,0-6.435,4.16c-2.511,2.6-3.615,6.217-4.506,9.718-.714,2.8-1.348,5.725-.8,8.565.882,4.613,4.642,8.082,6.646,12.328,2.328,4.931,2.171,10.678,1.245,16.052s-2.569,10.628-3.076,16.058.271,11.266,3.673,15.528c1.386,1.737,5.147,5.853,7.684,5.387,1.994-.366,4.884-4.755,6.49-6.146C441.566,558.764,447.071,555.189,449.736,549.435Z" transform="translate(-81.696 -70.999)" fill="#2f2e41"/>
  <path id="Caminho_382" data-name="Caminho 382" d="M492.114,479.307c.071,4.511-1.918,8.8-4.256,12.658s-5.086,7.508-6.809,11.677a26.764,26.764,0,0,0-1.249,16.466,53.132,53.132,0,0,0,1.785,5.51l4.432,12.156a21.1,21.1,0,0,0,2.57,5.4,17.425,17.425,0,0,0,3.493,3.36,32.6,32.6,0,0,0,11.4,5.945,19.272,19.272,0,0,0,12.672-.723,183.362,183.362,0,0,1,7.871-48.6c.886-2.911,1.854-5.977,1.171-8.942-.766-3.322-3.434-5.816-5.97-8.093-7.757-6.966-16.287-14.282-26.669-15.221C486.539,470.352,492.063,476.045,492.114,479.307Z" transform="translate(-81.696 -70.999)" fill="#2f2e41"/>
  <path id="Caminho_383" data-name="Caminho 383" d="M439.033,573.349c.615,1.2,1,2.516,1.606,3.723a20.8,20.8,0,0,0,3.3,4.438c5.408,6,12.019,11.971,20.086,12.333a5.508,5.508,0,0,0,2.367-.3,4.693,4.693,0,0,0,2.52-3.6c.572-3.132-.811-6.258-2.2-9.126-3-6.215-6.377-12.588-11.995-16.6a22.506,22.506,0,0,0-19.417-2.921c-2.926.9-7.779,2.476-3.9,5.146C434.341,568.471,437.329,570.013,439.033,573.349Z" transform="translate(-81.696 -70.999)" fill="#ffb9b9"/>
  <path id="Caminho_384" data-name="Caminho 384" d="M473.906,494.224a18.078,18.078,0,0,0-3.8-6.12,14.083,14.083,0,0,0-5.8-2.938,31.709,31.709,0,0,0-8.506-1.219c-3.426-.021-7.4.9-8.852,4-1.155,2.463-.26,5.379.9,7.838a7.685,7.685,0,0,0,2.4,3.239c1.477,1,3.388.966,5.139,1.3a23.7,23.7,0,0,1,7.6,3.442l6,3.627,10.306,6.229c-.272-.164-.175-7.231-.492-8.39C477.783,501.5,475.488,497.758,473.906,494.224Z" transform="translate(-81.696 -70.999)" fill="#ffb9b9"/>
  <path id="Caminho_385" data-name="Caminho 385" d="M443.885,671.231c-2.411,3.277-1.928,7.961-4.064,11.424-1.852,3-5.341,4.575-7.657,7.235a19.4,19.4,0,0,0-1.969,2.832c-2.148,3.6-3.895,8.211-1.779,11.829,1.7,2.91,5.28,4.048,8.561,4.823,4.147.98,8.456,1.764,12.651,1.015s8.3-3.318,9.791-7.308a28.248,28.248,0,0,1,1.047-2.954c2.274-4.476,9.406-4.525,11.733-8.974,1.629-3.113.132-6.877-1.365-10.056l-4.57-9.709c-1.517-3.222-7.665-1.369-10.871-2.141C451.214,668.24,446.893,667.13,443.885,671.231Z" transform="translate(-81.696 -70.999)" fill="#2f2e41"/>
  <path id="Caminho_386" data-name="Caminho 386" d="M479.236,662.89a13,13,0,0,0-4.135,5.665c-2.262,5.218-3.039,10.939-3.793,16.576a20.075,20.075,0,0,0-.131,6.8c.975,4.6,5.146,7.994,9.637,9.4s9.306,1.191,14.007.96a10.029,10.029,0,0,0,4.4-.894c2.362-1.3,3.285-4.364,2.88-7.031s-1.862-5.04-3.288-7.329-2.884-4.661-3.293-7.327c-.687-4.485,1.252-11.069-1.5-15.126S482.921,660.307,479.236,662.89Z" transform="translate(-81.696 -70.999)" fill="#2f2e41"/>
  <path id="Caminho_387" data-name="Caminho 387" d="M490.669,446.246A6.159,6.159,0,0,0,488,442.759a14.136,14.136,0,0,0-.564-4.6c-1.47-4.344-4.951-4.1-8.236-6.016-1.425-.833-1.337-1.57-2.079-2.939a10.906,10.906,0,0,0-4.2-4.288c-2.107-1.343-4.332-2.725-6.825-2.9-5.239-.357-9.256,4.571-14.263,6.152-2.207.7-4.579.726-6.8,1.385s-4.432,2.232-4.763,4.523c-.153,1.058.117,2.143-.038,3.2-.308,2.1-2.151,3.573-3.386,5.3-2.729,3.822-2.417,9.222-.234,13.38a18.808,18.808,0,0,0,1.574,2.463,15.149,15.149,0,0,0,1.662,5.626c2.183,4.159,5.938,7.266,9.862,9.848a23.276,23.276,0,0,1-.582-4.2,2.9,2.9,0,0,1,.179-1.391c.437-.913,1.591-1.156,2.472-1.656,1.823-1.036,2.538-3.329,2.591-5.425s-.392-4.2-.172-6.282a3.432,3.432,0,0,1,1.175-2.525,4.059,4.059,0,0,1,2.215-.528c3.736-.152,7.639-.221,10.934-1.988a16.2,16.2,0,0,1,3.4-1.721c2.8-.73,5.662,1.232,7.276,3.635s2.418,5.261,3.907,7.742,4.061,4.694,6.94,4.4a1.152,1.152,0,0,0,.86-.382,1.289,1.289,0,0,0,.158-.733l.161-11a16.633,16.633,0,0,0-.555-5.593Z" transform="translate(-81.696 -70.999)" fill="#2f2e41"/>
  <path id="Caminho_388" data-name="Caminho 388" d="M413.875,503.809c-2.315,3.416-4.985,6.7-6.257,10.625-.748,2.307-.98,4.746-1.522,7.11-1.8,7.874-7.015,14.868-7.539,22.93a10.9,10.9,0,0,0,.766,5.265c1.495,3.252,5.072,4.965,8.485,6.043s7.077,1.855,9.8,4.176a30.036,30.036,0,0,1,3.714,4.306,35.976,35.976,0,0,0,17.184,11.758c-.534-3.68-.785-8.117,2.157-10.392,1.593-1.231,3.721-1.451,5.726-1.624l9.477-.819A121.789,121.789,0,0,0,435.093,547c-2.621-1.619-5.473-3.327-6.669-6.165a14.891,14.891,0,0,1-.756-5.688,140.158,140.158,0,0,0-1.785-21.041c-.78-4.832-1.813-9.62-2.995-14.37-.332-1.333-2.292-7.314-4.705-5.915-.568.33-1.1,4.124-1.432,4.911a29.787,29.787,0,0,1-2.875,5.075Z" transform="translate(-81.696 -70.999)" fill="#2f2e41"/>
  <path id="Caminho_389" data-name="Caminho 389" d="M523.032,490.9l3.87,8.049a19.341,19.341,0,0,1,2.44,10.884l.23,24.145a35.161,35.161,0,0,1-.794,9.615,7.7,7.7,0,0,1-1.335,2.871,8.974,8.974,0,0,1-2.289,1.844c-7.325,4.577-16.823,7.178-24.562,3.343a33.98,33.98,0,0,1-5.036-3.287c-3.084-2.284-6.214-4.613-8.521-7.68-2.415-3.21-3.8-7.053-5.423-10.726a82.429,82.429,0,0,0-11.206-18.379,4.846,4.846,0,0,1-1.388-2.751c-.048-2.116,2.463-3.158,4.421-3.963,3.345-1.376,6.5-4.03,7.059-7.6,7.113,9.327,14.961,19.182,26.185,22.59a1.158,1.158,0,0,0,1.781-.99c.637-2.666.862-5.411,1.328-8.111a46.2,46.2,0,0,1,4.874-14.057C515.995,494.232,520.3,485.22,523.032,490.9Z" transform="translate(-81.696 -70.999)" fill="#2f2e41"/>
  <path id="Caminho_390" data-name="Caminho 390" d="M426.99,514.178a37.123,37.123,0,0,1-3.547,16.543,13.671,13.671,0,0,0-1.389,3.644c-.425,2.719,1.123,5.352,2.892,7.461a30.678,30.678,0,0,0,13.117,9.125" transform="translate(-81.696 -70.999)" opacity="0.1"/>
  <path id="Caminho_391" data-name="Caminho 391" d="M511.033,509.362c-.57,1.534-.052,3.229.387,4.805a48.416,48.416,0,0,1,1.765,14.049.511.511,0,0,1-.6.613c-1.867.114-4,.126-5.271-1.25" transform="translate(-81.696 -70.999)" opacity="0.1"/>
  <ellipse id="Elipse_65" data-name="Elipse 65" cx="126" cy="27" rx="126" ry="27" transform="translate(620.608 613.001)" opacity="0.1"/>
  <path id="Caminho_392" data-name="Caminho 392" d="M809.608,399l-9,9,9,9,9-18Z" fill="#a0616a"/>
  <path id="Caminho_393" data-name="Caminho 393" d="M893.33,391.96c2.526,1.034,3.727,3.859,4.679,6.417l11.675,31.371,2.272,6.106c1.114,2.995,2.23,5.991,3.172,9.044q.894,2.9,1.579,5.853a15.4,15.4,0,0,1,.538,5.189,14.422,14.422,0,0,1-2.063,5.406,48.394,48.394,0,0,1-16.816,17.247,15.7,15.7,0,0,0-9.126-11.936l6.037-3.32a10.918,10.918,0,0,0,3.383-2.478,7.431,7.431,0,0,0,1.292-5.663,24.335,24.335,0,0,0-1.792-5.682,155.086,155.086,0,0,1-5.265-15.454c-.877-3.1-1.682-6.285-3.42-9-1.576-2.461-3.859-4.428-5.292-6.976-2.183-3.882-2.127-8.662-1.163-13.01.814-3.671,2.179-7.2,3.327-10.778C887.249,391.492,890.626,390.853,893.33,391.96Z" transform="translate(-81.696 -70.999)" fill="#d0cde1"/>
  <path id="Caminho_394" data-name="Caminho 394" d="M837.668,308.144c-4.642,1.568-8.848,5.235-9.8,10.041-.441,2.228-.17,4.544-.541,6.785-.86,5.2-4.939,9.166-8.7,12.853s-7.648,7.97-7.923,13.231c-.3,5.76,3.877,11.157,3.154,16.88-.84,6.649-7.862,10.957-9.6,17.43-1.159,4.322.261,8.978,2.6,12.794,4.453,7.272,12.065,12.209,20.171,14.856s16.74,3.2,25.266,3.293c10.382.109,21.655-.783,29.456-7.635a23.6,23.6,0,0,0,7.834-15.362c.741-7.937-2.572-16.139-.287-23.776,1.438-4.807,5.045-9.2,4.506-14.184-.526-4.877-4.786-8.334-7.708-12.274-2.728-3.679-4.384-8.023-6.007-12.306l-5.552-14.655c-1.091-2.881-2.29-5.911-4.722-7.8-4.553-3.54-11.875-2.844-17.2-2.114C847.677,306.874,842.418,306.54,837.668,308.144Z" transform="translate(-81.696 -70.999)" fill="#2f2e41"/>
  <path id="Caminho_395" data-name="Caminho 395" d="M841.963,356.439s.543,16.3-1.087,17.933,6.521,12.5,6.521,12.5l14.672-.543,7.608-5.978-6.521-8.695s-2.717-14.129-.543-17.389S841.963,356.439,841.963,356.439Z" transform="translate(-81.696 -70.999)" fill="#a0616a"/>
  <path id="Caminho_396" data-name="Caminho 396" d="M841.963,356.439s.543,16.3-1.087,17.933,6.521,12.5,6.521,12.5l14.672-.543,7.608-5.978-6.521-8.695s-2.717-14.129-.543-17.389S841.963,356.439,841.963,356.439Z" transform="translate(-81.696 -70.999)" opacity="0.1"/>
  <path id="Caminho_397" data-name="Caminho 397" d="M726.3,411.24l9.238,20.65,7.065-8.7-14.129-18.476Z" fill="#a0616a"/>
  <path id="Caminho_398" data-name="Caminho 398" d="M701.578,618.009l-3.8,21.194-6.521,9.238,3.8,2.173,6.521-1.087,7.608-2.717,3.26-12.5,5.978-16.3Z" fill="#a0616a"/>
  <path id="Caminho_399" data-name="Caminho 399" d="M771.135,604.967,768.961,635.4l5.434,4.347,8.7-7.608v-22.28Z" fill="#a0616a"/>
  <circle id="Elipse_66" data-name="Elipse 66" cx="19.563" cy="19.563" r="19.563" transform="translate(749.67 252.563)" fill="#a0616a"/>
  <path id="Caminho_400" data-name="Caminho 400" d="M866.025,369.438a4.528,4.528,0,0,0-3.769-.072,30.6,30.6,0,0,0-3.45,1.8,15.98,15.98,0,0,1-9.287,1.689,3.194,3.194,0,0,1-1.085-.279,5.222,5.222,0,0,1-.995-.8,5.757,5.757,0,0,0-7.971.687c-.575.716-.968,1.571-1.595,2.241-1.624,1.737-4.3,1.807-6.681,1.8a61.952,61.952,0,0,0-14.679,1.345,26.885,26.885,0,0,0-12.89,6.83,9.817,9.817,0,0,0-2.29,3.265c-.656,1.691-.569,3.59-1.159,5.305-.656,1.91-2.11,3.477-2.7,5.409-.443,1.455-.381,3.075-1.123,4.4,3.176,2.749,5.866,6.414,9.042,9.163,2.1,1.82,4.3,3.789,5.094,6.455a21.132,21.132,0,0,1,.47,5.006c.393,8.038,4.753,15.33,9.628,21.733a24.5,24.5,0,0,0,4.751,5.048,20.621,20.621,0,0,0,8.2,3.293c5.552,1.136,11.266,1.13,16.932,1.073,5.856-.058,11.815-.182,17.381-2a15.453,15.453,0,0,0,7.346-4.562c2.29-2.812,3.183-6.88,6.307-8.722a11.464,11.464,0,0,0,2.136-1.276,5.541,5.541,0,0,0,1.309-2.443,37.838,37.838,0,0,0,1.788-10.547,30.687,30.687,0,0,1,.435-6.422,21.838,21.838,0,0,1,2.34-5.314l6.473-11.74c.526-.954.39-2.358.437-3.447a8.5,8.5,0,0,0-1.392-4.408,37.6,37.6,0,0,0-18.7-16.373,7.708,7.708,0,0,1-1.767-.866,7.27,7.27,0,0,1-1.617-1.93C871.225,372.192,869.127,369.276,866.025,369.438Z" transform="translate(-81.696 -70.999)" fill="#d0cde1"/>
  <path id="Caminho_401" data-name="Caminho 401" d="M785.349,433.374a46.583,46.583,0,0,0-2.8,9.641,23.422,23.422,0,0,0,2.117,13.364c3.488,7.181,10.356,12.051,15.2,18.394,4.5,5.893,7.186,12.957,11.086,19.267-.68-1.606.146-3.465,1.259-4.808s2.536-2.457,3.352-4a11.656,11.656,0,0,0,1.033-3.783c.582-3.912.9-8.163-1.1-11.579-1.5-2.571-4.095-4.279-6.148-6.435a19.182,19.182,0,0,1-4.856-16.6c.4-2.034,1.122-3.986,1.667-5.985a68.463,68.463,0,0,0,1.527-8.16l2.447-16.808c.651-4.47,1.2-9.418-1.33-13.159a5.512,5.512,0,0,0-1.986-1.879,7.135,7.135,0,0,0-2.114-.6c-2.663-.435-6.271-1.6-7.571,1.252-1.569,3.444-2.662,7.2-3.976,10.75Z" transform="translate(-81.696 -70.999)" fill="#d0cde1"/>
  <path id="Caminho_402" data-name="Caminho 402" d="M878.614,442.57s-32.3,6.249-39.912,6.249H825.117s-4.891,8.695-4.891,17.389-32.062,130.419-32.062,130.419-30.431,99.988,3.26,100.532,54.885,2.174,55.428-9.238,3.8-158.677,3.8-158.677l5.072,75.723a187.985,187.985,0,0,1-4.319,55.905c-2.433,10.267-2.055,21.524,10.115,23.788,23.367,4.347,52.711.543,52.711-7.608s-15.216-189.108-15.216-189.108-7.608-26.627-11.955-28.8S878.614,442.57,878.614,442.57Z" transform="translate(-81.696 -70.999)" fill="#2f2e41"/>
  <path id="Caminho_403" data-name="Caminho 403" d="M777.3,718.353l11.955-4.347,8.151-20.65,8.695-1.087s-4.891,10.325-7.608,11.955-7.064,15.216-7.064,15.216,2.174,5.434-8.151,7.608-17.933,3.8-17.933,3.8-1.087-2.174,3.8-7.608,10.6-14.583,10.6-14.583Z" transform="translate(-81.696 -70.999)" fill="#2f2e41"/>
  <path id="Caminho_404" data-name="Caminho 404" d="M850.657,693.356l-2.174,16.3s5.978,8.695,7.608,8.695,10.325-7.608,10.325-7.608-.543-8.151,0-10.325,1.63-12.5,0-13.042-1.63,12.111-1.63,12.111l-7.064,7.452-6.811-4.084Z" transform="translate(-81.696 -70.999)" fill="#2f2e41"/>
  <ellipse id="Elipse_67" data-name="Elipse 67" cx="21.193" cy="11.412" rx="21.193" ry="11.412" transform="translate(749.67 249.302)" fill="#2f2e41"/>
  <path id="Caminho_405" data-name="Caminho 405" d="M81.7,555.659c0,64.016,40.16,115.817,89.791,115.817" transform="translate(-81.696 -70.999)" fill="#3f3d56"/>
  <path id="Caminho_406" data-name="Caminho 406" d="M171.487,671.477c0-64.735,44.817-117.118,100.2-117.118" transform="translate(-81.696 -70.999)" fill="#e74c3c"/>
  <path id="Caminho_407" data-name="Caminho 407" d="M114.229,561.463c0,60.808,25.61,110.014,57.258,110.014" transform="translate(-81.696 -70.999)" fill="#e74c3c"/>
  <path id="Caminho_408" data-name="Caminho 408" d="M171.487,671.477c0-82.717,51.8-149.651,115.817-149.651" transform="translate(-81.696 -70.999)" fill="#3f3d56"/>
  <path id="Caminho_409" data-name="Caminho 409" d="M152.6,672.293s12.734-.392,16.572-3.125,19.588-6,20.54-1.613,19.137,21.8,4.76,21.914-33.4-2.239-37.235-4.573S152.6,672.293,152.6,672.293Z" transform="translate(-81.696 -70.999)" fill="#a8a8a8"/>
  <path id="Caminho_410" data-name="Caminho 410" d="M194.725,687.943c-14.376.116-33.4-2.239-37.235-4.573-2.917-1.777-4.079-8.153-4.468-11.094-.269.012-.425.017-.425.017s.807,10.27,4.637,12.6,22.858,4.688,37.235,4.573c4.15-.033,5.583-1.51,5.5-3.7C199.4,687.093,197.814,687.918,194.725,687.943Z" transform="translate(-81.696 -70.999)" opacity="0.2"/>
</svg>
