<?xml version="1.0" encoding="utf-8"?>
<!-- Generator: Adobe Illustrator 22.0.0, SVG Export Plug-In . SVG Version: 6.00 Build 0)  -->
<svg version="1.1" id="Layer_1" xmlns="http://www.w3.org/2000/svg" xmlns:xlink="http://www.w3.org/1999/xlink" x="0px" y="0px"
	 viewBox="0 0 1200 1000" style="enable-background:new 0 0 1200 1000;" xml:space="preserve">
<style type="text/css">
	.st0{fill:#ECF0F1;}
	.st1{fill:#E74C3C;}
	.st2{fill:#2980B9;}
	.st3{fill:#2E4F66;}
	.st4{opacity:0.2;}
	.st5{fill:#3F3D56;}
	.st6{opacity:0.1;enable-background:new    ;}
	.st7{opacity:0.1;fill:#E74C3C;enable-background:new    ;}
	.st8{opacity:0.3;fill:#E74C3C;enable-background:new    ;}
	.st9{fill:#444053;}
	.st10{opacity:0.7;fill:#3F3D56;enable-background:new    ;}
	.st11{fill:#F5F5FB;}
	.st12{fill:#F7F7FD;}
	.st13{opacity:0.1;fill:#2E4F66;enable-background:new    ;}
	.st14{fill:none;stroke:#565987;stroke-miterlimit:10;}
	.st15{fill:#FFD037;}
	.st16{fill:#A8A8A8;}
	.st17{opacity:0.2;enable-background:new    ;}
	.st18{opacity:0.1;}
	.st19{fill:url(#Caminho_43_2_);}
	.st20{fill:#DB8B8B;}
	.st21{fill:#C17174;}
	.st22{fill:#474463;}
	.st23{fill:#FF748E;}
	.st24{opacity:5.000000e-02;enable-background:new    ;}
	.st25{fill:#464353;}
	.st26{fill:#FC6681;}
	.st27{opacity:0.7;fill:#3ACC6C;enable-background:new    ;}
</style>
<g>
	<g id="Grupo_41_1_" transform="translate(-681.764 229.893)">
		<path class="st0" d="M1655.8,539.1c-69.9,66.8-154.4,122.1-241.6,164.5c-30.7,14.9-61.8,28.2-92.6,39.9
			c-187.1,70.5-309.9-11.6-380.4-99.4c-27.7-34.4-47.3-69.8-59.6-97.1c-1.4-3-2.7-6.1-3.9-9.2c-39.2-95.4-30.2-212.7,21.3-335
			c53.2-126.3,187-269.3,312.2-334.5c125.2-65.2,201.6-108.8,322.5-95.6c121,13.2,268.3,58.7,295.2,357.3
			C1843.5,292.4,1768.9,430.9,1655.8,539.1z"/>
		<g id="Grupo_4_1_" transform="translate(890.478 224)">
			<path id="Caminho_85_1_" class="st1" d="M-33.5-143.8C38.6-185,162.3-152,263.2-49s158.7,162.8,162.8,257.6
				S353.9,369.4,263.3,388s-286.5,10.3-358.6-90.7s-72.1-251.5-47.4-309.2S-105.7-102.6-33.5-143.8z"/>
			<path class="st0" d="M765.3,315.1C695.5,381.9,611,437.2,523.7,479.6c-10.9,1.1-22,2-33.1,2.6c-40,2.1-80.4,0.4-120.1-2.5
				c-111-8.1-219.9-26-311.3-56.7c-2.8-1-5.7-1.9-8.5-2.9c-36.8-12.9-70.5-28.8-85.8-49c-14.6-19.3-8-43.2,22.2-57.3
				c3.8-1.8,8.1-3.4,12.7-4.9c16.9-5.3,37.1-7.7,56.9-10c29.1-3.3,58.7-6.6,85-13.4c27.2-7,59.3-20.5,54-35.9
				c-5.8-16.6-10.4-31.1,17.7-44.6c28.1-13.5,72.3-16.3,112.5-15.2c126.3,3.4,240.2,36.2,338.8,73.3c35.7,13.4,70.8,27.9,94,46.5
				C761.1,311.3,763.3,313.2,765.3,315.1z"/>
			<path id="Caminho_5_1_" class="st6" d="M377.3-222L373.6-4.6c0,0,135.7,0,251.1,37.5l2.3-219.7C626.9-186.8,441.8-231,377.3-222z
				"/>
			<path id="Caminho_6_1_" class="st11" d="M375.3-224.9L371.6-7.5c0,0,135.7,0,251.1,37.5l2.3-219.7
				C625-189.7,439.8-233.9,375.3-224.9z"/>
			<path id="Caminho_7_1_" class="st6" d="M319.5-222.2l3.7,217.4c0,0-135.7,0-251.1,37.5l-2.3-219.6
				C69.9-186.9,255.1-231.1,319.5-222.2z"/>
			<path id="Caminho_8_1_" class="st11" d="M321.5-225.1l3.7,217.4c0,0-135.7,0-251.1,37.5l-2.3-219.6
				C71.9-189.8,257-234.1,321.5-225.1z"/>
			<path id="Caminho_9_1_" class="st6" d="M659.7-155.8V59.4c0,0,44.3-5.2,137.2,109.4l8.3-215.1
				C805.1-46.3,708.4-150.5,659.7-155.8z"/>
			<path id="Caminho_10_1_" class="st11" d="M657.7-157.8V57.4c0,0,44.3-5.2,137.2,109.4l8.3-215.1
				C803.2-48.3,706.4-152.5,657.7-157.8z"/>
			<path id="Caminho_11_1_" class="st6" d="M39.6-149.4V65.7c0,0-44.3-5.2-137.2,109.4l-8.2-215.1C-105.9-39.9-9.2-144.1,39.6-149.4
				z"/>
			<path id="Caminho_12_1_" class="st11" d="M41.5-152.4V62.8c0,0-44.3-5.2-137.2,109.4l-8.2-215.1
				C-103.9-42.9-7.2-147.1,41.5-152.4z"/>
			<path id="Caminho_13_1_" class="st12" d="M539.3,210.4c0,7.3-46.5,49.7-152.5,49.7s-163.3-40.9-163.3-48.2s59.3,10.8,165.3,10.8
				S539.3,203.1,539.3,210.4z"/>
			<ellipse id="Elipse_1_1_" class="st13" cx="193.1" cy="107.9" rx="11.3" ry="1.5"/>
			<ellipse id="Elipse_2_1_" class="st13" cx="149.9" cy="112.3" rx="11.3" ry="1.5"/>
			<ellipse id="Elipse_3_1_" class="st13" cx="99.1" cy="106.4" rx="11.3" ry="1.5"/>
			<ellipse id="Elipse_4_1_" class="st13" cx="167.2" cy="124.8" rx="8" ry="1.1"/>
			<ellipse id="Elipse_5_1_" class="st13" cx="122.4" cy="123.7" rx="8" ry="1.1"/>
			<path id="Caminho_14_1_" class="st3" d="M149.7,112c0,0,15.8-51.8-2.5-72.6c-13.7-15.5-29.2-13.7-36.1-11.7
				c-3.6,1-6.7,3.5-8.3,6.9c-2.4,5.2-2,13.8,15.2,23.7c28.7,16.6,30.5,39.4,30.5,39.4L149.7,112z"/>
			<path id="Caminho_15_1_" class="st14" d="M113.5,35c0,0,46.6,14.6,36.1,77"/>
			<path id="Caminho_16_1_" class="st14" d="M140.7,40.2c0,0-6.4,4.3-4.4,10.8"/>
			<path id="Caminho_17_1_" class="st14" d="M118.2,44.1c0,0,3.9-4,8.7-1.8"/>
			<path id="Caminho_18_1_" class="st14" d="M136.7,64.1c0,0,6.9-3.5,8.7,0.9"/>
			<path id="Caminho_19_1_" class="st14" d="M153.6,71.4c0,0-5.2-0.4-5.3,2.1"/>
			<path id="Caminho_20_1_" class="st3" d="M150.3,112.4c0,0-18.5-37.7-23.6-36.8c-2.4,0.4-3.5,2.8-4,5.2c-0.6,3.1-0.3,6.3,1,9.2
				C126.3,95.9,133.4,107.4,150.3,112.4z"/>
			<path id="Caminho_21_1_" class="st14" d="M126.8,82.7c0,0,19.4,28.2,23.2,29.4"/>
			<line id="Linha_1_1_" class="st14" x1="125.1" y1="87.1" x2="129.6" y2="87.1"/>
			<line id="Linha_2_1_" class="st14" x1="130.5" y1="97.4" x2="137.6" y2="97.7"/>
			<line id="Linha_3_1_" class="st14" x1="134.8" y1="89.2" x2="134" y2="92.9"/>
			<line id="Linha_4_1_" class="st14" x1="142.4" y1="100.4" x2="142.2" y2="103.8"/>
			<path id="Caminho_22_1_" class="st3" d="M149.8,112.4c0,0,18.5-37.7,23.6-36.8c2.4,0.4,3.5,2.8,4,5.2c0.6,3.1,0.3,6.3-1,9.2
				C173.7,95.9,166.7,107.4,149.8,112.4z"/>
			<path id="Caminho_23_1_" class="st14" d="M173.2,82.7c0,0-19.4,28.2-23.2,29.4"/>
			<line id="Linha_5_1_" class="st14" x1="175" y1="87.1" x2="170.5" y2="87.1"/>
			<line id="Linha_6_1_" class="st14" x1="169.6" y1="97.4" x2="162.5" y2="97.7"/>
			<line id="Linha_7_1_" class="st14" x1="165.2" y1="89.2" x2="166" y2="92.9"/>
			<line id="Linha_8_1_" class="st14" x1="157.7" y1="100.4" x2="157.8" y2="103.8"/>
			<path id="Caminho_24_1_" class="st3" d="M118,121.2c-0.5-0.4-0.9-1-1.1-1.6c-0.2-0.6,0.1-1.3,0.7-1.6c0.7-0.3,1.4,0.2,2,0.7
				c0.5,0.6,1.2,0.9,1.9,0.9c-0.7-0.7-1.1-1.7-0.9-2.7c0-0.2,0.1-0.4,0.3-0.6c0.4-0.4,1.1-0.2,1.5,0.1c1.4,1,1.8,3,1.8,4.7
				c0.1-0.7,0.1-1.3,0-2c-0.1-0.7,0.2-1.3,0.7-1.7c0.3-0.2,0.7-0.3,1.1-0.3c0.6-0.1,1.3,0.1,1.8,0.5c0.5,0.7,0.5,1.6-0.1,2.2
				c-0.5,0.6-1.2,1.1-1.9,1.5c-0.5,0.3-1,0.7-1.3,1.3c0,0.1-0.1,0.1-0.1,0.2h-4C119.6,122.4,118.7,121.8,118,121.2L118,121.2z"/>
			<path id="Caminho_25_1_" class="st3" d="M188.5,106c-0.5-0.4-0.9-1-1.1-1.6c-0.2-0.6,0.1-1.3,0.7-1.6c0.7-0.1,1.5,0.1,2,0.7
				c0.5,0.6,1.2,0.9,1.9,0.9c-0.8-0.7-1.1-1.7-0.9-2.7c0-0.2,0.1-0.4,0.3-0.5c0.4-0.4,1.1-0.2,1.5,0.1c1.4,1,1.8,3,1.8,4.7
				c0.1-0.7,0.1-1.3,0-2c-0.1-0.7,0.2-1.3,0.7-1.7c0.3-0.2,0.7-0.3,1.1-0.3c0.6-0.1,1.3,0.1,1.8,0.5c0.5,0.7,0.5,1.6-0.1,2.2
				c-0.5,0.6-1.2,1.1-1.9,1.5c-0.5,0.3-1,0.8-1.3,1.3c0,0.1-0.1,0.1-0.1,0.2h-4C190.1,107.3,189.3,106.7,188.5,106L188.5,106z"/>
			<path id="Caminho_26_1_" class="st3" d="M165,121.2c-0.5-0.4-0.9-1-1.1-1.6c-0.2-0.6,0.1-1.3,0.7-1.6c0.7-0.3,1.4,0.2,2,0.7
				c0.5,0.6,1.2,0.9,1.9,0.9c-0.7-0.7-1.1-1.7-0.9-2.7c0-0.2,0.1-0.4,0.2-0.6c0.4-0.4,1.1-0.2,1.5,0.1c1.4,1,1.8,3,1.8,4.7
				c0.1-0.7,0.1-1.3,0-2c-0.1-0.7,0.2-1.3,0.7-1.7c0.9-0.4,2-0.3,2.9,0.2c0.5,0.7,0.5,1.6-0.1,2.2c-0.5,0.6-1.2,1.1-1.9,1.5
				c-0.5,0.3-1,0.8-1.3,1.3c0,0.1-0.1,0.1-0.1,0.2h-4C166.6,122.4,165.7,121.9,165,121.2L165,121.2z"/>
			<path id="Caminho_27_1_" class="st3" d="M98.3,90.5c0,0-1.5,2,0.7,4.9c2.2,3,4,5.5,3.3,7.4c0,0-3.3-5.5-6-5.6
				C93.5,97.1,95.3,93.9,98.3,90.5z"/>
			<path id="Caminho_28_1_" class="st6" d="M98.3,90.5c-0.1,0.2-0.2,0.4-0.3,0.6c-2.6,3.1-4.1,6-1.5,6.1c2.4,0.1,5.2,4.3,5.9,5.4
				c0,0.1,0,0.2-0.1,0.2c0,0-3.3-5.5-6-5.6C93.6,97.1,95.3,93.9,98.3,90.5z"/>
			<path id="Caminho_29_1_" class="st15" d="M95.5,93c0,0.7,0.1,1.3,0.2,1.3c0.1,0,0.2-0.6,0.2-1.3s-0.1-0.4-0.2-0.4
				C95.6,92.7,95.5,92.4,95.5,93z"/>
			<path id="Caminho_30_1_" class="st15" d="M94.6,93.9c0.6,0.3,1.1,0.5,1.2,0.4c0-0.1-0.4-0.4-1-0.7c-0.6-0.3-0.4-0.1-0.4,0
				C94.3,93.7,93.9,93.6,94.6,93.9z"/>
			<path id="Caminho_31_1_" class="st3" d="M106.3,90.5c0,0,1.5,2-0.7,4.9c-2.2,3-4,5.5-3.3,7.4c0,0,3.3-5.5,6-5.6
				C111.1,97.1,109.3,93.9,106.3,90.5z"/>
			<path id="Caminho_32_1_" class="st6" d="M106.3,90.5c0.1,0.2,0.2,0.4,0.3,0.6c2.6,3.1,4.1,6,1.5,6.1c-2.4,0.1-5.2,4.3-5.9,5.4
				c0,0.1,0,0.2,0.1,0.2c0,0,3.3-5.5,6-5.6S109.3,93.9,106.3,90.5z"/>
			<path id="Caminho_33_1_" class="st15" d="M109.1,93c0,0.7-0.1,1.3-0.2,1.3c-0.1,0-0.2-0.6-0.2-1.3s0.1-0.4,0.2-0.4
				C109.1,92.7,109.1,92.4,109.1,93z"/>
			<path id="Caminho_34_1_" class="st15" d="M110.1,93.9c-0.6,0.3-1.1,0.5-1.2,0.4c0-0.1,0.4-0.4,1-0.7c0.6-0.3,0.4-0.1,0.4,0
				C110.4,93.7,110.7,93.6,110.1,93.9z"/>
			<path id="Caminho_35_1_" class="st16" d="M108.6,102.6c0,0-4.2-0.1-5.5-1c-1.3-0.9-6.5-2-6.8-0.5c-0.3,1.4-6.3,7.2-1.6,7.3
				s11.1-0.7,12.3-1.5S108.6,102.6,108.6,102.6z"/>
			<path id="Caminho_36_1_" class="st17" d="M94.7,107.8c4.8,0,11.1-0.7,12.3-1.5c1-0.6,1.3-2.7,1.5-3.7h0.1c0,0-0.3,3.4-1.5,4.2
				s-7.6,1.6-12.3,1.5c-1.4,0-1.8-0.5-1.8-1.2C93.1,107.5,93.6,107.8,94.7,107.8z"/>
			<ellipse id="Elipse_6_1_" class="st13" cx="254.1" cy="321.3" rx="34.2" ry="5"/>
			<ellipse id="Elipse_7_1_" class="st13" cx="266.9" cy="406.4" rx="34.2" ry="5"/>
			<ellipse id="Elipse_8_1_" class="st13" cx="29.2" cy="326" rx="34.2" ry="5"/>
			<ellipse id="Elipse_10_1_" class="st13" cx="365.2" cy="314.4" rx="22.6" ry="2.5"/>
			<ellipse id="Elipse_12_1_" class="st13" cx="512.8" cy="376.3" rx="22.6" ry="2.5"/>
			<ellipse id="Elipse_13_1_" class="st13" cx="317.6" cy="359.7" rx="22.6" ry="2.5"/>
			<ellipse id="Elipse_14_1_" class="st13" cx="134.6" cy="353.1" rx="22.6" ry="2.5"/>
			<ellipse id="Elipse_15_1_" class="st13" cx="86.9" cy="398.4" rx="22.6" ry="2.5"/>
			<g id="Grupo_3_1_" class="st18">
				<ellipse id="Elipse_16_1_" cx="382.6" cy="-16" rx="149.7" ry="66.8"/>
				<path id="Caminho_37_1_" d="M534.9,7.9c-6.6,34.8-72,62.2-151.8,62.2c-80.4,0-146.3-27.8-152-63.1h-0.6v56.8
					c26.3,27.5,84.5,46.6,152.2,46.6s125.8-19.1,152.2-46.6V7.9z"/>
				<path id="Caminho_38_1_" d="M534.9,76.9c-6.6,34.8-72,62.2-151.8,62.2c-80.4,0-146.3-27.8-152-63.1h-0.6v56.8
					c26.3,27.5,84.5,46.6,152.2,46.6s125.8-19.1,152.2-46.6V76.9z"/>
				<path id="Caminho_39_1_" d="M534.9,152.9c-6.6,34.8-72,62.2-151.8,62.2c-80.4,0-146.3-27.8-152-63.1h-0.6v61.2
					c0,2.6,1.1,5.2,3,6.9c27.5,25.3,84,35.2,149.1,35.2s121.5-9.9,149.1-35.2c1.9-1.8,3-4.3,3-6.9V152.9z"/>
			</g>
			<ellipse id="Elipse_17_1_" class="st3" cx="382.6" cy="-19.9" rx="149.7" ry="66.8"/>
			<path id="Caminho_40_1_" class="st3" d="M534.9,3.9c-6.6,34.8-72,62.2-151.8,62.2c-80.4,0-146.3-27.8-152-63.1h-0.6v56.8
				c26.3,27.5,84.5,46.6,152.2,46.6s125.8-19.1,152.2-46.6V3.9z"/>
			<path id="Caminho_41_1_" class="st3" d="M534.9,73c-6.6,34.8-72,62.2-151.8,62.2c-80.4,0-146.3-27.8-152-63.1h-0.6v56.8
				c26.3,27.5,84.5,46.6,152.2,46.6s125.8-19.1,152.2-46.6V73z"/>
			<path id="Caminho_42_1_" class="st3" d="M534.9,148.9c-6.6,34.8-72,62.2-151.8,62.2c-80.4,0-146.3-27.8-152-63.1h-0.6v61.2
				c0,2.6,1.1,5.2,3,6.9c27.5,25.3,84,35.2,149.1,35.2s121.5-9.9,149.1-35.2c1.9-1.8,3-4.3,3-6.9V148.9z"/>
			<ellipse id="Elipse_18_1_" class="st13" cx="603.2" cy="310.4" rx="56.1" ry="10.1"/>
			
				<linearGradient id="Caminho_43_2_" gradientUnits="userSpaceOnUse" x1="-244.1724" y1="550.2852" x2="-244.1724" y2="551.269" gradientTransform="matrix(71.4406 0 0 -282.5918 18049.1406 155820.3438)">
				<stop  offset="0" style="stop-color:#808080;stop-opacity:0.251"/>
				<stop  offset="0.54" style="stop-color:#808080;stop-opacity:0.122"/>
				<stop  offset="1" style="stop-color:#808080;stop-opacity:0.102"/>
			</linearGradient>
			<path id="Caminho_43_1_" class="st19" d="M571.8,181.7c2.8,1.7,7.3,2.8,12.9-0.8l0,8c0.4,5.5,7.2,25.4,7.2,25.4l4.8,16.4
				c3.4,11.6,5.2,23.6,5.2,35.7c-0.1,3.8,0.4,7.6,1.5,11.2c2.5,6.9-1,15.7-2.5,19c-2.6,0.9-5.2,1.6-7.9,2.2
				c-0.2,0.1-0.5,0.1-0.7,0.2v0c0,0-7.2,2.8-10.3,2.4c-2.4-0.3-3.9,2.7-2,4.9c-1.5,0.5-3.2,0.7-4.8,0.6c-3.2-0.4-4.8,5.1,1.2,6.6
				s39.8,0,39.8,0c2-1,3-3.2,2.5-5.3l4.2-0.2c0,0,6-2.7,0-10.2l-0.3,0.2l-1.3-3.8v-5.1c0,0,7.6-36.4,5.2-40.7
				c-2.4-4.3-3.7-26.2-3.7-26.2l0.8-23.8c2.2-4.4,3.3-11.4,3.8-16.9c0.8-2.6,1.3-5.3,1.5-8c0.1-1.3,0.2-2.6,0.2-4
				c0-3.1-0.5-6.1-1.5-9c2.7-4,5.7-7.8,9-11.3c2.8-2.6,4.1-6.4,3.6-10.2l-2-13.3l-4.8-22.6c0.6-6.3-0.7-9.9-2.2-12
				c0.3-2,0.7-4.1,0.9-6.1c1.1-8.9,0.6-17.9-1.4-26.6c-0.7-3-1.6-6.1-3.8-8.5c-2.4-2.6-6.3-4.2-7.2-7.6c-0.1-0.9-0.3-1.7-0.6-2.6
				c-0.9-2.2-3.6-3-6.1-3.3c-4.3-0.5-10.5-0.9-14.7,0.8c-3.6,1.6-6.6,4.4-8.5,7.9c-0.9,1.4-1.3,3.2-1,4.9c0.1,0.6,0.4,1.1,0.7,1.7
				c-2.9,7.8,1.1,16.4,8.8,19.4c0.1,0.3,0.2,0.6,0.3,0.9c0.2,0.7,0.3,1.4,0.4,2.1c-0.1,1.4-0.2,2.8-0.2,4.2l-0.1,0.6
				c-3.4,1.5-6.8,3.2-10,5.1c2.4,3.5-0.4,18.4-0.4,18.4c-6,3.5-11.9,12.5-5.6,21.9s2.8,19.5,2.8,19.5l-1,15.3l0,0l-0.2,3.1h0.1
				l-0.1,1.2h0.2v1.2c-2.8,1-6.9,3.1-9.3,6.9c-1.2,1.9-2.6,3.6-4.2,5.1c-1.3,1.1-1.4,3-0.3,4.3C571.2,181.3,571.4,181.6,571.8,181.7
				L571.8,181.7z M619.8,141.1c-0.2-2.6,0.3-5.3,1.4-7.7h2.8c0.1,0.6,0.2,1.2,0.3,1.8C625.2,138.8,622,140.4,619.8,141.1z"/>
			<path id="Caminho_44_1_" class="st20" d="M620.6,292.6l1.5,4.6l-5,5l-16.5,3.9l-11.9-1.2l0.8-4.2l0,0c0.5-1.8,1.9-3.3,3.8-3.7
				c4.9-1.1,14.2-3.8,16.1-7.4L620.6,292.6z"/>
			<path id="Caminho_45_1_" class="st6" d="M620.6,292.6l1.5,4.6l-5,5l-16.5,3.9l-11.9-1.2l0.8-4.2l0,0c0.5-1.8,1.9-3.3,3.8-3.7
				c4.9-1.1,14.2-3.8,16.1-7.4L620.6,292.6z"/>
			<path id="Caminho_46_1_" class="st21" d="M592.6,303.7l2.3-3.1l-2.3-3.6c0,0-6.9,2.8-10,2.4c-3.1-0.4-4.6,5,1.2,6.5
				c5.7,1.5,38.3,0,38.3,0s5.7-2.7,0-10l-5,3.8c0,0-8.4,4.6-12.6,3.8L592.6,303.7z"/>
			<path id="Caminho_47_1_" class="st20" d="M582.3,310.3l11.9,1.2l16.5-3.8l5-5l-0.4-1.2l-0.6-1.7l-0.6-1.7l-11.1-3.1
				c-0.6,0.9-1.3,1.7-2.3,2.3c-3.6,2.5-10.1,4.2-13.9,5.1c-0.2,0-0.3,0.1-0.5,0.1c-0.7,0.2-1.4,0.6-2,1.2c-0.7,0.7-1.1,1.5-1.4,2.4
				L582.3,310.3z"/>
			<path id="Caminho_48_1_" class="st6" d="M582.3,310.3l11.9,1.2l16.5-3.8l5-5l-0.4-1.2l-4.6,3.5c0,0-8.4,4.6-12.6,3.8h-11.9
				l2.3-3.1l-2.1-3.2c-0.7,0.2-1.4,0.6-2,1.2c-0.7,0.7-1.1,1.5-1.4,2.4L582.3,310.3z"/>
			<path id="Caminho_49_1_" class="st21" d="M586.1,309.1l2.3-3.1l-2.3-3.6c0,0-6.9,2.8-10,2.4s-4.6,5,1.2,6.5
				c5.7,1.5,38.3,0,38.3,0s5.7-2.7,0-10l-5,3.8c0,0-8.4,4.6-12.6,3.8L586.1,309.1z"/>
			<path id="Caminho_50_1_" class="st20" d="M595.7,87c0,0,18.4,2,15.7-5.7c-0.8-2.2-1-4.5-0.6-6.8c0.5-2.8,1.6-5.5,3.2-7.8
				l-17.2,2.7c1,1.7,1.8,3.6,2.3,5.5C601.2,83,595.7,87,595.7,87z"/>
			<path id="Caminho_51_1_" class="st22" d="M627.1,174.3c0,0-0.4,16.5-4.2,24.5l-0.8,23.4c0,0,1.1,21.4,3.4,25.7s-5,39.8-5,39.8
				v6.1c0,0-12.3,4.6-15.7-0.8l3.4-45.6l-1.5-63.2L627.1,174.3z"/>
			<path id="Caminho_52_1_" class="st6" d="M627.1,174.3c0,0-0.4,16.5-4.2,24.5l-0.8,23.4c0,0,1.1,21.4,3.4,25.7s-5,39.8-5,39.8v6.1
				c0,0-12.3,4.6-15.7-0.8l3.4-45.6l-1.5-63.2L627.1,174.3z"/>
			<path id="Caminho_53_1_" class="st23" d="M634.8,121.4l2.3,6.1l2,13c0.5,3.7-0.8,7.4-3.5,10c-4.6,4.6-10.7,14.2-10.7,14.2
				l-7.3-21.8c0,0,7.3-1.2,6.1-6.1c-1.2-5-0.8-14.2-0.8-14.2L634.8,121.4z"/>
			<path id="Caminho_54_1_" class="st24" d="M634.9,121.4l2.3,6.1l2,13c0.5,3.7-0.8,7.4-3.4,10c-4.6,4.6-10.7,14.2-10.7,14.2
				l-7.3-21.9c0,0,7.3-1.2,6.1-6.1c-1.2-5-0.8-14.2-0.8-14.2L634.9,121.4z"/>
			<path id="Caminho_55_1_" class="st6" d="M600.7,297.2c4.9,7.7,12.6,3.3,13.9,2.5l-0.6-1.7l-11.1-3.1
				C602.4,295.9,601.6,296.7,600.7,297.2z"/>
			<path id="Caminho_56_1_" class="st22" d="M585.4,189.2c0.4,5.4,6.9,24.9,6.9,24.9l4.6,16.1c3.3,11.4,5,23.1,5,35
				c-0.1,3.7,0.4,7.4,1.5,11c3.1,8.4-3.1,19.9-3.1,19.9c5.4,9.6,14.6,3.1,14.6,3.1V293c0,0,7.3-33.3,5.4-39.8
				c-1.9-6.5-2.7-24.1-2.7-24.1v-31.8c6.1-6.1,9.9-14.2,10.5-22.9c0.1-1.3,0.2-2.6,0.2-3.9c0.3-8.6-5.6-18.8-7.9-22.4
				c-0.6-0.9-0.9-1.4-0.9-1.4l-33.8,13.4h-0.1v4.2L585.4,189.2z"/>
			<path id="Caminho_57_1_" class="st6" d="M596.9,69.3c1,1.7,1.8,3.6,2.3,5.5c3.8,1.4,8,1.3,11.6-0.4c0.5-2.8,1.6-5.5,3.2-7.8
				L596.9,69.3z"/>
			<circle id="Elipse_19_1_" class="st20" cx="604.5" cy="60.2" r="14.9"/>
			<path id="Caminho_58_1_" class="st6" d="M585.4,164.3h0.2c16.1,3.3,36.2-13.4,36.2-13.4c-0.5-0.9-1-1.9-1.4-2.9
				c-0.6-0.9-0.9-1.4-0.9-1.4l-33.8,13.4l-0.1,1.3L585.4,164.3z"/>
			<path id="Caminho_59_1_" class="st23" d="M589.6,86.6c0,0,21.4-13,28.3-7.7l9.6,12.3c0,0,6.1,1.9,5,14.2l4.6,22.2l-13.8,3.4
				c0,0-8,7.7-1.5,18.8c0,0-20.3,16.9-36.4,13.4l1.2-18c0,0,3.4-10-2.7-19.2c-6.1-9.2-0.4-18,5.4-21.4
				C589.2,104.6,591.9,90,589.6,86.6z"/>
			<path id="Caminho_60_1_" class="st20" d="M588.4,164.7c0,0-8,1.5-11.9,7.7c-1.1,1.8-2.5,3.5-4,5c-1.2,1.1-1.3,3-0.2,4.3
				c0.2,0.2,0.4,0.4,0.7,0.6c3,1.8,8,3,14.3-2.2C598.1,171.2,588.4,164.7,588.4,164.7z"/>
			<path id="Caminho_61_1_" class="st6" d="M600.3,93.9c0,0,7.7-0.8,9.6,19.1c1.9,19.9,5,24.5,5,24.5s1.9,10.3-2.7,16.5
				c-4.6,6.1-13.4,19.2-13.4,19.2s-9.6,2.7-11.5-6.9l11.9-22.2c0,0,1.9-7.7-2.7-13C591.9,125.7,588.4,90,600.3,93.9z"/>
			<path id="Caminho_62_1_" class="st23" d="M599.5,92.7c0,0,7.7-0.8,9.6,19.2s5,24.5,5,24.5s2,10.3-2.7,16.5S598.1,172,598.1,172
				s-9.6,2.7-11.5-6.9l11.9-22.2c0,0,1.9-7.7-2.7-13C591.1,124.5,587.7,88.9,599.5,92.7z"/>
			<path id="Caminho_63_1_" class="st6" d="M593.2,107.1c0,0-0.8,11.9,2.7,18.4c3.4,6.5,3.4,14.9,0,19.5"/>
			<path id="Caminho_64_1_" class="st6" d="M591.3,92.5c0,0,3.1-3.1,11.9-3.4c8.8-0.4,12.6-3.1,12.6-3.1"/>
			<path id="Caminho_65_1_" class="st6" d="M612.6,40.9c2.3,0.3,5,1.1,5.8,3.3c0.2,0.8,0.4,1.7,0.5,2.5c0.9,3.3,4.6,4.9,7,7.5
				c2,2.3,3,5.3,3.6,8.3c1.9,8.5,2.4,17.3,1.3,26c-0.7,6.3-2.3,12.6-2.7,19c-0.4,6.4,0.4,13.1,3.8,18.5c1.5,2.3,3.5,4.3,4.5,6.9
				c-2.2,1.8-5.2,2-8.1,2.1c-3.3,0.1-6.6,0.1-9.9,0c-1.7,0.1-3.5-0.3-5-1.1c-1.1-0.7-2-1.7-2.6-2.8c-1.9-3.2-2.4-7-2.3-10.8
				c0.1-3.7,0.7-7.4,0.7-11.1c0.2-2-0.3-4.1-1.3-5.8c-1-1.1-2-2.1-3.2-3c-4.1-3.6-5.5-9.5-5.6-14.9c-0.1-5.5,0.8-11,0.3-16.4
				c-0.2-2.1-1-4.7-3.1-5.1c-0.7,0-1.3-0.1-2-0.3c-1.7-0.6-1.5-3-2-4.8c-0.5-2-2.2-3.5-2.7-5.4c-1.1-4.6,4.8-10.2,8.7-11.8
				C602.4,40,608.5,40.3,612.6,40.9z"/>
			<path id="Caminho_66_1_" class="st25" d="M613,40.1c2.3,0.3,5,1.1,5.8,3.3c0.2,0.8,0.4,1.7,0.5,2.5c0.9,3.3,4.6,4.9,7,7.5
				c2,2.3,3,5.3,3.6,8.3c1.9,8.5,2.4,17.4,1.3,26.1c-0.7,6.3-2.3,12.6-2.7,19s0.4,13.1,3.8,18.4c1.5,2.3,3.5,4.3,4.5,6.9
				c-2.2,1.8-5.2,2-8.1,2.1c-3.3,0.1-6.6,0.1-9.9,0c-1.7,0.1-3.5-0.3-5-1c-1.1-0.7-2-1.7-2.6-2.8c-1.9-3.2-2.4-7-2.3-10.8
				c0.1-3.7,0.7-7.4,0.7-11.1c0-2-0.1-4.2-1.3-5.8c-0.9-1.1-2-2.1-3.2-3c-4.1-3.6-5.5-9.5-5.6-14.9c-0.1-5.5,0.8-11,0.3-16.4
				c-0.2-2.1-1-4.7-3.1-5.1c-0.7,0-1.3-0.1-2-0.3c-1.7-0.6-1.5-3-2-4.8c-0.5-2-2.2-3.5-2.7-5.4c-1.1-4.6,4.8-10.2,8.7-11.8
				S608.9,39.6,613,40.1z"/>
			<path id="Caminho_67_1_" class="st16" d="M8.1,311.9c0,0,10.5-0.3,13.7-2.6s16.2-5,17-1.3c0.8,3.6,15.8,18,3.9,18.1
				c-11.9,0.1-27.6-1.9-30.8-3.8C8.7,320.4,8.1,311.9,8.1,311.9z"/>
			<path id="Caminho_68_1_" class="st17" d="M42.9,324.8c-11.9,0.1-27.6-1.8-30.8-3.8c-2.4-1.5-3.4-6.7-3.7-9.2H8.1
				c0,0,0.7,8.5,3.8,10.4c3.2,1.9,18.9,3.9,30.8,3.8c3.4,0,4.6-1.2,4.6-3.1C46.8,324.1,45.5,324.8,42.9,324.8z"/>
			<g id="Grupo_6_1_" transform="translate(31 161)">
				<ellipse id="Elipse_11_1_" class="st13" cx="634.4" cy="196.8" rx="22.6" ry="2.5"/>
				<path id="Caminho_69_1_" class="st16" d="M623.4,185.8c0,0,7.2-0.2,9.4-1.8s11.1-3.4,11.7-0.9s10.9,12.4,2.7,12.5
					c-8.2,0.1-19-1.3-21.2-2.6C623.9,191.6,623.4,185.8,623.4,185.8z"/>
				<path id="Caminho_70_1_" class="st17" d="M647.3,194.7c-8.2,0.1-19-1.3-21.2-2.6c-1.7-1-2.3-4.6-2.5-6.3h-0.2
					c0,0,0.5,5.8,2.6,7.2c2.2,1.3,13,2.7,21.2,2.6c2.4,0,3.2-0.9,3.1-2.1C650,194.2,649.1,194.7,647.3,194.7z"/>
			</g>
			<circle id="Elipse_20_1_" class="st13" cx="294.6" cy="-290.4" r="21.3"/>
			<circle id="Elipse_21_1_" class="st13" cx="827.8" cy="-169.4" r="21.3"/>
			<circle id="Elipse_22_1_" class="st13" cx="441.9" cy="-249.5" r="15.7"/>
			<circle id="Elipse_23_1_" class="st13" cx="191" cy="-249.5" r="15.7"/>
			<circle id="Elipse_24_1_" class="st13" cx="702.6" cy="-233.7" r="15.7"/>
			<g id="Grupo_5_1_">
				<ellipse id="Elipse_9_1_" class="st13" cx="524.3" cy="447.2" rx="34.2" ry="5"/>
				<path id="Caminho_71_1_" class="st26" d="M528.7,401c0,0,3.9,5.2-1.8,12.9c-5.8,7.8-10.5,14.3-8.6,19.2c0,0,8.7-14.4,15.7-14.6
					S536.5,409.7,528.7,401z"/>
				<path id="Caminho_72_1_" class="st6" d="M528.7,401c0.3,0.5,0.6,1,0.8,1.6c6.9,8.1,10.6,15.7,3.9,15.9
					c-6.2,0.2-13.6,11.2-15.4,14c0.1,0.2,0.1,0.4,0.2,0.6c0,0,8.7-14.4,15.7-14.6C541.1,418.3,536.5,409.7,528.7,401z"/>
				<path id="Caminho_73_1_" class="st15" d="M536,407.6c0,1.8-0.2,3.3-0.5,3.3c-0.2,0-0.5-1.5-0.5-3.3c0-1.8,0.3-1,0.5-1
					S536,405.7,536,407.6z"/>
				<path id="Caminho_74_1_" class="st15" d="M538.6,409.7c-1.6,0.9-3,1.4-3.1,1.2c-0.2-0.2,1.1-1.1,2.7-2c1.6-0.9,1-0.2,1.1,0
					C539.3,409.2,540.2,408.9,538.6,409.7z"/>
				<path id="Caminho_75_1_" class="st26" d="M507.9,401c0,0-3.9,5.2,1.8,12.9c5.8,7.8,10.5,14.3,8.6,19.2c0,0-8.7-14.4-15.7-14.6
					C495.5,418.3,500.1,409.7,507.9,401z"/>
				<path id="Caminho_76_1_" class="st6" d="M507.9,401c-0.3,0.5-0.6,1-0.8,1.6c-6.9,8.1-10.6,15.7-3.9,15.9
					c6.2,0.2,13.6,11.2,15.4,14c-0.1,0.2-0.1,0.4-0.2,0.6c0,0-8.7-14.4-15.7-14.6S500.1,409.7,507.9,401z"/>
				<path id="Caminho_77_1_" class="st15" d="M500.6,407.6c0,1.8,0.2,3.3,0.5,3.3s0.5-1.5,0.5-3.3c0-1.8-0.3-1-0.5-1
					S500.6,405.7,500.6,407.6z"/>
				<path id="Caminho_78_1_" class="st15" d="M498.1,409.7c1.6,0.9,3,1.4,3.1,1.2c0.1-0.2-1.1-1.1-2.7-2c-1.6-0.9-1-0.2-1.1,0
					C497.3,409.2,496.5,408.9,498.1,409.7z"/>
				<path id="Caminho_79_1_" class="st16" d="M501.8,432.5c0,0,11-0.3,14.3-2.7c3.3-2.4,17-5.2,17.8-1.4s16.5,18.9,4.1,19
					c-12.4,0.1-28.9-2-32.2-3.9C502.5,441.4,501.8,432.5,501.8,432.5z"/>
				<path id="Caminho_80_1_" class="st17" d="M538.3,446c-12.4,0.1-28.9-2-32.2-3.9c-2.5-1.5-3.5-7.1-3.9-9.6h-0.4
					c0,0,0.7,8.9,4,10.9s19.8,4.1,32.2,3.9c3.6,0,4.8-1.3,4.8-3.2C542.3,445.3,541,446,538.3,446z"/>
			</g>
			<path id="Caminho_81_1_" class="st27" d="M193.4-127.7c-11.4,0-20.7,9.2-20.7,20.7s9.2,20.7,20.7,20.7s20.7-9.2,20.7-20.7
				S204.8-127.7,193.4-127.7z M193.4-123.7c9.2,0,16.7,7.5,16.7,16.7s-7.5,16.7-16.7,16.7c-9.2,0-16.7-7.5-16.7-16.7
				S184.2-123.7,193.4-123.7 M205.1-112.8l-1.9-1.9c-0.4-0.4-1-0.4-1.4,0c0,0,0,0,0,0L190-103l-5-5.1c-0.4-0.4-1-0.4-1.4,0
				c0,0,0,0,0,0l-1.9,1.9c-0.4,0.4-0.4,1,0,1.4c0,0,0,0,0,0l7.6,7.6c0.4,0.4,1,0.4,1.4,0c0,0,0,0,0,0l14.4-14.3
				C205.5-111.8,205.5-112.4,205.1-112.8C205.1-112.8,205.1-112.8,205.1-112.8L205.1-112.8z"/>
			<path id="Caminho_82_1_" class="st27" d="M-35.3-23.1c-11.1,2.6-18,13.7-15.4,24.8c2.6,11.1,13.7,18,24.8,15.4
				c11.1-2.6,18-13.7,15.4-24.8c-1.2-5.3-4.5-9.9-9.2-12.8C-24.3-23.4-29.9-24.3-35.3-23.1z M-34.4-19.2c9-2.1,18,3.5,20.1,12.5
				c2.1,9-3.5,18-12.5,20.1c-9,2.1-18-3.5-20.1-12.5c0,0,0-0.1,0-0.1C-48.9-8.1-43.4-17.1-34.4-19.2 M-20.5-11.2l-2.3-1.5
				c-0.5-0.3-1.1-0.2-1.4,0.3c0,0,0,0,0,0l-8.9,14l-6-3.8c-0.5-0.3-1.1-0.2-1.4,0.3c0,0,0,0,0,0l-1.4,2.3C-42.1,1-42,1.6-41.5,1.9
				c0,0,0,0,0,0l9.1,5.7c0.5,0.3,1.1,0.2,1.4-0.3c0,0,0,0,0,0l10.8-17.1C-19.9-10.3-20.1-10.9-20.5-11.2
				C-20.5-11.2-20.5-11.2-20.5-11.2L-20.5-11.2z"/>
			<path id="Caminho_83_1_" class="st27" d="M494.5-124.7c-11.4,0-20.7,9.2-20.7,20.7s9.2,20.7,20.7,20.7s20.7-9.2,20.7-20.7l0,0
				C515.2-115.5,505.9-124.7,494.5-124.7z M494.5-120.7c9.2,0,16.7,7.5,16.7,16.7s-7.5,16.7-16.7,16.7s-16.7-7.5-16.7-16.7
				S485.3-120.7,494.5-120.7 M506.2-109.8l-1.9-1.9c-0.4-0.4-1-0.4-1.4,0c0,0,0,0,0,0L491.1-100l-5-5c-0.4-0.4-1-0.4-1.4,0
				c0,0,0,0,0,0l-1.9,1.9c-0.4,0.4-0.4,1,0,1.4c0,0,0,0,0,0l7.6,7.6c0.4,0.4,1,0.4,1.4,0c0,0,0,0,0,0l14.4-14.3
				C506.6-108.8,506.6-109.4,506.2-109.8C506.2-109.8,506.2-109.8,506.2-109.8L506.2-109.8z"/>
			<path id="Caminho_84_1_" class="st27" d="M731.5-22.7c-11.4-0.9-21.3,7.6-22.2,19c-0.9,11.4,7.6,21.3,19,22.2
				c11.4,0.9,21.3-7.6,22.2-19c0.4-5.5-1.3-10.9-4.9-15C742.1-19.7,737-22.3,731.5-22.7z M731.2-18.7c9.2,0.7,16,8.7,15.3,17.9
				c-0.7,9.2-8.7,16-17.9,15.3c-9.2-0.7-16-8.7-15.3-17.9c0.3-4.4,2.4-8.5,5.8-11.4C722.4-17.6,726.8-19,731.2-18.7 M742.1-7l-1.7-2
				c-0.3-0.4-1-0.5-1.4-0.1c0,0,0,0,0,0L726.3,1.6l-4.6-5.4c-0.3-0.4-1-0.5-1.4-0.1c0,0,0,0,0,0l-2,1.7c-0.4,0.3-0.5,1-0.1,1.4
				c0,0,0,0,0,0l7,8.2c0.3,0.4,1,0.5,1.4,0.1c0,0,0,0,0,0l15.5-13.1C742.4-5.9,742.4-6.5,742.1-7C742.1-6.9,742.1-6.9,742.1-7z"/>
		</g>
	</g>
</g>
</svg>
