<?xml version="1.0" encoding="utf-8"?>
<!-- Generator: Adobe Illustrator 22.0.0, SVG Export Plug-In . SVG Version: 6.00 Build 0)  -->
<svg version="1.1" id="Layer_1" xmlns="http://www.w3.org/2000/svg" xmlns:xlink="http://www.w3.org/1999/xlink" x="0px" y="0px"
	 viewBox="0 0 1200 1000" style="enable-background:new 0 0 1200 1000;" xml:space="preserve">
<style type="text/css">
	.st0{fill:#ECF0F1;}
	.st1{fill:#E74C3C;}
	.st2{fill:#2980B9;}
	.st3{fill:#2E4F66;}
	.st4{opacity:0.2;}
	.st5{fill:#3F3D56;}
	.st6{opacity:0.1;enable-background:new    ;}
	.st7{opacity:0.1;fill:#E74C3C;enable-background:new    ;}
	.st8{opacity:0.3;fill:#E74C3C;enable-background:new    ;}
	.st9{fill:#444053;}
	.st10{opacity:0.7;fill:#3F3D56;enable-background:new    ;}
	.st11{fill:#F5F5FB;}
	.st12{fill:#F7F7FD;}
	.st13{opacity:0.1;fill:#2E4F66;enable-background:new    ;}
	.st14{fill:none;stroke:#565987;stroke-miterlimit:10;}
	.st15{fill:#FFD037;}
	.st16{fill:#A8A8A8;}
	.st17{opacity:0.2;enable-background:new    ;}
	.st18{opacity:0.1;}
	.st19{fill:url(#Caminho_43_2_);}
	.st20{fill:#DB8B8B;}
	.st21{fill:#C17174;}
	.st22{fill:#474463;}
	.st23{fill:#FF748E;}
	.st24{opacity:5.000000e-02;enable-background:new    ;}
	.st25{fill:#464353;}
	.st26{fill:#FC6681;}
	.st27{opacity:0.7;fill:#3ACC6C;enable-background:new    ;}
	.st28{fill:url(#Caminho_165_2_);}
	.st29{fill:#65617D;}
	.st30{fill:#A5636D;}
	.st31{fill:#E7EFFD;}
	.st32{fill:#5F5D7E;}
	.st33{fill:#4C3E42;}
	.st34{fill:#E6E8EC;}
	.st35{opacity:0.7;}
	.st36{fill:url(#Caminho_291_2_);}
	.st37{fill:#FBBEBE;}
	.st38{fill:#5C5C8E;}
	.st39{fill:none;}
	.st40{fill:#F7CDDD;}
	.st41{fill:#7C5C5C;}
	.st42{opacity:0.5;}
</style>
<g>
	<g id="Grupo_55_1_" transform="translate(0.05 -0.017)">
		<path id="Caminho_164_1_" class="st13" d="M1023.4,708.8c-3.1,2.7-6.3,5.4-9.5,7.9c-0.5,0.4-1.1,0.9-1.7,1.3
			c-11.5,8.9-23.6,17.1-36.2,24.5l-2.4,1.4c-0.6,0.3-1.1,0.7-1.7,1c-13.2,7.6-26.8,14.6-40.6,21.2l-0.1,0.1l-1,0.5
			c-11.1,5.3-22.4,10.4-33.9,15.3l-0.3,0.1c-5.2,2.2-10.3,4.3-15.5,6.4c-2.1,0.9-4.2,1.7-6.4,2.5c-4,1.5-8,3-12,4.5l-0.5,0.2
			l-0.9,0.3l-1.1,0.4c-10.5,3.8-21.2,7.2-32,10.4l-0.2,0.1c-7.5,2.2-15.1,4.2-22.8,6.1l-1,0.3c-11.2,2.7-22.6,5-34.1,6.9l-2.6,0.4
			c-8.4,1.3-16.8,2.4-25.3,3.2c-47.8,4.6-96.1,0.9-143.5-5.6c-95.8-13-190.4-37.4-276.7-75.6c-16.6-7.3-32.8-15.2-48.7-23.5
			c-0.1-0.1-0.2-0.1-0.4-0.2c-9.5-5-18.9-10.2-28.2-15.6c-2.7-1.6-5.4-3.2-8.1-4.8c-3.3-2-6.6-4-9.9-6c-4.3-2.7-8.6-5.4-12.9-8.3
			l-2-1.3l-0.8-0.5c-1.1-0.7-2.2-1.5-3.3-2.2c-40.5-27.6-76.7-61-93.7-102.9c-19.7-48.3-7.1-109.5,41.8-138
			c16.8-9.8,36.3-15.2,56-19.6l2-0.4c3.3-0.7,6.7-1.4,10-2.1c11.6-2.5,23.3-4.9,34.9-7.6l0,0c6-1.4,12-2.9,18-4.5l2.4-0.7
			c14.3-3.8,28.3-8.8,41.9-14.8h0.1c1.5-0.6,2.9-1.3,4.3-2c0.9-0.4,1.8-0.9,2.7-1.3c14.7-7.3,30.2-17.4,42.1-29.5
			c1-1,1.9-1.9,2.8-2.9c0.7-0.8,1.4-1.5,2.1-2.3c8.4-9.8,14.2-20.6,15.3-32.1l0,0c0.4-3.9,0.2-7.8-0.5-11.6
			c-1.4-7.2-2.7-14.3-3.6-21.2c-1.8-13-2.4-25.4,0.1-37.3l0,0c2.5-12.2,8.3-23.9,19.3-35.3c1.7-1.7,3.5-3.4,5.4-5.2
			c8.9-7.8,19-14.2,29.9-18.9c1.3-0.6,2.7-1.1,4.1-1.7c30.2-12.2,66.6-14.8,100.5-13.1c31.7,1.6,63.2,6,94.2,13.1
			c2.5,0.6,4.9,1.1,7.4,1.7c26.3,6.4,52.3,14.4,77.6,24c65.9,24.8,128,59.2,186.1,97.1c0.6,0.4,1.1,0.7,1.7,1.1
			c2.4,1.6,4.8,3.2,7.2,4.8c4.6,3.1,9.2,6.2,13.8,9.3l3.1,2.1c1.5,1,3,2.1,4.5,3.1l4.6,3.2l0,0c0.2,0.1,0.4,0.3,0.6,0.4l3.9,2.7
			c2.3,1.6,4.5,3.2,6.8,4.8l0,0l4.9,3.4c1,0.7,2,1.4,3,2.2l5.2,3.8l1.2,0.9c0.2,0.2,0.5,0.3,0.7,0.5l0.1,0.1
			c14,10.3,27.7,21,40.5,32.3l1.7,1.5l0.2,0.2c1.4,1.2,2.8,2.5,4.2,3.8c16.7,15.2,31.7,31.6,44,49.7
			C1118.4,524.2,1101.7,640,1023.4,708.8z"/>
		
			<linearGradient id="Caminho_165_2_" gradientUnits="userSpaceOnUse" x1="-13.2013" y1="1001.1335" x2="-13.2013" y2="1002.2406" gradientTransform="matrix(254.5779 0 0 -457.3339 4283.2925 458647.75)">
			<stop  offset="0" style="stop-color:#808080;stop-opacity:0.251"/>
			<stop  offset="0.54" style="stop-color:#808080;stop-opacity:0.122"/>
			<stop  offset="1" style="stop-color:#808080;stop-opacity:0.102"/>
		</linearGradient>
		<path id="Caminho_165_1_" class="st28" d="M1060.3,468.1c0.6-1.5-3.6-9.8-3.6-10.2s-4.3-5-4.3-7.6s-5.6-8.2-5.6-8.2
			s-7.6-3.1-8.4-10c-0.8-6.8-8.8-7-9.1-7c0,0,0-0.6,0.1-1.6c0-2.1-0.1-5.9-1-8c-1-1.9-2.7-3.3-4.7-4c0,0-0.9-5.3-2.5-7
			c-1.9-2-2.6-4.8-1.9-7.4c0.4-2.2,0-4.4-1.1-6.4c-0.7-1.8-2.2-3.1-4-3.7h-0.1c-3.9-1-8.4-2.4-8.4-2.4s-0.4,0.1-1.1,0.2l-0.6-0.2
			c-1,0.2-1.9,0.3-2.9,0.4c-0.8,0-1.7-0.2-2.3-0.8c-1.4-1.5-12.5-4.4-14.6-4.4s-8-2.7-8-2.7l-5.9-4.5c-1.7-1.3-4.7-6.4-5.2-7.1
			l-0.1-0.1l0,0c-0.4-1-0.8-2-1.1-3c-0.1-0.2-0.1-0.4-0.2-0.6l0,0c1.2-1.3,2.3-2.6,3.3-4v0c0.3-0.4,0.5-0.8,0.8-1.2
			c0.4-0.6,0.7-1.2,1-1.8c0.1-0.3,0.3-0.5,0.4-0.8c0.3,0,0.6-0.1,0.9-0.1l0.4-0.1c0.3-0.2,0.7-0.4,0.9-0.6l0.3-0.3
			c0.8-0.7,1.4-1.6,1.7-2.6c0.1-0.3,0.2-0.6,0.3-0.9c0-0.1,0-0.2,0.1-0.3c0-0.1,0.1-0.4,0.1-0.6l0.1-0.3c0-0.2,0.1-0.4,0.1-0.6
			c0-0.1,0-0.2,0-0.4c0-0.3,0.1-0.5,0.1-0.8c0.1-1,0.2-1.9,0.4-2.9c0,0,0,0,0,0c0.5-1.8,1.1-3.6,2-5.2c0.9-1.7,1.8-3.3,2.6-5l0,0
			c0.2-0.5,0.4-1,0.6-1.5c0.2-0.5,0.4-1.1,0.6-1.7c0-0.2,0.1-0.3,0.1-0.5c0.1-0.4,0.2-0.8,0.3-1.2c0-0.2,0.1-0.4,0.1-0.5
			c0.1-0.6,0.2-1.1,0.2-1.7c0.3-3.3-0.2-6.6-1.4-9.6c-1-2.6-2.6-4.9-3.6-7.4c-1.6-3.9-2-8.3-3.9-12c-3.2-6.2-10.9-9.3-17.1-7
			c-3,1.1-5.6,3.3-8.6,4.2c-4.1,1.3-8.4,0.3-12.6-0.3s-8.9-0.6-12.2,2.1c-3.9,3.2-5,9.1-8.6,12.6c-0.9,0.8-1.9,1.5-2.9,2.2
			c-0.7,0.5-1.5,1-2.2,1.6c-1.1,0.9-2,2.1-2.5,3.4c0,0.1-0.1,0.2-0.1,0.3c0,0.1-0.1,0.2-0.1,0.4c0,0.1,0,0.3-0.1,0.4
			c0,0.1,0,0.2,0,0.3c0,0.2,0,0.4,0,0.6l0,0v0.1c0,0.2,0.1,0.5,0.1,0.7v0.2c0,0.2,0.1,0.4,0.2,0.6c0,0,0,0.1,0,0.1
			c0.1,0.2,0.2,0.4,0.3,0.6c0,0.1,0.1,0.2,0.1,0.3c0.1,0.1,0.1,0.2,0.1,0.3c0.5,1,1,2.1,1.3,3.2c0.2,0.7,0.1,1.4-0.1,2.1
			c-0.1,0.3-0.3,0.6-0.6,0.9c-0.3,0.4-0.6,0.7-1,1.1c-2.7,2.8-4.9,6.2-6.2,9.9c-0.2,0.4-0.3,0.9-0.4,1.3l0,0l0.2,0.1l0.2,0
			c0.3,0.1,0.7,0.2,1,0.2c0.2,0,0.5,0.1,0.7,0.1c0.9,0.1,1.9,0,2.8-0.2c0.2,0,0.3-0.1,0.5-0.1l0,0c0,0,0.1,0,0.1,0h0.1
			c0.8-0.2,1.5-0.5,2.3-0.8c0.2-0.1,0.4-0.1,0.5-0.2v3.2c0.7,11,6.9,21,16.5,26.4c0.5,0.3,1,0.6,1.5,0.8c0,0.3,0.1,0.6,0.1,0.9
			c0,0.3,0.1,0.5,0.1,0.7l-0.4-0.4c-0.3-0.1-0.7-0.2-1-0.2c-0.6,0-1.1,0.1-1.6,0.4c-0.9,0.5-1.6,1.2-2.1,2.1
			c-1.7,2.3-4.1,4.1-6.7,5.2c0,0-25,4-26,7.2l-11.7,0.7c0,0-4.1,0.5-4.5,9.1v0.2c-0.1,1-0.1,1.9-0.2,2.8v0.1
			c-0.7,5.7-2.4,6.3-2.4,6.3s-4.8,8.5-4.4,12.8c0,0,0,0.1,0,0.1l0,0c0.1,0.6,0,1.2-0.1,1.8c-0.5,2-1.8,3.6-3.6,4.6l-0.5,7.8
			c0,0-4.5-0.7-5.8,4.6c-0.5,2.8-1.7,5.5-3.4,7.8c0,0-7.6,6.3-8,11.6l-4.7,2.9c0,0-10.8-2.5-13.3-6.8c0,0-0.3-0.3-0.8-0.7l-0.1-0.1
			c0,0,0,0,0,0.1c-1.6-1.5-5.1-4.7-4.5-4c0.3,0.7,0.4,1.5,0.2,2.2l-0.8-0.9l-2.2-2.4c0,0-3.1-2.9-7.4-6.4l0,0c-1-0.8-2-1.6-3.1-2.4
			c-5.6-4.1-12.3-8.3-17.2-8.9c-0.1-0.2-0.5-1.8-1.5-1.8c-0.4,0-0.8,0.2-1.1,0.5c-5.8,5.4-6.2,14.4-0.9,20.3
			c0.2,0.3,0.5,0.5,0.8,0.8l1.1,1.1l3.5,3.3l11.8,11c0.1,0.1,0.3,0.2,0.4,0.3l0.7,0.9l0.5,0.7l0.9,1.2l1.4,1.7
			c-0.1,0.2-0.1,0.4-0.2,0.5c-0.5,1.2-0.9,2.4-1.3,3.6v0.1c-0.1,0.3-0.2,0.5-0.3,0.8c0,0.1,0,0.2-0.1,0.3c-0.1,0.3-0.2,0.5-0.2,0.8
			c0,0.1-0.1,0.3-0.1,0.4c0,0.1-0.1,0.2-0.1,0.3c-0.4,1.4-0.6,2.4-0.8,3l-0.9-0.3l0.9,0.4c0,0,0,0.1,0,0.1l-0.1,0.3
			c0.3,0.1,0.6,0.3,0.9,0.4l0.2,0.1l3.4,1.5l0,0c0.7,0.3,1.4,0.6,2.2,1c0.8,0.4,1.4,0.6,2.2,1l0,0c8.8,3.9,21.2,9.6,22.1,10.7
			c1.4,1.8,10.5,7,18.7,2.6c8.3-4.4,10-11.1,10-11.1s8-11.1,8.3-12.7c0.2-1.3,3.9-2.7,5.6-3.3l0.2-0.1l0.7-0.2v2.1
			c0,3.8-0.1,12.2-1.3,18.3c0,0,0,0,0,0.1c-0.3,1.6-0.7,3.1-1.4,4.6c-3.2,6.7-9.1,36.3-9.1,36.3h0.1c0.3-0.1,0.7-0.1,1-0.1
			c-0.1,0.6-0.2,1-0.3,1.3c-0.1,0.3-0.1,0.4-0.1,0.4h0.1c0.3-0.1,0.7-0.1,1-0.1c0.1,0,0.2,0,0.3,0c0,0.2,0,0.4-0.1,0.6v0.2
			c0,0-0.1,0.3-0.1,0.4c-0.7,4.9-2.8,17.8-2.8,17.8s-0.9,7.1-2.2,9.6c-0.6,1-0.9,3.9-1.2,6.9c0,0.4-0.1,0.9-0.1,1.3
			c-0.2,3.7-0.3,7.1-0.3,7.1l-0.1,0.2l-2,9.2c0,0.1,0.1,0.2,0.1,0.3l0,0c0.1,0.3,0.4,0.8,0.7,1.3l0,0l0.1,0.2
			c1.2,2.5,2.8,4.8,4.8,6.7c0.5,0.4,0.9,0.9,1.4,1.2l0,0c0,0.1,0,0.2-0.1,0.3c0,0.1-0.1,0.3-0.1,0.5c-0.2,1.2-0.5,2.3-1,3.4
			c-0.5,1.2-0.9,2.5-1,3.8l0,0c-0.1,0.9-0.1,1.9-0.1,2.8l-0.1,0.5l0,0c-0.3,1.4-1.2,5.5-1.6,8.9c-0.1,0.8-0.2,1.5-0.3,2.2
			c-0.1,0.6-0.1,1.3,0,1.9c0.1,1.1,0,2.2-0.2,3.2c0,0.3-0.1,0.6-0.1,0.9c-0.5,3-1.2,6.2-1.2,6.2l-2.5,23.8v1.4c0,0.2,0,0.4-0.1,0.6
			c0,0.6-0.1,1.2-0.1,2c0,0.3,0,0.6-0.1,0.9c0,0.3,0,0.5-0.1,0.8v0.4c0,0.2,0,0.5,0,0.7c0,0.2,0,0.4,0,0.7v0.6
			c-0.1,1.3-0.2,2.6-0.2,4v1.3c0,0.4,0,0.9-0.1,1.3v8.8c0,0.9,0.1,1.8,0.2,2.7c0.1,0.7,0.2,1.4,0.2,2.1v1c0,0.2,0,0.3,0,0.5v3.9
			c-0.2,3-0.6,5.4-0.7,5.8l0,0v0.8c0,0.2,0.1,0.5,0.1,0.8v0.4l0,0c0,0.2,0,0.3,0.1,0.5c0.1,0.2,0,0.2,0,0.3c0,0.3,0.1,0.6,0.1,1
			c0,0.3,0.1,0.7,0.1,1.1l0.1,0.7c0,0.3,0.1,0.7,0.1,1v0.3c0,0.2,0.1,0.5,0.1,0.7l0.1,1.1c0,0.2,0.1,0.5,0.1,0.7c0,0.1,0,0.2,0,0.4
			l0.1,1.4c0,0.2,0,0.5,0,0.7c0,0.4,0.1,0.7,0.1,1.1s0,0.8,0.1,1.2c0,0.3,0.1,0.7,0.1,1.1c0.1,1,0.1,2,0,2.9c-0.2,1-0.9,3.7-1.4,6.7
			c0,0.3-0.1,0.5-0.1,0.8c0,0.2,0,0.3,0,0.5l-0.1,0.6c0,0.5-0.1,1-0.1,1.5c0,1.2,0.1,2.3,0.4,3.4c0.2,0.7,0.3,1.5,0.4,2.3
			c0,0.1,0,0.3,0,0.4c0,0.3,0.1,0.6,0.1,0.9c0,0.3,0,0.6,0.1,0.9c0,0.6,0.1,1.2,0.1,1.9v1.2c0.1,3.6-0.1,7.2-0.2,8.1v0.2
			c0,0,0.9,15.3,1.8,20.2c0.1,0.6,0.2,1.3,0.3,2c0,0.3,0,0.5,0,0.8c0.1,2.8-0.1,5.7-0.6,8.5c0,0-1,10.5-1.4,10.5
			c-0.2,0-1.1,1.6-1.2,4.1v0.1c-0.1,2.7,0.7,6.5,4.5,10.2l0.4,0.4l0.5-0.2c4-1.4,8-2.9,12-4.5c2.1-0.8,4.2-1.6,6.4-2.5
			c5.2-2.1,10.4-4.2,15.5-6.4l0,0c-0.2-0.1-0.4-0.4-0.5-0.6c-0.8-2.1,0.4-8.6,0.6-9.6c0.2-1,2.5-22.3,2.5-22.3s-0.9-6.7,0.3-9.5
			c1.1-2.9-1.4-13.9-1.4-13.9c-0.5-1-0.2-2.3,0.7-3c1.5-1.6,1-16.3,1-16.3s-0.1-7.4-0.1-9.3c0-1.9,1.7-8.9,3.2-11.2
			c1.5-2.3,0.6-9.6,0.6-9.6l0,0l0.1-0.6c0-0.3,0.1-0.5,0.1-0.8l0.1-0.7c0.7-4,1.5-8,2.7-11.9c1.8-5.7,3.9-15.8,3.9-15.8l12-32.3l0,0
			l0.4-1l0.1-0.4c0,0,5.9,10.9,5.9,21c0,0,1.5,12.2,1.1,15.4s1.2,18.7,1.2,18.7s1.8,22.1,1.8,23.1s2.2,18,3.6,20.6
			c1.4,2.6-1.4,10.5-2.2,11.3c-0.8,0.8,0.3,20.9,0.3,20.9s-2.1,15.8-2.5,19.1c-0.1,0.6-0.2,1.5-0.3,2.6
			c13.8-6.6,27.5-13.6,40.6-21.2c0.6-0.3,1.1-0.6,1.7-1l0.1-19.6c0,0,1-9.1-0.1-12.8c-1.1-3.7-2.2-10.8-0.7-12.7
			c1.5-1.9,0.1-10.8,0.1-10.8s0-18.7,2.1-23.4c2.1-4.6,1.4-34,1.4-34l0.5-19.3c0,0,4.4-4.2,3.4-25.7v-0.7c4.8-0.3,10.2-0.5,11,0.2
			c1.3,1.1,8.7,5.8,14.4,4.6l0,0c0.9-0.2,1.8-0.6,2.6-1.1c1.2-0.6,6.9-5.3,6.9-5.3l-2.2-36.8l0,0l-0.2-4.1c0.4,0.6,0.8,1.2,1.1,1.7
			c0.9,1.3,1.3,2.1,1.3,2.1c0-5.7,16.2-24.3,16.2-24.3s15.1-19.5,18.4-21.9c3.3-2.3,9.8-14.6,9.8-14.6c1-2.3,2.1-4.6,3.3-6.8
			C1064.7,476.1,1059.7,469.6,1060.3,468.1z M1011.8,494.3c-0.3,1.4-0.9,2.6-1.8,3.7c-0.1-0.9-0.1-1.7-0.2-2.5v-0.2
			c-1-12-2-26.6-1.5-28c0.4-2.3,0.6-4.7,0.6-7.1l0,0c0.1-3.3,0-6.4,0-6.4l0,0l0.2-0.2c2.8,8.6,11.4,18.7,11.4,18.7s1.5,4.4,3.3,4.5
			s1.1,5.7,1.1,5.7c-0.8,0.1-1.6,0.4-2.3,0.9c-0.9,0.5-1.7,1-2.4,1.6l0,0C1016.1,488,1011.9,492.9,1011.8,494.3z"/>
		<path id="Caminho_166_1_" class="st29" d="M804.3,479.3c0,0,5-26.3,21.1-26.4l11.8,24.3l-7.9,5.4
			C829.3,482.5,812.3,483.1,804.3,479.3z"/>
		<path id="Caminho_167_1_" class="st6" d="M837.2,477.1l-7.9,5.4c0,0-12,0.4-20.6-1.7c-1.5-0.4-3-0.9-4.4-1.5c0-0.1,0-0.3,0.1-0.4
			c0,0,0-0.1,0-0.1c0.7-3.3,1.8-6.5,3.1-9.7c0.5-1.2,1.1-2.4,1.7-3.6c2.4-4.5,5.7-9,10.2-11.2c1.7-0.8,3.5-1.3,5.4-1.4h0.7l0.3,0.5
			l4,8.2L837.2,477.1z"/>
		<path id="Caminho_168_1_" class="st29" d="M971.1,586.4c0,0,16.9-1.6,18.4-0.4s11.1,7.5,16.8,3.5c5.7-3.9,1.9-17.6,1.9-18.2
			s-0.5-19.9-0.5-19.9l-10.2-13.7l-12.7-24l-26-2.6l0.7,38.1l-0.1,19.5L971.1,586.4z"/>
		<path id="Caminho_169_1_" class="st6" d="M971.1,586.4c0,0,16.9-1.6,18.4-0.4s11.1,7.5,16.8,3.5c5.7-3.9,1.9-17.6,1.9-18.2
			s-0.5-19.9-0.5-19.9l-10.2-13.7l-12.7-24l-26-2.6l0.7,38.1l-0.1,19.5L971.1,586.4z"/>
		<path id="Caminho_170_1_" class="st30" d="M822,452.2c0,0-1.3,16.5-11.7,16.8c-2.4-1.4-4.6-3-6.8-4.7
			c-9.1-6.8-23.4-19.8-19.4-31.9c5.7-17.3,33.3,14.7,33.3,14.7l2.1,2.4L822,452.2z"/>
		<path id="Caminho_171_1_" class="st6" d="M822,452.2c0,0-1.3,16.5-11.7,16.8c-2.4-1.4-4.6-3-6.8-4.7l-0.9-1.1
			c1.7,0.9,3.7,1.4,5.6,1.5c3.2,0.2,6.1-1.7,7.4-4.6c1.1-2.1,2-4.3,2.9-6.6c0.5-1.3,0.8-2.7,1-4.1L822,452.2z"/>
		<path id="Caminho_172_1_" class="st31" d="M817.5,482.1l-2.3-3l-7.8-10l-4-5.1c1.7,0.9,3.7,1.4,5.6,1.5c3.2,0.2,6.1-1.7,7.4-4.6
			c1.1-2.1,2-4.3,2.9-6.6c1.3-3.7,1.3-5.5,0.8-6.2s2.9,2.5,4.5,4l0.1,0.1l0.7,0.7l0.3,0.6l3.9,7.9v0.3
			C830,464.1,831.3,479.9,817.5,482.1z"/>
		<path id="Caminho_173_1_" class="st5" d="M896.2,782c-0.2-0.2-0.5-0.4-0.8-0.5h-0.1c-1.6-0.7-0.1-9.1,0.1-10.2
			c0.3-1.1,2.4-22.1,2.4-22.1s-0.8-6.6,0.3-9.5c1.1-2.9-1.4-13.8-1.4-13.8c-0.5-1-0.2-2.3,0.7-3c1.5-1.6,0.9-16.1,0.9-16.1
			s-0.1-7.3-0.1-9.2c0-1.9,1.6-8.8,3.1-11.1s0.5-9.5,0.5-9.5l0,0l0.1-0.6c0-0.2,0.1-0.5,0.1-0.8l0.1-0.7c0-0.2,0-0.4,0.1-0.6
			c0.1-0.4,0.2-0.9,0.3-1.4c0.1-0.3,0.1-0.6,0.2-1c0.2-1,0.4-2.2,0.7-3.3c0.1-0.4,0.2-0.7,0.3-1.1c0.1-0.4,0.2-0.9,0.3-1.3
			c0.1-0.3,0.1-0.5,0.2-0.8c0.2-0.8,0.4-1.6,0.6-2.3c1.7-5.7,3.8-15.7,3.8-15.7l12.6-33.1l0.1-0.4l0.4,0.8l0,0
			c1.3,2.6,5.4,11.7,5.4,20.1c0,0,1.5,12.1,1.1,15.3c-0.4,3.2,1.2,18.6,1.2,18.6s1.7,22,1.7,22.9s2.2,17.9,3.5,20.5
			c1.4,2.6-1.4,10.4-2.2,11.2S933,744,933,744s-2,15.7-2.4,19c-0.1,0.8-0.3,2.1-0.4,3.7l1-0.5l0.1-0.1c13.8-6.6,27.5-13.6,40.6-21.2
			l0.1-20.8c0,0,0.9-9.1-0.1-12.7c-1.1-3.7-2.2-10.7-0.7-12.6c1.5-1.9,0.1-10.7,0.1-10.7s0-18.6,2-23.2s1.4-33.8,1.4-33.8l0.5-19.1
			c0,0,4.4-4.2,3.4-26.2c-0.1-2.3-0.3-4.9-0.5-7.7c-0.7-8.3-1.5-15.8-2.2-22.3c-0.1-0.6-0.1-1.1-0.2-1.6c-0.1-0.7-0.2-1.4-0.2-2.1
			c-0.2-1.5-0.3-2.9-0.5-4.2c-0.1-0.4-0.1-0.8-0.1-1.2c-0.2-1.9-0.4-3.7-0.6-5.3c-0.1-0.6-0.2-1.3-0.2-1.9c-0.1-0.9-0.2-1.7-0.3-2.5
			c0-0.2,0-0.4-0.1-0.6c0-0.3-0.1-0.7-0.1-1c-0.4-3.5-0.7-5.4-0.7-5.4h-0.1l-13.6,0.1l-29.8,0.3h-0.9l-15.5,0.1H912l-7.4,0.1h-1.3
			l-15.5,0.1h-0.9l-6.4,26.3l-13,29.8c0,0-0.2,3.3-0.7,6.5v0.2c0,0.1,0,0.2-0.1,0.3c0,0.2-0.1,0.3-0.1,0.5c-0.2,1.4-0.5,2.9-1.1,4.2
			c-0.4,0.9-0.7,1.9-0.9,3c-0.2,1.1-0.2,2.2-0.2,3.3l0,0v0.2c0,0-1,4.7-1.6,8.7c-0.1,0.8-0.2,1.5-0.3,2.2c-0.1,0.8-0.2,1.7-0.1,2.5
			c0,0.9,0,1.7-0.1,2.6c0,0.3-0.1,0.6-0.1,0.9c-0.4,3.2-1.3,6.7-1.3,6.7l-2.4,23.6c0,0,0,0.1,0,0.1v1c0,0.2,0,0.4-0.1,0.6
			c0,0.6-0.1,1.2-0.1,2c0,0.3,0,0.6-0.1,0.9c0,0.3,0,0.5-0.1,0.8v0.4c0,0.2,0,0.5,0,0.7c0,0.2,0,0.4,0,0.7v0.6
			c-0.1,1.3-0.2,2.6-0.2,4v1.3c0,0.4,0,0.9-0.1,1.3v8.8c0,1,0.1,1.9,0.2,2.9c0.1,0.6,0.2,1.3,0.2,2v5.4c-0.2,3-0.6,5.4-0.7,5.8l0,0
			v0.8c0,0.2,0.1,0.5,0.1,0.8v0.4l0,0c0,0.2,0,0.3,0.1,0.5c0.1,0.2,0,0.2,0,0.3c0,0.3,0.1,0.6,0.1,1c0,0.3,0.1,0.7,0.1,1.1l0.1,0.7
			c0,0.3,0.1,0.7,0.1,1v0.3c0,0.2,0.1,0.5,0.1,0.7l0.1,1.1c0,0.2,0.1,0.5,0.1,0.7v0.4l0.1,1.4c0,0.2,0,0.5,0,0.7
			c0,0.4,0.1,0.7,0.1,1.1c0,0.3,0,0.8,0.1,1.2c0,0.3,0.1,0.7,0.1,1.1c0.1,0.9,0.1,1.9,0,2.8c-0.6,2.2-1,4.5-1.3,6.8
			c0,0.3-0.1,0.5-0.1,0.8c0,0.2,0,0.3,0,0.5l-0.1,0.6c0,0.5-0.1,1-0.1,1.5c0,1.1,0.1,2.2,0.4,3.3c0.2,0.9,0.4,1.9,0.5,2.9
			c0.1,0.6,0.1,1.1,0.1,1.7s0.1,1.2,0.1,1.9v1.3c0.1,4.1-0.2,8-0.2,8c0,0,0,0.1,0,0.1v0.1c0.1,1.7,0.9,15.3,1.7,19.9
			c0.1,0.8,0.3,1.6,0.3,2.4c0,0.3,0,0.5,0,0.7c0.1,2.7-0.1,5.3-0.6,7.9c0,0-1.3,10.5-1.7,10.5c-0.2,0-1.2,1.9-1.2,4.7v0.1
			c0,2.6,1,6,4.5,9.5l1,1c4-1.4,8-2.9,12-4.5c2.1-0.8,4.2-1.6,6.4-2.5c5.2-2.1,10.4-4.2,15.5-6.4L896.2,782z"/>
		<path id="Caminho_174_1_" class="st30" d="M967.3,374.6l-20.1,21.4c0,0-25.7-10.3-23-13.8c1.1-1.4,0.9-5.7,0.3-10.4
			c-0.9-7.5-3-16.2-3-16.2s45-7.3,41.2,0.3c-1.4,2.8-1.1,6-0.3,9C963.5,368.4,965.2,371.7,967.3,374.6z"/>
		<path id="Caminho_175_1_" class="st6" d="M962.7,355.9c-1.4,2.8-2,3-1.2,6c-5.9,6.3-13.4,13.2-22.7,13.2c-5,0-9.9-1.1-14.4-3.4
			c-0.9-7.5-3-16.2-3-16.2S966.5,348.4,962.7,355.9z"/>
		<path id="Caminho_176_1_" class="st30" d="M971.1,342.1c0,17.8-14.4,32.3-32.2,32.3c-17.8,0-32.3-14.4-32.3-32.2c0,0,0,0,0-0.1
			c0-0.2,0-0.3,0-0.5c0.1-17.8,14.5-32.2,32.4-32.2c17.8,0.1,32.2,14.5,32.2,32.4C971.1,341.9,971.1,342,971.1,342.1L971.1,342.1z"
			/>
		<path id="Caminho_177_1_" class="st6" d="M975.8,554.9c-4.3,0-18.5,0.2-34.4,0.4h-0.2l-5.3,0.1h-0.2c-18.9,0.3-37.4-3.4-44.9-2.7
			c-15.9,1.5,5.7-14.7,5.7-14.7c11.8,2.9,24,4.1,36.1,3.7l4.6-0.2c14.4-0.8,28.9-2.2,36.5-4.4C974.2,541.3,975,547.4,975.8,554.9z"
			/>
		<path id="Caminho_178_1_" class="st32" d="M975.8,554.1c-4.3,0-18.5,0.1-34.4,0.4h-0.2l-5.3,0.1h-0.2c-18.9,0.3-37.4-3.4-44.9-2.7
			c-15.9,1.5,5.7-14.7,5.7-14.7c11.8,2.9,24,4.1,36.1,3.6l4.6-0.2c14.4-0.8,28.9-2.2,36.5-4.4C974.2,540.5,975,546.6,975.8,554.1z"
			/>
		<path id="Caminho_179_1_" class="st6" d="M930.2,383.6l-24.9,11.7L886,544.1c0,0,11.4-5.2,17.9-1.9c6.5,3.3,26.6,0.3,26.6,0.3
			s14.7-0.9,16.8,0.8c2.1,1.7,27.7-6.8,27.7-6.8s4.6-10.3,1.1-11.9c-3.5-1.6,1.1-17.6,1.1-17.6l-2.2-107.3l-4.3-13.8l-11.7-7
			l-11.9,9.5l-5.7,0.8L930.2,383.6z"/>
		<path id="Caminho_180_1_" class="st31" d="M930.2,382l-24.9,11.7L886,542.5c0,0,11.4-5.2,17.9-1.9c6.5,3.3,26.6,0.3,26.6,0.3
			s14.7-0.8,16.8,0.8c2.1,1.6,27.7-6.8,27.7-6.8s4.6-10.3,1.1-11.9c-3.5-1.6,1.1-17.6,1.1-17.6L974.9,398l-4.3-13.8l-11.7-7.1
			l-11.9,9.5l-5.7,0.8L930.2,382z"/>
		<path id="Caminho_181_1_" class="st6" d="M929.8,388.9c0,0,7.2,8.5,7.1,10.3c-0.1,1.8-0.4,6-0.4,6l-5.4,11c0,0-3,13.7-3,16.5
			c0,2.8-4.7,27.5-4.7,27.5l-5.7,37.9l-7.2,49.7l7.3,12.6l8.7-7.3l11.5-88.6l2.4-17.5c0,0,2.6-31.4,2.6-34.7
			c-0.3-4-0.8-7.9-1.5-11.8c0,0,1.8-8.1,9.1-10c7.3-1.9-0.5-0.4-0.5-0.4l-4.2-3.4l-3.7,1.5C942.2,388.2,932,385.1,929.8,388.9z"/>
		<path id="Caminho_182_1_" class="st3" d="M929,388.1c0,0,7.2,8.5,7.1,10.3s-0.4,6-0.4,6l-5.4,11c0,0-3,13.7-3,16.5
			c0,2.8-4.7,27.5-4.7,27.5l-5.7,37.9l-7.2,49.7l7.3,12.6l8.7-7.3l11.5-88.6l2.4-17.5c0,0,2.6-31.4,2.6-34.7
			c-0.3-4-0.8-7.9-1.5-11.8c0,0,1.7-8.1,9.1-10c7.4-1.9-0.5-0.4-0.5-0.4l-4.2-3.4l-3.7,1.5C941.3,387.4,931.1,384.3,929,388.1z"/>
		<path id="Caminho_183_1_" class="st6" d="M924.2,373.8c0,0-1.1,0.8-1.4,6.2c-0.3,5.4-4.1,17.6-4.1,17.6s14.1-9.8,21.1-8.7
			L924.2,373.8z"/>
		<path id="Caminho_184_1_" class="st31" d="M924.2,372.2c0,0-1.1,0.8-1.4,6.2c-0.3,5.4-4.1,17.6-4.1,17.6s14.1-9.8,21.1-8.7
			L924.2,372.2z"/>
		<path id="Caminho_185_1_" class="st6" d="M962.7,369.5L940.5,389c0,0,18.7,11.1,21.1,13.8c2.4,2.7,4.9-26.6,4.9-26.6L962.7,369.5z
			"/>
		<path id="Caminho_186_1_" class="st31" d="M963.5,367.9l-22.2,19.5c0,0,18.7,11.1,21.1,13.8c2.4,2.7,4.9-26.6,4.9-26.6
			L963.5,367.9z"/>
		<path id="Caminho_187_1_" class="st6" d="M925,373.8c0,0-2.4-1.2-4.7,2.3c-1.7,2.3-4,4.1-6.6,5.2c0,0-24.7,3.9-25.6,7.2l-11.5,0.7
			c0,0-4.1,0.5-4.4,9.1s-2.6,9.3-2.6,9.3s-4.8,8.4-4.3,12.7c0.4,4.3-3.7,6.5-3.7,6.5l17,44c0,0,0.5,18.2-2.6,24.8
			c-3.1,6.6-8.9,36.1-8.9,36.1s2.4-0.5,2.3,1.1c-0.1,1.6-3,19.4-3,19.4s-0.8,7-2.2,9.5c-1.4,2.4-1.5,15.2-1.5,15.2l-2.2,9.2
			c0,0,5.2,11.5,13,9.9s22.1-32.4,22.1-32.4l9.1-33.2l7.1-32.8l2-22.2l3.3-49.2l4.7-32.5C921.6,393.6,926.9,376.1,925,373.8z"/>
		<path id="Caminho_188_1_" class="st29" d="M924.2,372.2c0,0-2.4-1.2-4.7,2.3c-1.7,2.3-4,4.1-6.6,5.2c0,0-24.7,3.9-25.6,7.2
			l-11.5,0.7c0,0-4.1,0.5-4.5,9.1s-2.6,9.4-2.6,9.4s-4.7,8.4-4.3,12.7c0.4,4.3-3.7,6.5-3.7,6.5l16.9,44c0,0,0.5,18.2-2.6,24.8
			c-3.1,6.6-8.9,36.1-8.9,36.1s2.4-0.5,2.3,1.1c-0.1,1.6-3,19.4-3,19.4s-0.8,7-2.2,9.5c-1.4,2.4-1.5,15.2-1.5,15.2l-2.2,9.3
			c0,0,5.2,11.5,13,9.9s22.1-32.4,22.1-32.4l9.1-33.2l7.1-32.8l2-22.2l3.3-49.2l4.7-32.5C920.8,392.1,926.1,374.5,924.2,372.2z"/>
		<path id="Caminho_189_1_" class="st6" d="M837.2,477.1l-7.9,5.4c0,0-12,0.4-20.6-1.7l-4.4-1.9l-0.9-0.4l0.9,0.3
			c4.5,1.3,8.1,1.3,10.8,0.4c11.1-3.7,9.9-22.1,9.5-26.3c0-0.3,0-0.5-0.1-0.8c0,0,0,0,0-0.1l0.1,0.1c0.1,0.3,0.3,0.5,0.5,0.7
			c0.2,0.2,0.3,0.4,0.5,0.5l0,0l3.9,7.9v0.3L837.2,477.1z"/>
		<path id="Caminho_190_1_" class="st29" d="M864.4,424.1l-3.8,1.1l-0.5,7.8c0,0-4.5-0.7-5.7,4.6c-0.5,2.8-1.7,5.5-3.4,7.8
			c0,0-7.5,6.2-7.9,11.5l-4.6,2.8c0,0-10.7-2.4-13.1-6.8c0,0,4.9,35-21.1,26.4c0,0,29.1,12.7,30.5,14.5c1.4,1.8,10.3,6.9,18.4,2.6
			c8.1-4.3,9.9-11.1,9.9-11.1s7.9-11,8.1-12.6s6.4-3.5,6.4-3.5l11.7-28.2L864.4,424.1z"/>
		<path id="Caminho_191_1_" class="st6" d="M959.6,385.8l3.9-17.9c0,0,1.7,5.8,3.5,7.2c1.8,1.4,5.8,4.5,5.8,4.5s5.8,2.7,7.9,2.7
			c2,0,13,2.8,14.4,4.3c1.4,1.5,6.8,0.4,6.8,0.4s4.5,1.5,8.4,2.4s5.8,7.5,5,10c-0.7,2.6,0.1,5.4,1.9,7.3c1.6,1.6,2.4,6.9,2.4,6.9
			c2,0.6,3.7,2.1,4.6,3.9c1.4,3,0.9,9.5,0.9,9.5l-20.2,28.5c0,0,0.3,11-0.5,13.4c-0.8,2.4,2.8,43.9,2.8,43.9l4.2,71.3
			c0,0-5.6,4.7-6.8,5.3c-1.2,0.5-2.4-25.2-2.4-26.2S971,516.4,971,516.4s-4.2-6.8-4.2-8.3s-3.9-15.2-3.9-15.2l-5.9-26.4L959.6,385.8
			z"/>
		<path id="Caminho_192_1_" class="st29" d="M1026.9,425.6c0,0.9-0.1,1.5-0.1,1.5l-20.2,28.5l0,0c0,0,0.3,11-0.5,13.4
			c-0.5,1.4,0.6,16,1.5,28c0.7,8.6,1.3,15.9,1.3,15.9l1.8,30.2l2.4,41.1c0,0-5.6,4.7-6.8,5.3s-2.4-25.2-2.4-26.2
			c0-1-31.3-46.9-31.3-46.9s-4.2-6.8-4.2-8.3s-3.9-15.2-3.9-15.2l-6-26.4l2.7-80.8l2.3-17.9c0,0,3.4,5.8,5.2,7.2
			c1.8,1.3,5.8,4.5,5.8,4.5s5.8,2.7,7.9,2.7c2,0,13,2.8,14.4,4.3c1.4,1.5,6.8,0.4,6.8,0.4s4.5,1.5,8.4,2.4s5.8,7.5,5,10
			c-0.7,2.6,0,5.4,1.9,7.3c1.6,1.6,2.4,6.9,2.4,6.9c2,0.7,3.7,2.1,4.6,3.9C1026.8,419.7,1026.9,423.4,1026.9,425.6z"/>
		<path id="Caminho_193_1_" class="st6" d="M880.4,788.4c-2.1,0.9-4.2,1.7-6.4,2.5c-6.6-1.9-12.9-4.2-12.9-4.2
			C867.6,786.9,874,787.5,880.4,788.4z"/>
		<path id="Caminho_194_1_" class="st6" d="M944.6,716.1c0,0,16.1,3.8,17.1,6.4L944.6,716.1z"/>
		<path id="Caminho_195_1_" class="st6" d="M882.3,727.7c0,0-8.4,2.4-0.3,7.3C890.2,739.9,882.3,727.7,882.3,727.7z"/>
		<path id="Caminho_196_1_" class="st6" d="M919.6,597.4c0.9,0,15.7-4.9,20.9-2.7c3.7,1.4,7.6,2.1,11.5,2.2L919.6,597.4z"/>
		<path id="Caminho_197_1_" class="st6" d="M921.6,613l-0.1,1.3l-12.6,33.1c0,0-2,10-3.8,15.7c-1.1,3.9-2,7.8-2.6,11.8l11.2-69.4
			L921.6,613z"/>
		<path id="Caminho_198_1_" class="st5" d="M941.2,554.5l-5.3,0.1h-0.2l-3.1-13.7c1.5-0.1,3-0.1,4.6-0.2L941.2,554.5z"/>
		<path id="Caminho_199_1_" class="st30" d="M1005.1,538l-3.4,2.8l-11.2,9.3c0,0-30.5,16.3-38.9,0.8c-7.4-13.6,27.2-23.3,35.5-25.5
			c1.1-0.3,1.8-0.4,1.8-0.4L1005.1,538z"/>
		<path id="Caminho_200_1_" class="st6" d="M874.9,404.7c0,0,6,2.7,7.3,6.5S874.9,404.7,874.9,404.7z"/>
		<path id="Caminho_201_1_" class="st6" d="M856.4,445.4c0,0-8.7,10.6-5.2,14.7C854.8,464.2,856.4,445.4,856.4,445.4z"/>
		<path id="Caminho_202_1_" class="st6" d="M1011.5,410.7c0,0-8.1,0.8-8.4,7.9L1011.5,410.7z"/>
		<path id="Caminho_203_1_" class="st6" d="M936.1,521.8c0.9-0.8,19.5-28.5,23.9-26L936.1,521.8z"/>
		<path id="Caminho_204_1_" class="st6" d="M971.1,342.1c0,5.3-1.3,10.5-3.8,15.2h-0.2c-2-0.4-3.1-2.8-4.7-4.3c-2-1.9-4.9-2.3-7.3-1
			c-2.4,1.4-3.8,4.1-3.6,7c-1-4.3-0.7-9-1.7-13.3c-1-4.3-4-8.7-8.2-8.8c-1.8,0-3.9,0.7-5.2-0.7c-0.8-0.8-0.9-2.1-1.5-3.1
			c-3-4.8-12-2.4-15.7,0.1c-3.7,2.5-8,6.4-12.6,8.5c0.1-17.8,14.5-32.2,32.4-32.2c17.8,0.1,32.2,14.5,32.2,32.4
			C971.1,342,971.1,342.1,971.1,342.1L971.1,342.1z"/>
		<path id="Caminho_205_1_" class="st33" d="M934.9,332.2c0.6,1,0.7,2.3,1.5,3.1c1.3,1.3,3.4,0.6,5.2,0.7c4.2,0.1,7.2,4.5,8.2,8.8
			s0.7,9,1.7,13.3c-0.2-2.8,1.2-5.5,3.6-6.9c2.4-1.3,5.3-0.8,7.3,1c1.6,1.5,2.6,3.9,4.7,4.3c2.1,0.4,4-1.5,4.8-3.7
			c0.7-2.2,0.7-4.5,1.2-6.8c0.9-4.2,3.7-7.7,5.2-11.7c1.8-4.9,1.8-10.3-0.1-15.1c-1-2.6-2.5-4.8-3.6-7.4c-1.6-3.9-2-8.2-3.9-11.9
			c-3.2-6.2-10.7-9.2-16.9-6.9c-2.9,1.1-5.5,3.3-8.5,4.2c-4,1.3-8.3,0.3-12.4-0.3c-4.1-0.6-8.7-0.6-12.1,2.1
			c-3.8,3.1-4.9,9-8.5,12.5c-1.5,1.4-3.4,2.4-5,3.7c-1.8,1.3-2.8,3.3-2.8,5.5c0.2,2.8,3,5.4,2,8c-0.4,0.8-0.9,1.4-1.5,2
			c-3,3.2-5.3,7-6.6,11.2c7.3,2.3,15.1-5.7,20.8-9.5C922.9,329.9,931.9,327.4,934.9,332.2z"/>
		<path id="Caminho_206_1_" class="st6" d="M1005.1,538l-3.4,2.8c-3-5-15.2-14.9-15.2-14.9l0.5-0.5c1.1-0.3,1.8-0.4,1.8-0.4
			L1005.1,538z"/>
		<path id="Caminho_207_1_" class="st31" d="M1008.4,533c0,0-1.2,3-2.5,5.6c-1.2,2.6-2.6,5-2.7,3.1c-0.1-3.8-15.9-16.5-15.9-16.5
			l2.1-2.1l2.5-2.4L1008.4,533z"/>
		<path id="Caminho_208_1_" class="st6" d="M1008.9,512.9l1.8,30.2c-4.2-6.5-15.8-23.3-23.2-22.8l18-20.7c0.8-0.8,1.4-1.7,2.1-2.7
			C1008.3,505.6,1008.9,512.9,1008.9,512.9z"/>
		<path id="Caminho_209_1_" class="st6" d="M1008.4,533c0,0-1.2,3-2.5,5.6c-4.7-6.5-11.2-14.1-16.4-15.6l2.5-2.4L1008.4,533z"/>
		<path id="Caminho_210_1_" class="st29" d="M1022,423.3l4.9,3.8c0,0,8.1,0.1,8.9,6.9c0.8,6.8,8.3,9.9,8.3,9.9s5.6,5.6,5.6,8.1
			s4.2,7.2,4.2,7.6s4.1,8.7,3.5,10.2c-0.5,1.5,4.3,8,2.8,10.4c-1.2,2.2-2.3,4.5-3.3,6.8c0,0-6.4,12.2-9.6,14.5s-18.2,21.7-18.2,21.7
			s-16,18.4-16,24.1c0,0-15.6-26-24.8-25.4l18-20.7c0,0,3.1-3.4,3.3-5.4c0.1-2,8.7-11.4,12.7-11.8c0,0,0.7-5.6-1.1-5.7
			c-1.8-0.1-3.3-4.5-3.3-4.5s-11.9-14.1-12.1-23C1005.8,441.8,1022,423.3,1022,423.3z"/>
		<path id="Caminho_211_1_" class="st6" d="M1029.1,436.2c0,0-11.4,8.4-8.9,11.1C1022.6,450,1029.1,436.2,1029.1,436.2z"/>
		<path id="Caminho_212_1_" class="st6" d="M1029.7,470.9c0,0,21.1-6.8,23.3,0H1029.7z"/>
		<path id="Caminho_213_1_" class="st6" d="M880.5,434.6c0,0,0,30.9-2.6,34S880.5,434.6,880.5,434.6z"/>
		<path id="Caminho_214_1_" class="st6" d="M1002.7,444.5l3.9,11C1006.6,455.6,1008.2,444.7,1002.7,444.5z"/>
		<g id="Grupo_43_1_" transform="translate(716.977 130.041)" class="st18">
			<path id="Caminho_215_1_" d="M189.9,196c1-2.5-1.6-5-1.9-7.8c-0.3,0.8-0.5,1.6-0.4,2.4c0.2,2.1,1.7,4,2.1,5.9
				C189.8,196.4,189.9,196.2,189.9,196L189.9,196z"/>
			<path id="Caminho_216_1_" d="M234.9,225.2c-1-4.3-0.7-8.8-1.7-13.1s-4-8.8-8.2-8.8c-1.8,0-3.9,0.7-5.2-0.7
				c-0.8-0.8-0.9-2.1-1.5-3.1c-3-4.8-12-2.4-15.7,0.1c-5.5,3.7-13.2,11.4-20.3,9.6c-0.3,0.8-0.7,1.6-0.9,2.5
				c7.3,2.3,15.1-5.7,20.8-9.5c3.7-2.5,12.7-4.9,15.7-0.1c0.6,1,0.7,2.3,1.5,3.1c1.3,1.3,3.4,0.6,5.2,0.7c4.2,0.1,7.2,4.5,8.2,8.8
				c1,4.3,0.7,9,1.7,13.3C234.4,227.1,234.6,226.1,234.9,225.2z"/>
			<path id="Caminho_217_1_" d="M255.3,220.1c-0.7,2.2-2.7,4.1-4.8,3.7s-3.1-2.8-4.7-4.3c-2-1.9-4.9-2.3-7.3-1
				c-2.3,1.4-3.7,3.9-3.6,6.6c0.5-1.7,1.7-3.1,3.2-3.9c2.4-1.3,5.3-0.8,7.3,1c1.6,1.5,2.6,3.9,4.7,4.3s4-1.5,4.8-3.7
				c0.4-1.3,0.6-2.6,0.7-3.9C255.5,219.3,255.4,219.7,255.3,220.1z"/>
			<path id="Caminho_218_1_" d="M261.6,201.7c-1.5,4-4.3,7.5-5.2,11.7c-0.2,0.9-0.3,1.7-0.4,2.6c0.9-4.2,3.7-7.7,5.2-11.7
				c0.7-1.8,1.1-3.7,1.2-5.6C262.3,199.7,262,200.7,261.6,201.7z"/>
		</g>
		<circle id="Elipse_60_1_" class="st34" cx="782.7" cy="429.5" r="0.3"/>
		<path id="Caminho_219_1_" class="st3" d="M511.8,618.7c0,0,9.5-6.8,19.3-2.6c0,0-2.8,5.8-15,5.8L511.8,618.7z"/>
		<path id="Caminho_220_1_" class="st3" d="M510.6,619.1c0,0-2.5,11.4,5.2,18.8c0,0,4.3-4.8-0.6-16.1L510.6,619.1z"/>
		<path id="Caminho_221_1_" class="st3" d="M498,608.7c0,0,0.4-9.6,22.2-7.3c0,0,0.3,6.2-7.2,9.4C505.5,614.1,501.9,611.7,498,608.7
			z"/>
		<path id="Caminho_222_1_" class="st3" d="M496.7,608.7c0,0-9.1,3.3-0.1,23.3c0,0,6-1.6,6.8-9.7
			C504.1,614.1,500.8,611.5,496.7,608.7z"/>
		<path id="Caminho_223_1_" class="st3" d="M483.9,595.5c0,0-1.8-15.8,20.4-15c0,0,2.1,14.2-16.3,18.6L483.9,595.5z"/>
		<path id="Caminho_224_1_" class="st3" d="M468.6,578.3c0,0,2.4-18,24.7-13.5c0,0,0.7,15.5-20.9,17.7L468.6,578.3z"/>
		<path id="Caminho_225_1_" class="st3" d="M457.1,560.2c0,0,4.4-17.7,26.6-13.3c0,0-4.6,15.9-25,16.4L457.1,560.2z"/>
		<path id="Caminho_226_1_" class="st3" d="M446.3,542.6c0,0,4.3-18.3,25.7-13.7c0,0-6.4,17.5-24.1,16.7L446.3,542.6z"/>
		<path id="Caminho_227_1_" class="st3" d="M439.1,525.7c0,0,3-22.3,22.9-18.1c0,0-5,20.4-21.3,21.3L439.1,525.7z"/>
		<path id="Caminho_228_1_" class="st3" d="M432.1,505.3c0,0,3.7-22.5,24-16.8c0,0-7,21.4-22.4,19.8L432.1,505.3z"/>
		<path id="Caminho_229_1_" class="st3" d="M427.6,486.2c0,0,6.4-22.6,21.9-22.6c0,0-6.6,23.9-20.5,27L427.6,486.2z"/>
		<path id="Caminho_230_1_" class="st3" d="M424.5,467.5c0,0,6.9-27.2,19.6-25.6c0,0-4.7,20.7-19,29.7L424.5,467.5z"/>
		<path id="Caminho_231_1_" class="st3" d="M422.2,445.2c0,0,6.6-22.7,19-24c0,0-4.2,22.2-18.5,29.8L422.2,445.2z"/>
		<path id="Caminho_232_1_" class="st3" d="M419.9,424.3c0,0,8.4-22.8,16.6-23.6c0,0-3.2,22.2-15.6,27.2L419.9,424.3z"/>
		<path id="Caminho_233_1_" class="st3" d="M418.2,404.9c0,0,4.8-24.6,12.9-26.9c0,0-0.4,20-12,28.7L418.2,404.9z"/>
		<path id="Caminho_234_1_" class="st3" d="M414.1,379.6c0,0,5.3-19.6,11.8-22.8c0,0-0.4,22.9-10.1,27.5L414.1,379.6z"/>
		<path id="Caminho_235_1_" class="st3" d="M410.9,363l-2.5-34.2c0,0,13.4,25.4,3.6,40.1L410.9,363z"/>
		<path id="Caminho_236_1_" class="st3" d="M400,329.4c0,0-9.9-24.6-12.1-25.9c0,0,18.1,15.5,17.2,36.4L400,329.4z"/>
		<path id="Caminho_237_1_" class="st3" d="M483.3,595.4c0,0-15.8-1.4-14.5,20.7c0,0,14.3,1.7,18.2-16.8L483.3,595.4z"/>
		<path id="Caminho_238_1_" class="st3" d="M467.8,577.7c0,0-18.2,0.6-15.8,23.3c0,0,15.3,2.1,19.6-19.2L467.8,577.7z"/>
		<path id="Caminho_239_1_" class="st3" d="M457,561.7c0,0-16.8-7.1-26.6,13.3c0,0,15.5,5.9,28.1-10.1L457,561.7z"/>
		<path id="Caminho_240_1_" class="st3" d="M445.9,542.8c0,0-17.2-7.6-26.4,12.3c0,0,17.8,5.4,27.9-9.3L445.9,542.8z"/>
		<path id="Caminho_241_1_" class="st3" d="M439.3,526.2c0,0-16.8-14.9-29.2,1.3c0,0,17.1,12.1,30.1,2.1L439.3,526.2z"/>
		<path id="Caminho_242_1_" class="st3" d="M433.1,504.7c0,0-17-15.3-29.2,1.8c0,0,18.8,12.3,29.9,1.5L433.1,504.7z"/>
		<path id="Caminho_243_1_" class="st3" d="M429.3,485.5c0,0-13.4-19.3-28-14.3c0,0,13.9,20.5,28,19L429.3,485.5z"/>
		<path id="Caminho_244_1_" class="st3" d="M424.8,467.4c0,0-13.7-24.5-25.5-19.7c0,0,9.9,18.8,26,23.9L424.8,467.4z"/>
		<path id="Caminho_245_1_" class="st3" d="M423.1,443.8c0,0-13.8-19.2-25.9-16.3c0,0,11.4,19.5,27.4,21.9L423.1,443.8z"/>
		<path id="Caminho_246_1_" class="st3" d="M421.3,423.8c0,0-10.9-21.7-19.2-21.6c0,0,5.7,21.7,18.6,25.3L421.3,423.8z"/>
		<path id="Caminho_247_1_" class="st3" d="M418.5,404.4c0,0-12.1-21.9-20.5-21.6c0,0,6.5,18.9,20.2,23.6L418.5,404.4z"/>
		<path id="Caminho_248_1_" class="st3" d="M416,380.9c0,0-9.1-18.2-16.1-20c0,0,5.1,22.4,15.4,24.9L416,380.9z"/>
		<path id="Caminho_249_1_" class="st3" d="M409.9,362.4L390,334.5c0,0,5.9,28,22.8,33.2L409.9,362.4z"/>
		<path id="Caminho_250_1_" class="st3" d="M395.8,331.8c0,0-22.4-14.2-23.3-16.6c0,0,12,20.7,32.7,23.6L395.8,331.8z"/>
		<path id="Caminho_251_1_" class="st3" d="M394.2,325.1c0,0-26-23.1-32.4-22.9c0,0,20.7,0.2,32.9,21.6L394.2,325.1z"/>
		<path id="Caminho_252_1_" class="st9" d="M415.9,384.5l-0.9,0.2c-6.1-36.7-13.8-58.2-21.7-60.6l0.3-0.9
			C401.9,325.7,409.6,346.9,415.9,384.5z"/>
		<path id="Caminho_253_1_" class="st9" d="M426.1,472.4l-1.4,0.2c-0.4-3.4-0.8-6.9-1.1-10.5c-2.5-30.5-5.6-58.4-9.1-79.3l0.8-1
			c3.4,20.9,7.2,49.7,9.7,80.2C425.4,465.5,425.7,469,426.1,472.4z"/>
		<path id="Caminho_254_1_" class="st9" d="M538.2,635.3c-0.3-0.1-25-10-51.1-34.9c-15.3-14.6-28.3-31.5-38.3-50.1
			c-12.6-23.3-20.8-52.2-24.3-80.4l1.5,0.6c7.8,63.4,38.4,105.8,62.3,128.5c25.9,24.7,50.4,34.5,50.6,34.6L538.2,635.3z"/>
		<g id="Grupo_44_1_" transform="translate(343.967 77.755)" class="st35">
			<path id="Caminho_255_1_" class="st3" d="M211.4,529.4c0,0,11.1-3.7,19.2,3.3c0,0-4.4,4.8-16,1L211.4,529.4z"/>
			<path id="Caminho_256_1_" class="st3" d="M210.1,529.4c0,0-5.8,10.1-0.6,19.5c0,0,5.5-3.3,4.2-15.5L210.1,529.4z"/>
			<path id="Caminho_257_1_" class="st3" d="M201.2,515.7c0,0,3.2-9.1,23.3-0.4c0,0-1.5,6-9.6,6.9
				C206.7,523.2,204.1,519.8,201.2,515.7z"/>
			<path id="Caminho_258_1_" class="st3" d="M200,515.4c0,0-9.6,0.5-7,22.2c0,0,6.2,0.3,9.3-7.3C205.4,522.8,203,519.2,200,515.4z"
				/>
			<path id="Caminho_259_1_" class="st3" d="M191.6,499c0,0,2.9-15.6,23.9-8.2c0,0-2.2,14.2-21.1,12.9L191.6,499z"/>
			<path id="Caminho_260_1_" class="st3" d="M182.1,477.9c0,0,7.6-16.5,27.6-5.6c0,0-4,15-25.2,10.6L182.1,477.9z"/>
			<path id="Caminho_261_1_" class="st3" d="M176.6,457.3c0,0,9.5-15.6,29.3-4.8c0,0-9.1,13.8-28.7,8.2L176.6,457.3z"/>
			<path id="Caminho_262_1_" class="st3" d="M171.5,437.2c0,0,9.5-16.2,28.6-5.4c0,0-11.3,14.8-28,8.8L171.5,437.2z"/>
			<path id="Caminho_263_1_" class="st3" d="M169.6,419c0,0,9.5-20.4,27.3-10.5c0,0-10.8,18-26.7,14L169.6,419z"/>
			<path id="Caminho_264_1_" class="st3" d="M169.1,397.4c0,0,10.3-20.4,27.9-8.9c0,0-13.1,18.3-27.3,12.2L169.1,397.4z"/>
			<path id="Caminho_265_1_" class="st3" d="M170.4,377.9c0,0,12.9-19.7,27.6-15c0,0-13.4,20.8-27.6,19.7L170.4,377.9z"/>
			<path id="Caminho_266_1_" class="st3" d="M173,359.1c0,0,14.7-23.9,26.3-18.6c0,0-10.7,18.4-26.9,22.8L173,359.1z"/>
			<path id="Caminho_267_1_" class="st3" d="M177.5,337.1c0,0,13-19.7,25.2-17.3c0,0-10.6,20-26.5,23L177.5,337.1z"/>
			<path id="Caminho_268_1_" class="st3" d="M181.5,316.5c0,0,14.8-19.2,22.9-17.6c0,0-9.6,20.3-23,21.3L181.5,316.5z"/>
			<path id="Caminho_269_1_" class="st3" d="M185.6,297.4c0,0,11.9-22,20.3-21.8c0,0-6.3,19-20,23.8L185.6,297.4z"/>
			<path id="Caminho_270_1_" class="st3" d="M189.3,272.1c0,0,10.8-17.2,18-18.3c0,0-7.2,21.8-17.8,23.3L189.3,272.1z"/>
			<path id="Caminho_271_1_" class="st3" d="M191.1,255.2l7.8-33.4c0,0,5.2,28.2-8.4,39.4L191.1,255.2z"/>
			<path id="Caminho_272_1_" class="st3" d="M190.8,219.9c0,0-2.1-26.5-3.8-28.4c0,0,12.7,20.2,5.6,39.9L190.8,219.9z"/>
			<path id="Caminho_273_1_" class="st3" d="M191.1,498.7c0,0-14.7-6.1-20,15.5c0,0,13.1,5.9,22.4-10.6L191.1,498.7z"/>
			<path id="Caminho_274_1_" class="st3" d="M181.6,477.1c0,0-17.5-4.8-22,17.6c0,0,14,6.6,24.4-12.5L181.6,477.1z"/>
			<path id="Caminho_275_1_" class="st3" d="M176.1,458.7c0,0-13.9-11.8-29.3,4.8c0,0,13,10.2,29.9-1.3L176.1,458.7z"/>
			<path id="Caminho_276_1_" class="st3" d="M171.1,437.3c0,0-14.2-12.4-28.8,3.9c0,0,15.4,10.4,29.4-0.6L171.1,437.3z"/>
			<path id="Caminho_277_1_" class="st3" d="M169.7,419.5c0,0-11.6-19.2-28.3-7.5c0,0,12.7,16.7,28.1,11L169.7,419.5z"/>
			<path id="Caminho_278_1_" class="st3" d="M170.1,397.2c0,0-11.7-19.6-28.5-6.9c0,0,14.3,17.4,28.1,10.3L170.1,397.2z"/>
			<path id="Caminho_279_1_" class="st3" d="M172.2,377.7c0,0-7-22.4-22.5-22c0,0,7.1,23.7,21.1,26.5L172.2,377.7z"/>
			<path id="Caminho_280_1_" class="st3" d="M173.4,359.1c0,0-5.8-27.4-18.5-26.4c0,0,3.8,20.9,17.7,30.5L173.4,359.1z"/>
			<path id="Caminho_281_1_" class="st3" d="M178.7,336c0,0-7.5-22.4-19.9-23.3c0,0,5.1,22,19.6,29.1L178.7,336z"/>
			<path id="Caminho_282_1_" class="st3" d="M183,316.4c0,0-4-23.9-11.9-26.3c0,0-1,22.4,10.3,29.7L183,316.4z"/>
			<path id="Caminho_283_1_" class="st3" d="M186.2,297.1c0,0-5-24.5-13.2-26.7c0,0,0.6,19.9,12.3,28.5L186.2,297.1z"/>
			<path id="Caminho_284_1_" class="st3" d="M190.6,273.9c0,0-3.3-20-9.5-23.9c0,0-1.8,22.9,7.3,28.4L190.6,273.9z"/>
			<path id="Caminho_285_1_" class="st3" d="M190.4,254.4l-10.7-32.5c0,0-2.7,28.5,11.9,38.5L190.4,254.4z"/>
			<path id="Caminho_286_1_" class="st3" d="M186,221c0,0-17.2-20.3-17.2-22.8c0,0,5.3,23.3,24.1,32.3L186,221z"/>
			<path id="Caminho_287_1_" class="st3" d="M186.5,214.1c0,0-17.9-29.8-24.1-31.5c0,0,19.7,6.3,25,30.4L186.5,214.1z"/>
			<path id="Caminho_288_1_" class="st9" d="M189.5,277.2l-0.9-0.1c5.1-36.8,4.1-59.7-2.7-64.3l0.5-0.8
				C193.6,216.9,194.7,239.5,189.5,277.2z"/>
			<path id="Caminho_289_1_" class="st9" d="M173.2,364.2l-1.4-0.3c0.6-3.4,1.3-6.9,2.1-10.3c6.7-29.8,12.1-57.4,14.9-78.5l1-0.7
				c-2.9,21-7.9,49.6-14.6,79.5C174.5,357.4,173.8,360.8,173.2,364.2z"/>
			<path id="Caminho_290_1_" class="st9" d="M231.7,553c-0.2-0.2-20.8-17-38.4-48.5c-10.3-18.5-17.7-38.5-21.7-59.2
				c-5.1-26-4.3-56,0.8-84l1.2,1c-11.4,62.8,5.2,112.4,21.3,141.2c17.4,31.3,37.8,47.9,38,48.1L231.7,553z"/>
		</g>
		
			<linearGradient id="Caminho_291_2_" gradientUnits="userSpaceOnUse" x1="-17.5464" y1="1002.1964" x2="-17.5464" y2="1003.3035" gradientTransform="matrix(196.6275 0 0 -306.775 3718.6116 308167.75)">
			<stop  offset="0" style="stop-color:#808080;stop-opacity:0.251"/>
			<stop  offset="0.54" style="stop-color:#808080;stop-opacity:0.122"/>
			<stop  offset="1" style="stop-color:#808080;stop-opacity:0.102"/>
		</linearGradient>
		<path id="Caminho_291_1_" class="st36" d="M369.6,551.4c-2,0.8-4.1,1.5-6.3,1.9c-3.8,0.7-7.6,1.1-11.4,1.1c0.1,1,0.2,1.9,0.3,2.8
			c0.2,2.3,0.3,4,0.3,4l-4-0.3l-33.3-2.3l-19.5-2.9c0.9,1.3,2,2.5,3.1,3.6c1.1,1.2,2.5,2.2,3.9,3c0,0,17.6,14.3,20.6,14.4
			c0.4,0,0.6,0.4,0.5,1.1c7.4,0,30.4,1.1,24,13.9c-1.1,2.3-2.9,4.1-5.2,5.1c-7.4,3.1-18.5-2.5-24.3-6c-0.6,1.1-1.1,2.1-1.6,3
			c-1,1.8-1.7,3.1-1.7,3.1l-0.6-0.4l-29.6-21.1l-6.5-5.5c-1.9-0.1-3.8-0.4-5.6-1l0,0l-0.9-0.3c0,0.1-0.1,0.2-0.1,0.2
			c-0.2,0.7-0.4,1.4-0.5,2.1v0.3c-0.1,0.8-0.2,1.6-0.2,2.4c0,0.6,0,1.1,0,1.7c-0.1,11.7,4.7,30.6,4.7,30.6s12.2,31.1,7.9,38.3l0,0
			c-0.2,0.4-0.5,0.7-0.9,0.9c-1.6,1.4-2.6,3.3-2.9,5.4c-1.6,7.6,1.2,19.3,1.2,19.3s-0.3,0.4-0.7,1.1c-1,1.5-2,3-3.2,4.3
			c-0.2,0.2-0.4,0.4-0.6,0.6c-0.5,0.6-1.1,1.1-1.7,1.5c0.1,0.3,0.2,0.7,0.4,1.1s0.3,0.9,0.4,1.5c1,4.2,0.6,8.7-1.1,12.7
			c-1.1,2.9-1.9,6-2.2,9.1l0,0c-0.6,5.7-0.4,11.5,0.4,17.2c-0.1-0.1-0.2-0.1-0.4-0.2c-9.5-5-18.9-10.2-28.2-15.6
			c-2.7-1.6-5.4-3.2-8.1-4.8c-3.3-2-6.6-4-9.9-6c-4.3-2.7-8.6-5.4-12.9-8.3l-2-1.3l-0.8-0.5c-1.1-0.7-2.2-1.5-3.3-2.2
			c-4.5-5.8-8.5-11.8-12.2-18.1c-0.6-1.1-1.2-2.1-1.6-3.1v-0.1l-0.3-0.6l-1.2-0.4l0,0c-2.3-0.8-3.7-1.4-3.7-1.4l0,0
			c1.1-3.8,1.6-7.8,1.5-11.8c-0.1-7.8-2.2-18.1-11.1-26.4c-13.1-12.4-14.9-24.6-15.1-29.2V588c0-0.4,0-0.8,0.1-1.2l1-1
			c-2.5-0.5-4.9-0.7-4.9-0.7s8.7-31.4,23.3-41.9c7.2-5.2,13.3-13.8,17.5-21.2c7.8-13.4,16.5-26.2,26.1-38.3l2.6-3.3l0.8-1l0.2-0.2
			l0.2-0.3c-0.4-0.5-0.7-1.1-1.1-1.6L229,477c-1.1-1.7-2.1-3.4-2-5.5V471c0-0.3,0.1-0.7,0.2-1c0,0.1,0.1,0.1,0.1,0.2
			c1.2-3.6,6-5.2,9.5-7.2c8.3-4.6,11.8-14.8,13.5-24.2c1.4-7.3,2.5-15.6,8.2-20.3c3.7-3,8.6-4,12.3-7c2.1-1.9,3.9-4.2,5.2-6.7
			c0.9-1.5,1.6-3,2.4-4.4c3.7-6.6,8.5-12.8,14.9-16.8c6.4-4,14.5-5.5,21.5-2.8c2.7,1,5.2,2.6,7.8,3.7c1.6,0.7,3.2,1.2,4.9,1.5
			c5.3,1.2,10.8,1.5,15.8,3.8c8,3.6,13.3,11.5,18.1,19c2.5,3.9,6.4,9.6,8.6,15.3v-0.6c1.1,2.5,1.6,5.2,1.7,7.9
			c0,1.2-0.1,2.3-0.4,3.4c-0.8,2.7-2.8,5-5.4,6.1l-0.4,0.2c-0.5,0.3-1.1,0.5-1.7,0.7c-0.1,0.5-0.2,1-0.3,1.4c0,0.2-0.1,0.4-0.1,0.6
			c-0.1,0.5-0.2,1-0.4,1.4c-1.8,6.2-5.4,11.7-10.3,15.8c-3.4,2.9-7.3,5.1-11.6,6.6c-0.3,0.1-0.6,0.2-0.9,0.3c-0.3,0.7-0.6,1.4-1.1,2
			c-0.3,0.4-0.7,0.8-1.2,1.1c-0.3,0.2-0.6,0.4-0.9,0.5c-0.1,0-0.2,0.1-0.2,0.1c-3.1,1.4-7.4,0.3-10.3-1.8c-0.2-0.1-0.3-0.2-0.4-0.3
			c0,0.5-0.1,1-0.2,1.5c-0.1,0.5-0.1,0.9-0.2,1.3c-0.1,0.4-0.1,0.7-0.2,1s-0.1,0.5-0.2,0.8l-0.1,0.4c-1.7,8.3-5,16.2-9.6,23.4
			c-0.7,1-1.4,2-2.2,2.9l-2.1,3.3v0.4c0.4,7.5-2.1,14.5-5.5,20.5c-1.2,2-2.4,3.9-3.8,5.8l0.5,0.3c4.8,2.8,14.3,7.6,20.4,7.2
			c0,0,22.8,2.9,25.4,1.5c0.4-0.2,0.7,0.1,1,0.7c3.7-2.2,12.1-7,18.8-7.6c4.7-0.4,8.5,1.1,9.2,6.9
			C378,545.6,374.5,549.3,369.6,551.4z"/>
		<path id="Caminho_292_1_" class="st37" d="M245,669.9c3,5,3.4,11.2,1.2,16.6c-2.1,5.3-2.3,11.8-2.1,16.6c-2.7-1.6-5.4-3.2-8.1-4.8
			c-3.3-2-6.6-4-9.9-6c-4.3-2.7-8.6-5.4-12.9-8.3l-2-1.3l-0.8-0.5c-0.1-0.1-0.2-0.2-0.3-0.3c-4.4-5.8-8.4-11.9-11.9-18.2
			c-0.7-1.3-1.4-2.6-1.9-3.7v-0.1c-0.9-1.9-1.3-3.4-1-4.1c0.6-2.2,2.1-4.1,4.2-5.2c5-2.6,12.9-0.2,20.8,3.6
			c6.8,3.4,13.3,7.4,19.4,11.8l0.7,0.5l0.1,0.1c2.6,1.8,4.1,3.1,4.1,3.1C244.8,669.7,244.9,669.8,245,669.9z"/>
		<path id="Caminho_293_1_" class="st24" d="M243.7,668.8c3,5,3.4,11.2,1.2,16.6c-2.1,5.3-2.3,11.8-2.1,16.6
			c-2.7-1.6-5.4-3.2-8.1-4.8c-3.3-2-6.6-4-9.9-6c-4.3-2.7-8.6-5.5-12.9-8.3l-2-1.4l-0.8-0.5c-0.1-0.1-0.2-0.2-0.3-0.3
			c-4.4-5.8-8.4-11.9-11.9-18.2c-0.7-1.3-1.4-2.6-1.9-3.7v-0.1c-0.9-1.9-1.3-3.4-1-4.2c0.6-2.2,2.1-4.1,4.2-5.2
			c5-2.6,12.9-0.2,20.8,3.6c6.8,3.4,13.3,7.4,19.4,11.8l0.7,0.5l0.1,0.1c2.6,1.8,4.1,3.1,4.1,3.1S243.5,668.5,243.7,668.8z"/>
		<path id="Caminho_294_1_" class="st37" d="M275.4,689.7c-0.3,1.5-0.7,2.9-1.2,4.3c-1,2.5-1.6,5.1-2,7.8l0,0
			c-0.7,5.6-0.7,11.3,0.1,17c-9.5-5-18.9-10.2-28.2-15.6c-2.7-1.6-5.4-3.2-8.1-4.8c-0.6-4.6-1.5-8.6-2.4-9.6
			c-4.8-6.3-9.2-13-13.1-20c-0.6-1-1.1-2-1.6-3v-0.1c-0.2-0.4-0.4-0.7-0.5-1.1c-1.2-2.5-1.8-4.4-1.5-5.4c0.6-2,1.8-3.8,3.6-5.1
			c7.6-5.6,23.5,2,35.8,9.5l0.3,0.2c2.3,1.4,4.5,2.9,6.5,4.2l1.1,0.8c5.1,3.4,8.4,6.1,8.4,6.1c0.8,1.3,1.5,2.7,2,4.1
			c0.3,0.8,0.5,1.7,0.7,2.5C275.9,684.2,275.9,687,275.4,689.7L275.4,689.7z"/>
		<path id="Caminho_295_1_" class="st6" d="M198.4,663.6c6.3,2.2,15.5,5.1,20.6,5.2c0.5,0,1,0,1.6-0.1l0,0
			c3.5-0.5,14.5,0.3,24.5,1.2c4,0.4,7.9,0.7,11.1,1.1l8,0.9v-3.1c-2.2-1.5-4.8-3.2-7.6-5c-12.3-7.6-28.3-15.3-36.1-9.7
			c-10.8-5.2-21.9-7.8-25,1.6C195.1,656.8,196.4,659.9,198.4,663.6z"/>
		<path id="Caminho_296_1_" class="st38" d="M168.2,591.3c0.2,4.6,1.9,16.7,14.4,28.9c15.9,15.5,9.1,37.8,9.1,37.8s19,7.4,27.1,7.6
			c0.5,0,1,0,1.6-0.1c4.9-0.7,24.4,1.1,35.6,2.3l8,0.9v-66l-87.9-21.3l-8,7.9C168.2,590,168.2,590.7,168.2,591.3z"/>
		<g id="Grupo_45_1_" transform="translate(57.461 367.757)" class="st18">
			<path id="Caminho_298_1_" d="M205.2,300.2l1.4,0.1v0.7l-8-0.9c-8-0.8-20.3-2-28.5-2.3C175.8,297.4,194.4,299.1,205.2,300.2z"/>
			<path id="Caminho_299_1_" d="M110.8,221.6l8-7.9l5.3,1.3l-6.6,6.6c0,0.7,0,1.3,0,2c0.2,4.6,1.9,16.7,14.4,28.9
				c15.9,15.5,9.1,37.8,9.1,37.8s15.7,6.2,24.7,7.4c-0.9,0-1.7,0-2.6,0.1c-0.5,0.1-1,0.1-1.6,0.1c-8.2-0.2-27.1-7.7-27.1-7.7
				s6.8-22.3-9.1-37.8c-12.5-12.2-14.3-24.2-14.5-28.9C110.8,223,110.8,222.3,110.8,221.6z"/>
		</g>
		<path id="Caminho_300_1_" class="st37" d="M343.9,544.7c0,0,26.6-18.4,28.5-1.8c1.9,16.6-28.5,14.3-28.5,14.3V544.7z"/>
		<path id="Caminho_301_1_" class="st40" d="M298.1,532.5c0,0,14.4,9.5,22.3,8.9c0,0,21.7,2.9,24.3,1.5c2.5-1.5,4.1,21.1,4.1,21.1
			l-35.7-2.5l-22.9-3.5c0,0-11.4-7-11.4-13C278.7,538.9,298.1,532.5,298.1,532.5z"/>
		<path id="Caminho_302_1_" class="st3" d="M298.1,532.5c0,0,14.4,9.5,22.3,8.9c0,0,21.7,2.9,24.3,1.5c2.5-1.5,4.1,21.1,4.1,21.1
			l-35.7-2.5l-22.9-3.5c0,0-11.4-7-11.4-13C278.7,538.9,298.1,532.5,298.1,532.5z"/>
		<path id="Caminho_303_1_" class="st37" d="M319.1,580.5c0,0,32.3-1.3,25.1,13.7s-31.7-3.2-31.7-3.2L319.1,580.5z"/>
		<path id="Caminho_304_1_" class="st38" d="M286.6,548.4c0,0,26.2-19.6,22.5-43.5c-3.7-23.9-22.5,18.2-22.5,18.2V548.4z"/>
		<path id="Caminho_305_1_" class="st37" d="M293.9,440.2c0,13.5,8.2,25.6,20.7,30.7c1.4,0.6,2.8,1.1,4.3,1.4
			c1.5,0.4,3.1,0.7,4.7,0.9c1.1,0.1,2.3,0.2,3.4,0.2c3.7,0,7.4-0.6,10.9-1.9c17.3-6,26.4-24.9,20.4-42.1
			c-6-17.3-24.9-26.4-42.1-20.4C302.8,413.6,293.9,426.1,293.9,440.2z"/>
		<path id="Caminho_306_1_" class="st6" d="M168.2,591.3c3,0.5,6.6,1.5,6.6,3.1c0,2.6,41.4,16.6,41.4,16.6s-1.5,3.6,2.6,9.8
			c4.1,6.2,37.8,41.9,37.8,41.9l-0.1,1.1l-0.4,4.1l-2.1,19.7c0,0,12.9-4.7,17.1-4.1c1.3,0.2,2.8-0.7,4.1-1.9
			c-0.5-2.3-1.4-4.6-2.7-6.6c0,0-3.4-2.6-8.4-6.1v-66l-87.9-21.3l-8,7.9C168.2,590,168.2,590.7,168.2,591.3z"/>
		<path id="Caminho_307_1_" class="st3" d="M164.5,587.7c0,0,10.3,1,10.3,3.6c0,2.6,41.4,16.6,41.4,16.6s-1.5,3.6,2.6,9.8
			c4.1,6.2,37.8,41.9,37.8,41.9l-2.6,24.8c0,0,12.9-4.7,17.1-4.1c1.9,0.2,3.9-1.5,5.6-3.4c1.4-1.7,2.7-3.4,3.7-5.3
			c0,0-4.7-19.7,1.5-24.3c6.2-4.7-6.7-38.8-6.7-38.8s-5.9-24.3-4.1-34.7c0.1-0.7,0.3-1.4,0.5-2c0-0.1,0-0.2,0.1-0.2
			c3.7-10,43.4-93.4,43.4-93.4c0-2.4-0.2-4.7-0.5-7.1c-0.1-0.7-0.2-1.3-0.3-2c-0.2-1.2-0.5-2.5-0.8-3.7c-0.2-0.8-0.5-1.5-0.8-2.3
			c-1.2-3.2-3.1-5.6-5.9-5.6c0,0-3.1-3.4-10.3-4.4c-5.3-0.7-12.9,0-23.3,4.4c-24.3,10.3-30,10.9-30,10.9l-12.2,16l-2.5,3.3
			c-9.2,12-17.5,24.6-24.9,37.8c-4.1,7.3-9.8,15.8-16.7,21C172.8,556.7,164.5,587.7,164.5,587.7z"/>
		<path id="Caminho_308_1_" class="st6" d="M255.2,527.9c0,0-34.5,8.5-47.9,30.1L255.2,527.9z"/>
		<path id="Caminho_309_1_" class="st6" d="M244.5,565.7c0,0-6.5,43.9-4.7,47.2C241.6,616.2,244.5,565.7,244.5,565.7z"/>
		<path id="Caminho_310_1_" class="st6" d="M246.9,588.2c2.5,3.3,12.7,28.7,12.7,28.7l-2.9,42.7l-2.6,24.8c0,0,12.9-4.7,17.1-4.1
			c1.8,0.2,3.9-1.5,5.6-3.4c-2.7-14.5-8.4-45-9.5-45.6c-1.4-0.8-8.4-25.2-8.7-32c-0.4-6.8-10.1-22.1-10.1-22.1
			S244.3,584.9,246.9,588.2z"/>
		<path id="Caminho_311_1_" class="st6" d="M256.6,546.3c0.6,1.9,1.6,13.2,1.6,13.2c0.7,9.9,8.2,13.2,12.9,14.2
			c0.1-0.7,0.3-1.4,0.5-2c3.1-8.8,43.5-93.6,43.5-93.6c0-4.3-0.6-8.6-1.6-12.8c-8.8-2.6-22.7,1.4-22.7,1.4
			c-4-0.5-17.1,25.6-17.1,25.6s-8.7,20-9.7,22.7c-1,2.7,0,7.2-0.4,8.7c-0.4,1.6-4.5,2.9-5.1,5c-0.6,2.1-0.2,6.4-0.6,7.2
			C257.5,536.6,256,544.4,256.6,546.3z"/>
		<path id="Caminho_312_1_" class="st3" d="M259.7,544.7c0.6,1.9,1.6,13.2,1.6,13.2c0.6,8.3,5.9,11.9,10.3,13.5
			c2,0.7,4.1,1.1,6.2,1.2l6.2,5.4l28.8,21.3c0,0,10.7-19.8,7.8-20c-2.9-0.1-19.7-14.2-19.7-14.2c-5.2-2.7-10.3-11.9-12.7-16.6
			c0.1-0.6,0.2-1.1,0.3-1.7c1-8.8,22.8-42.4,22.8-42.4s8.4-9.9,11.7-28.2c0.1-0.4,0.2-0.9,0.2-1.3c0.1-0.6,0.2-1.1,0.2-1.7
			c0.4-7-4.7-9.6-10.8-10.2l0,0c-3.2-0.2-6.3-0.1-9.5,0.3c-3.1,0.4-6.3,1-9.3,1.8c-2.6-0.3-9,10.5-13.2,18.1l0,0
			c-2.3,4.2-3.9,7.4-3.9,7.4s-8.8,20-9.8,22.7s0,7.2-0.4,8.7c-0.4,1.6-4.5,2.9-5,5c-0.6,2.1-0.2,6.4-0.6,7.2
			C260.6,535,259.1,542.8,259.7,544.7z"/>
		<path id="Caminho_313_1_" class="st6" d="M226.3,500c5.5,5.6,14.4,5.6,21.5,2.8c7.1-2.9,13.2-8.1,19.8-12.1
			c4.3-2.6,8.8-4.8,13.1-7.5l0,0c0.6-0.4,1.2-0.8,1.8-1.2c4.9-3.4,9.1-7.9,14.1-11c3.4-2.2,7.3-3.5,11.4-3.6c1.9,0,3.7,0.4,5.4,1.1
			c0.3,0.1,0.6,0.3,0.9,0.4c1.7,1,3.2,2.1,4.6,3.4c1.4,1.3,2.8,2.7,4.3,3.8c0.1-0.4,0.2-0.9,0.2-1.3c0.1-0.6,0.2-1.1,0.2-1.7
			c1.1,0.1,2.3,0.2,3.4,0.2c3.7,0,7.4-0.7,10.9-1.9c0-0.1,0-0.3,0.1-0.4c1.2-6.5,3.4-13.4,8.7-17.1c3-2.1,7.9-3,12.1-4.6
			c5-17.6-5.1-35.9-22.7-40.9c-17.6-5-35.9,5.1-40.9,22.7c-2.1,7.2-1.6,14.9,1.3,21.8c-5.3-0.7-12.9,0-23.3,4.4
			c-24.3,10.3-30,10.9-30,10.9l-12.2,16c1.3,2,2.8,4,2.9,6.4C234.2,494.9,230,497.9,226.3,500z"/>
		<path id="Caminho_314_1_" class="st41" d="M346.7,450.9c-5.3,3.7-7.5,10.6-8.7,17.1c-0.2,2.1-0.9,4-2,5.8c-2.8,3.6-8.4,2.6-12,0
			c-3.6-2.6-6.5-6.5-10.6-8.4c-5.4-2.4-11.7-0.7-16.8,2.5c-5,3.2-9.3,7.6-14.1,11c-4.7,3.3-10,5.7-14.9,8.7
			c-6.6,4-12.6,9.2-19.8,12.1c-7.1,2.8-16,2.8-21.5-2.8c3.7-2,7.9-5,7.6-9.4c-0.3-4.4-5.4-7.6-5-12.1s5.6-6.2,9.4-8.4
			c7.9-4.6,11.2-14.7,12.9-24c1.3-7.3,2.4-15.4,7.8-20.1c3.5-3,8.3-4,11.8-7c3.3-2.8,5.2-7.1,7.3-11.1c3.5-6.6,8.1-12.7,14.2-16.6
			c6.1-3.9,13.8-5.4,20.5-2.8c2.6,1,4.9,2.6,7.4,3.7c6.3,2.7,13.5,2.4,19.8,5.2c7.7,3.5,12.7,11.3,17.2,18.8
			c3.9,6.3,11.5,17.6,9.4,25.7C364.5,447.3,352.4,446.9,346.7,450.9z"/>
		<g id="Grupo_46_1_" transform="translate(109.903 228.85)" class="st18">
			<path id="Caminho_315_1_" d="M119,246.1c0-0.3,0.1-0.7,0.2-1c1.4,2.2,3.1,4.3,3.3,6.9c0,0.6,0,1.2-0.1,1.8
				C120.8,251.2,118.8,248.9,119,246.1z"/>
			<path id="Caminho_316_1_" d="M136.4,264.1c7.1-2.9,13.2-8.1,19.8-12.1c4.9-3,10.2-5.4,14.9-8.7c4.9-3.4,9.1-7.9,14.1-11
				c5-3.2,11.4-4.9,16.8-2.5c4.1,1.8,6.9,5.7,10.6,8.4c3.7,2.6,9.2,3.7,12,0c1.2-1.6,1.6-3.8,2-5.8c1.2-6.5,3.4-13.4,8.7-17.1
				c5.7-4,17.8-3.5,20-11.9c0.4-1.5,0.5-3,0.3-4.6c1.4,3.7,2.1,7.5,1.3,10.8c-2.2,8.4-14.3,8-20,11.9c-5.2,3.7-7.5,10.6-8.7,17.1
				c-0.4,2-0.8,4.2-2,5.8c-2.8,3.6-8.4,2.6-12.1,0c-3.7-2.6-6.5-6.5-10.6-8.4c-5.4-2.4-11.7-0.6-16.8,2.5c-5,3.2-9.3,7.6-14.1,11
				c-4.7,3.3-10,5.7-14.9,8.7c-6.6,4-12.6,9.2-19.8,12.1c-7.1,2.8-16,2.8-21.5-2.8c1.4-0.8,2.7-1.7,4-2.7
				C125.4,266.7,131.3,266.1,136.4,264.1z"/>
		</g>
		<path id="Caminho_317_1_" class="st1" d="M807.8,408.3l-35.3-35.5c-7.2-7.4-19.1-7.5-26.5-0.3c0,0-0.1,0.1-0.1,0.1l-222,220.1
			l-93.9-94.6c-7.3-7.4-19.1-7.4-26.5-0.2l-35.7,35.3c-7.3,7.3-7.4,19.2-0.2,26.7l142.5,143.7c7.3,7.3,19.2,7.4,26.7,0.2L807.6,435
			c7.4-7.2,7.5-19.1,0.3-26.5C807.8,408.4,807.8,408.4,807.8,408.3L807.8,408.3z"/>
		<g id="Grupo_47_1_" transform="translate(565.748 468.794)" class="st42">
			<path id="Caminho_318_1_" class="st3" d="M188.7,224.6c0,0-26.4-1.6-23.3,16.9c-0.3,1.9,0.6,3.8,2.3,4.7c0,0,0-1.4,2.7-0.9
				c0.9,0.2,1.9,0.2,2.9,0.1c1.3-0.1,2.5-0.6,3.5-1.4l0,0c0,0,7.4-3.1,10.3-15.2c0,0,2.1-2.6,2-3.3l-4.4,1.9c0,0,1.5,3.2,0.3,5.9
				c0,0-0.1-5.8-1-5.6c-0.2,0-2.3,1.1-2.3,1.1s2.6,5.6,0.6,9.7c0,0,0.8-6.9-1.5-9.3l-3.1,1.8c0,0,3.1,5.8,1,10.5c0,0,0.5-7.2-1.6-10
				l-2.8,2.2c0,0,2.9,5.7,1.1,9.6c0,0-0.2-8.4-1.7-9.1c-1.1,0.9-2,2-2.9,3.1c0,0,2,4.1,0.7,6.3c0,0-0.7-5.6-1.4-5.6
				c0,0-2.5,3.7-2.7,6.3c0.1-2.4,0.9-4.6,2.1-6.6c-1.4,0.3-2.7,1-3.8,2c0,0,0.4-2.6,4.4-2.9c0,0,2-2.8,2.6-3c0,0-4-0.3-6.4,0.7
				c0,0,2.1-2.5,7.1-1.4l2.8-2.3c0,0-5.3-0.7-7.5,0.1c0,0,2.6-2.2,8.2-0.6l3.1-1.8c-2.3-0.5-4.8-0.7-7.2-0.6c0,0,2.8-1.5,8.1,0.1
				l2.2-1c0,0-3.3-0.6-4.3-0.7c-1-0.1-1-0.4-1-0.4c2.1-0.3,4.2-0.1,6.2,0.7C184.2,226.6,188.8,224.9,188.7,224.6z"/>
		</g>
		<g id="Grupo_48_1_" transform="translate(539.923 352.252)" class="st42">
			<path id="Caminho_319_1_" class="st3" d="M167.3,212.1c0,0-13.4,22.8,4.5,28.4c1.6,1.2,3.7,1.2,5.3,0.1c0,0-1.2-0.7,0.4-2.8
				c0.6-0.8,1.1-1.6,1.4-2.5c0.5-1.2,0.6-2.5,0.3-3.8l0,0c0,0,0.6-8-8.9-16.1c0,0-1.4-3.1-2-3.3l-0.3,4.8c0,0,3.5,0.1,5.4,2.4
				c0,0-5.2-2.5-5.5-1.7c-0.1,0.2-0.1,2.6-0.1,2.6s6.2,0.2,8.9,3.8c0,0-5.8-3.8-8.9-2.9l0.2,3.6c0,0,6.5-0.1,9.8,3.9
				c0,0-6.2-3.8-9.7-3.1l0.7,3.5c0,0,6.4,0,9.1,3.4c0,0-7.6-3.6-8.8-2.6c0.3,1.4,0.8,2.7,1.4,4c0,0,4.6,0.1,6,2.2
				c0,0-5.3-1.9-5.6-1.3c0,0,2.2,3.9,4.3,5.3c-2-1.2-3.7-2.9-4.9-4.9c-0.4,1.4-0.4,2.9,0,4.3c0,0-2.2-1.5-0.5-5.2
				c0,0-1.6-3.1-1.5-3.7c0,0-2.1,3.4-2.3,6c0,0-1.2-3,2-7l-0.8-3.5c0,0-3,4.4-3.3,6.7c0,0-0.8-3.3,3.2-7.6l-0.2-3.5
				c-1.5,1.9-2.8,3.9-3.8,6.1c0,0-0.1-3.2,3.8-7.1l0.1-2.4c0,0-2.1,2.6-2.6,3.4c-0.5,0.8-0.8,0.7-0.8,0.7c0.6-2,1.8-3.8,3.4-5.2
				C166.9,217.1,167.6,212.1,167.3,212.1z"/>
		</g>
		<g id="Grupo_49_1_" transform="translate(464.286 188.167)" class="st42">
			<path id="Caminho_320_1_" class="st3" d="M159.2,194.5c0,0-13.4,22.8,4.5,28.4c1.6,1.2,3.7,1.2,5.3,0.1c0,0-1.2-0.7,0.4-2.8
				c0.6-0.8,1-1.6,1.4-2.5c0.5-1.2,0.6-2.5,0.3-3.8l0,0c0,0,0.6-8-8.9-16.1c0,0-1.4-3.1-2-3.3l-0.3,4.8c0,0,3.6,0.1,5.4,2.4
				c0,0-5.2-2.5-5.5-1.7c-0.1,0.2-0.1,2.6-0.1,2.6s6.2,0.2,8.9,3.8c0,0-5.8-3.8-8.9-2.9l0.2,3.6c0,0,6.5-0.1,9.8,3.9
				c0,0-6.2-3.8-9.7-3.1l0.7,3.5c0,0,6.4,0,9.1,3.4c0,0-7.6-3.6-8.9-2.6c0.3,1.4,0.8,2.7,1.5,3.9c0,0,4.6,0.1,6,2.2
				c0,0-5.3-1.9-5.6-1.3c0,0,2.2,3.9,4.3,5.3c-2-1.2-3.7-2.9-4.9-4.9c-0.4,1.4-0.4,2.9,0,4.3c0,0-2.2-1.5-0.5-5.2
				c0,0-1.6-3.1-1.5-3.7c0,0-2.1,3.4-2.3,6c0,0-1.2-3,2-7l-0.8-3.5c0,0-3,4.4-3.3,6.7c0,0-0.8-3.3,3.2-7.6l-0.2-3.5
				c-1.5,1.9-2.8,3.9-3.8,6.1c0,0-0.1-3.2,3.8-7.1l0.1-2.4c0,0-2.1,2.6-2.6,3.4c-0.5,0.8-0.8,0.7-0.8,0.7c0.6-2,1.8-3.8,3.4-5.2
				C158.9,199.4,159.4,194.6,159.2,194.5z"/>
		</g>
		<g id="Grupo_50_1_" transform="translate(182.835 32.361)" class="st42">
			<path id="Caminho_321_1_" class="st3" d="M152.3,177.8c0,0-49.8,36.2-16.8,64.9c0,0,3.7,6.8,11.3,5.1c0,0-1.9-2.5,3.5-5.6
				c1.9-1.1,3.7-2.5,5.4-4c2.2-2.1,3.7-4.8,4.2-7.8l0,0c0,0,8.8-16.5-4-42.6c0,0-0.1-7.9-1.2-9l-5.2,10c0,0,7.5,3.5,9.3,10.1
				c0,0-8.8-10.2-10.1-8.6c-0.3,0.3-2.5,5.4-2.5,5.4s13,6.2,15.5,16.4c0,0-8.9-13.5-16.4-14.5l-2.9,7.9c0,0,14.1,5.9,17.3,17.4
				c0,0-9.8-13.8-17.8-15.6l-1.8,8.2c0,0,13.6,6,16.3,15.6c0,0-12.9-14.8-16.5-13.7c0,0-1.2,7.6-0.6,9.8c0,0,9.7,4.5,10.7,10.3
				c0,0-9.7-9-10.8-8.1c0,0,1.1,10.3,4.4,15.3c0,0-5.4-7-6-15.1c0,0-3.7,4.3-3.9,9.1c0,0-3.2-5.3,3.7-11.7c0,0-0.5-8.1,0.2-9.2
				c0,0-7.7,5.3-10.5,10.8c0,0,0.2-7.6,10.9-13l1.7-8.3c0,0-10.5,6.5-13.4,11.2c0,0,1.4-7.8,13.9-13.3l2.8-7.8c0,0-9.5,4.9-13.8,9.5
				c0,0,2.8-6.9,14.7-11.7l2.5-5c0,0-6.9,3.7-8.7,4.9c-1.8,1.2-2.4,0.9-2.4,0.9c3.2-3.7,7.4-6.4,12.1-7.9
				C147.1,188.2,152.9,178.2,152.3,177.8z"/>
		</g>
		<g id="Grupo_51_1_" transform="translate(97.274 133.518)" class="st42">
			<path id="Caminho_322_1_" class="st3" d="M189.5,196.1c0,0-64.5-27.1-72.9,21.8c0,0-4.4,7.6,1.7,13.9c0,0,1.3-3.4,7.6,0.1
				c2.2,1.2,4.6,2.2,7,2.9c3.3,0.9,6.8,0.7,10-0.5l0,0c0,0,21.2-1.1,39-28.9c0,0,7.6-4.7,8-6.5l-12.8,0.9c0,0,1,9.4-4.3,15
				c0,0,4.7-14.5,2.4-14.9c-0.5-0.1-6.8,0.7-6.8,0.7s1.6,16.3-6.9,24.7c0,0,7.9-16.5,4.5-24.4l-9.4,1.8c0,0,2.6,17.1-6.7,27.1
				c0,0,7.7-17.6,4.7-26.5l-9,3c0,0,2.2,16.7-5.6,25c0,0,6.8-21.2,3.6-24.1c0,0-8.1,3.3-9.9,5.2c0,0,1.3,12.1-3.7,16.4
				c0,0,3.1-14.7,1.5-15.3c0,0-9.4,7.1-12.3,13.2c0,0,3.6-9.4,11.1-14.7c0,0-6.3-1.1-11.2,1.6c0,0,3.3-6.2,13.5-3.3
				c0,0,7.6-5.3,9.1-5.2c0,0-9.7-4.3-16.7-3.8c0,0,7.5-4.3,19,2.9l9-3.3c0,0-12.5-6.4-18.8-6.4c0,0,8.3-3.2,21.1,5.7l9.2-1.9
				c0,0-10.3-6.3-17.3-7.8c0,0,8.4-1.3,20,7.4l6.3-0.5c0,0-7.6-4.5-9.9-5.6c-2.3-1.1-2.2-1.8-2.2-1.8c5.5,1,10.6,3.4,14.8,7.1
				C176.3,197.2,189.4,196.9,189.5,196.1z"/>
		</g>
		<g id="Grupo_52_1_" transform="translate(73.099 46.898)" class="st42">
			<path id="Caminho_323_1_" class="st3" d="M175,214.3c0,0-22.9-52.8-55.7-28.6c0,0-7,2-6.9,9.2c0,0,2.7-1.3,4.4,4.4
				c0.6,2,1.5,3.9,2.6,5.7c1.4,2.4,3.6,4.3,6.3,5.4l0,0c0,0,13.2,11.4,39.7,5.1c0,0,7.2,1.5,8.5,0.7l-8.1-6.8c0,0-4.7,6.1-11.1,6.4
				c0,0,11.1-5.9,9.9-7.5c-0.2-0.3-4.4-3.4-4.4-3.4s-8.3,10.6-18.1,10.8c0,0,14.1-5.3,16.5-11.9l-6.6-4.3c0,0-8.3,11.7-19.5,12.3
				c0,0,14.6-6.1,17.9-13.1l-7.1-3.3c0,0-8.2,11.2-17.6,11.6c0,0,16.1-8.7,15.9-12.3c0,0-6.7-2.7-8.8-2.5c0,0-6.1,7.9-11.5,7.7
				c0,0,10.2-7,9.6-8.2c0,0-9.7-1.2-14.9,0.9c0,0,7.5-3.5,15-2.4c0,0-3.1-4.3-7.5-5.4c0,0,5.5-1.8,9.9,5.7c0,0,7.5,1.2,8.4,2.1
				c0,0-3.3-8.1-7.8-11.7c0,0,6.9,1.7,9.7,12.6l7.2,3.2c0,0-3.8-10.9-7.5-14.5c0,0,6.8,2.8,9.3,15.4l6.5,4.1c0,0-2.5-9.7-5.8-14.5
				c0,0,5.7,4,7.7,15.8l4.1,3.3c0,0-2-7-2.7-9c-0.8-2-0.3-2.3-0.3-2.3c2.7,3.7,4.4,8.1,4.7,12.7C166.6,207.5,174.6,214.8,175,214.3z
				"/>
		</g>
		<g id="Grupo_53_1_" transform="translate(508.192 85.689)" class="st42">
			<path id="Caminho_324_1_" class="st3" d="M185.4,203c0,0-5.4-25.9-22.4-18c-1.9,0.2-3.5,1.6-4,3.5c0,0,1.3-0.3,1.6,2.4
				c0.1,1,0.3,1.9,0.6,2.8c0.4,1.2,1.2,2.3,2.3,3l0,0c0,0,4.9,6.3,17.3,5.9c0,0,3.1,1.4,3.8,1.1l-3-3.8c0,0-2.7,2.3-5.6,1.9
				c0,0,5.5-1.6,5.2-2.4c-0.1-0.2-1.7-1.9-1.7-1.9s-4.7,4-9.1,3.2c0,0,6.8-1.1,8.5-3.8l-2.6-2.5c0,0-4.8,4.5-9.9,3.7
				c0,0,7.1-1.4,9.3-4.2l-2.9-2.2c0,0-4.7,4.3-9,3.6c0,0,8.1-2.4,8.3-4.1c-1.2-0.8-2.4-1.5-3.7-1.9c0,0-3.4,3-5.9,2.4
				c0,0,5.2-2.2,5.1-2.8c0,0-4.2-1.4-6.8-1c2.3-0.5,4.7-0.4,6.9,0.3c-0.6-1.3-1.6-2.4-2.9-3.1c0,0,2.6-0.3,3.9,3.4
				c0,0,3.3,1.2,3.6,1.7c-0.4-2.1-1.2-4.2-2.4-6c0,0,2.9,1.4,3.2,6.5l2.9,2.1c0,0-0.7-5.3-2-7.2c0,0,2.8,1.9,2.7,7.8l2.6,2.5
				c-0.1-2.4-0.5-4.8-1.3-7.1c0,0,2.2,2.3,2,7.8l1.5,1.9c0,0-0.2-3.3-0.4-4.3c-0.2-1,0.1-1.1,0.1-1.1c0.9,1.9,1.2,4,1,6.1
				C182.3,199,185.2,203.1,185.4,203z"/>
		</g>
		<g id="Grupo_54_1_" transform="translate(424.374 518.772)" class="st42">
			<path id="Caminho_325_1_" class="st3" d="M176.5,249.4c0,0-5.4-25.9-22.4-18c-1.9,0.2-3.6,1.6-4,3.5c0,0,1.3-0.3,1.6,2.4
				c0.1,1,0.3,1.9,0.6,2.8c0.4,1.2,1.2,2.3,2.3,3l0,0c0,0,4.9,6.3,17.3,5.9c0,0,3.1,1.4,3.7,1.1l-3-3.8c0,0-2.7,2.3-5.6,1.9
				c0,0,5.5-1.6,5.2-2.4c-0.1-0.2-1.7-1.9-1.7-1.9s-4.7,4-9.1,3.2c0,0,6.8-1.1,8.5-3.8l-2.6-2.6c0,0-4.7,4.5-9.8,3.7
				c0,0,7.1-1.4,9.3-4.2l-2.9-2.2c0,0-4.7,4.3-9,3.6c0,0,8.1-2.4,8.3-4.1c-1.2-0.8-2.4-1.5-3.7-1.9c0,0-3.4,3-5.9,2.4
				c0,0,5.2-2.2,5.1-2.8c0,0-4.2-1.4-6.8-1c2.3-0.5,4.7-0.4,6.9,0.3c-0.6-1.3-1.6-2.4-2.9-3.1c0,0,2.6-0.3,3.9,3.4
				c0,0,3.3,1.2,3.6,1.7c-0.4-2.1-1.2-4.2-2.4-6c0,0,2.9,1.4,3.2,6.5l2.9,2.1c0,0-0.7-5.3-2-7.2c0,0,2.8,1.9,2.7,7.8l2.6,2.5
				c-0.1-2.4-0.5-4.8-1.3-7.1c0,0,2.2,2.3,2,7.8l1.5,1.9c0,0-0.2-3.3-0.4-4.3c-0.2-1,0.1-1.1,0.1-1.1c0.9,1.9,1.2,4,1,6.1
				C173.4,245.3,176.2,249.5,176.5,249.4z"/>
		</g>
	</g>
</g>
</svg>
